<?xml version="1.0" encoding="UTF-8" standalone="no"?>
<!DOCTYPE svg PUBLIC "-//W3C//DTD SVG 1.1//EN" "http://www.w3.org/Graphics/SVG/1.1/DTD/svg11.dtd">
<svg width="100%" height="100%" viewBox="0 0 491 541" version="1.1" xmlns="http://www.w3.org/2000/svg" xmlns:xlink="http://www.w3.org/1999/xlink" xml:space="preserve" xmlns:serif="http://www.serif.com/" style="fill-rule:evenodd;clip-rule:evenodd;stroke-miterlimit:10;">
    <g transform="matrix(1,0,0,1,-2214.69,-2946.92)">
        <g transform="matrix(4.16667,0,0,4.16667,2621.88,3124.04)">
            <path d="M0,44.819L0,0L-38.814,-22.409L-77.628,0L-77.628,44.819L-38.814,67.228L0,44.819Z" style="fill:white;fill-rule:nonzero;stroke:rgb(0,167,93);stroke-width:4px;"/>
        </g>
        <g transform="matrix(4.16667,0,0,4.16667,2357.23,3250.1)">
            <path d="M0,2.743L0,-7.814C2.451,-7.694 2.127,-7.502 4.492,-7.495C5.715,-7.492 7.006,-7.628 8.15,-8.032C11.016,-9.046 13.875,-9.133 16.71,-8.182C20.937,-6.764 25.12,-5.219 29.307,-3.688C30.424,-3.279 30.825,-2.382 30.592,-1.213C30.382,-0.159 29.489,0.696 28.409,0.594C27.184,0.478 25.978,0.148 24.77,-0.119C23.491,-0.402 22.231,-0.796 20.94,-0.985C20.429,-1.06 19.605,-0.874 19.381,-0.518C19.157,-0.164 19.315,0.724 19.637,1.081C21.667,3.333 24.061,4.837 27.293,4.383C30.172,3.978 33.057,3.617 35.941,3.245C37.28,3.073 38.221,3.632 38.515,4.748C38.846,6.01 38.431,6.836 36.978,7.311C32.772,8.684 28.552,10.015 24.32,11.302C22.429,11.876 20.573,11.607 18.898,10.551C16.406,8.981 13.954,7.351 11.485,5.744C8.124,3.556 4.527,2.268 0.431,2.726C-0.579,2.839 1.076,2.743 0,2.743" style="fill:rgb(45,44,43);fill-rule:nonzero;"/>
        </g>
        <g transform="matrix(4.16667,0,0,4.16667,2488.07,3147.87)">
            <path d="M0,26.231C0.451,25.471 0.844,24.807 1.282,24.069L13.206,24.069L13.206,2.211L-13.332,2.211L-13.332,14.408C-14.961,14.096 -16.471,13.808 -18.111,13.494L-18.111,12.285C-18.111,8.019 -18.113,3.752 -18.108,-0.514C-18.107,-2.171 -17.542,-2.746 -15.853,-2.748C-5.294,-2.755 5.264,-2.754 15.822,-2.748C17.398,-2.747 18.002,-2.125 18.002,-0.543C18.005,8.558 18.006,17.659 18.003,26.76C18.002,28.334 17.391,28.956 15.827,28.966C13.908,28.979 11.988,28.957 10.068,28.98C9.509,28.986 9.21,28.85 8.971,28.265C8.167,26.308 6.472,25.433 4.342,25.717C2.938,25.904 1.529,26.052 0,26.231" style="fill:rgb(0,167,93);fill-rule:nonzero;"/>
        </g>
        <g transform="matrix(-4.16667,0,0,4.16667,7514.44,-253.232)">
            <rect x="1197.63" y="817.108" width="5.79" height="23.226" style="fill:rgb(0,167,93);"/>
        </g>
        <g transform="matrix(-3.9966,-1.17827,-1.17827,3.9966,2462.31,3149.85)">
            <path d="M-8.055,15.691L-2.018,15.691L2.265,1.163L-3.289,-0.475L-8.055,15.691Z" style="fill:rgb(0,167,93);fill-rule:nonzero;"/>
        </g>
    </g>
</svg>
