<?xml version="1.0" encoding="UTF-8" standalone="no"?>
<!DOCTYPE svg PUBLIC "-//W3C//DTD SVG 1.1//EN" "http://www.w3.org/Graphics/SVG/1.1/DTD/svg11.dtd">
<svg width="100%" height="100%" viewBox="0 0 491 541" version="1.1" xmlns="http://www.w3.org/2000/svg" xmlns:xlink="http://www.w3.org/1999/xlink" xml:space="preserve" xmlns:serif="http://www.serif.com/" style="fill-rule:evenodd;clip-rule:evenodd;stroke-miterlimit:10;">
    <g transform="matrix(1,0,0,1,-1278.62,-2553.12)">
        <g transform="matrix(4.16667,0,0,4.16667,1685.82,2730.24)">
            <path d="M0,44.817L0,-0.001L-38.814,-22.41L-77.628,-0.001L-77.628,44.817L-38.814,67.227L0,44.817Z" style="fill:white;fill-rule:nonzero;stroke:rgb(0,167,93);stroke-width:4px;"/>
        </g>
        <g transform="matrix(4.16667,0,0,4.16667,1467,2728.91)">
            <path d="M0,35.682C0.245,34.962 0.478,34.238 0.741,33.524C0.855,33.214 0.999,32.903 1.191,32.639C1.295,32.497 1.546,32.357 1.706,32.381C3.119,32.591 4.429,33.114 5.687,33.774C6.054,33.966 6.197,34.265 6.084,34.675C5.992,35.008 5.953,35.368 5.801,35.67C5.657,35.956 5.425,36.235 5.162,36.411C4.967,36.541 4.827,36.74 4.774,36.969C4.656,37.486 4.509,38.002 4.311,38.494C4.153,38.886 3.821,39.147 3.373,39.13C2.506,39.098 1.627,39.104 0.779,38.953C0.295,38.867 -0.164,38.537 -0.592,38.253C-1.632,37.56 -2.648,36.831 -3.673,36.115C-4.222,35.732 -4.491,35.176 -4.592,34.538C-4.744,33.571 -4.646,32.616 -4.416,31.669C-4.141,30.54 -3.882,29.408 -3.597,28.283C-3.315,27.169 -3.004,26.064 -2.716,24.953C-2.528,24.228 -2.367,23.498 -2.175,22.775C-1.947,21.912 -1.766,21.028 -1.44,20.203C-1.08,19.292 -0.345,18.721 0.611,18.439C1.839,18.076 3.059,17.685 4.283,17.309C5.634,16.892 6.986,16.476 8.338,16.062C9.352,15.753 9.834,14.363 9.251,13.489C8.609,12.526 8.194,11.457 7.86,10.354C7.82,10.222 7.752,10.031 7.651,9.994C7.021,9.764 6.934,9.177 6.82,8.669C6.648,7.903 6.592,7.112 6.486,6.331C6.451,6.071 6.542,5.886 6.746,5.705C6.867,5.597 6.948,5.375 6.944,5.206C6.919,4.085 6.773,2.958 6.842,1.844C6.974,-0.299 8.191,-1.701 10.12,-2.544C12.051,-3.387 14.052,-3.475 16.056,-2.973C17.849,-2.524 19.363,-1.607 20.164,0.172C20.332,0.544 20.481,0.961 20.492,1.362C20.525,2.631 20.5,3.903 20.468,5.173C20.461,5.435 20.442,5.637 20.709,5.779C20.955,5.909 20.992,6.145 20.951,6.402C20.845,7.065 20.41,8.542 20.298,9.257C20.259,9.504 19.862,9.485 19.816,9.73C19.745,10.104 19.194,11.441 18.987,11.877C18.687,12.513 18.315,13.116 17.956,13.723C17.75,14.069 17.881,14.9 18.198,15.392C18.595,16.008 19.251,16.13 19.879,16.333C20.282,16.463 20.884,16.661 21.291,16.778C22.925,17.253 24.547,17.776 26.187,18.235C27.344,18.559 28.373,19.058 28.859,20.238C29.102,20.826 29.244,21.458 29.408,22.077C29.763,23.421 30.079,24.776 30.427,26.122C30.727,27.281 31.02,28.442 31.287,29.609C31.564,30.816 31.881,32.029 32.035,33.259C32.199,34.575 31.829,35.722 30.634,36.485C30.185,36.771 29.762,37.097 29.318,37.39C28.667,37.821 28.027,38.273 27.347,38.651C26.951,38.87 26.519,39.024 26.07,39.077C25.392,39.157 24.7,39.134 24.014,39.132C23.428,39.129 23.131,38.718 22.945,38.246C22.8,37.877 22.731,37.476 22.659,37.083C22.604,36.785 22.495,36.571 22.218,36.408C21.979,36.267 21.768,36.08 21.642,35.833C21.463,35.487 21.357,35.095 21.273,34.711C21.167,34.228 21.318,33.933 21.791,33.706C23.007,33.122 24.249,32.605 25.592,32.38C25.942,32.321 26.178,32.452 26.297,32.761C26.628,33.617 26.94,34.48 27.259,35.341C27.303,35.459 27.341,35.579 27.395,35.735C27.717,35.448 27.89,35.182 27.758,34.787C27.488,33.98 27.294,33.141 26.954,32.366C26.574,31.502 26.009,31.263 25.049,31.451C24.71,31.516 24.566,31.393 24.432,31.133C23.208,28.755 21.393,26.967 18.999,25.789C16.753,24.684 14.376,24.327 11.897,24.703C8.779,25.175 6.238,26.669 4.269,29.114C3.747,29.761 3.343,30.506 2.913,31.223C2.808,31.397 2.604,31.489 2.404,31.457C1.289,31.279 0.85,31.462 0.384,32.498C0.027,33.295 -0.204,34.155 -0.418,35.005C-0.469,35.21 -0.229,35.488 -0.124,35.732C-0.083,35.715 -0.042,35.699 0,35.682" style="fill:rgb(45,44,43);fill-rule:nonzero;"/>
        </g>
        <g transform="matrix(4.16667,0,0,4.16667,1490.21,2911.18)">
            <path d="M0,1.861C-1.435,0.547 -2.525,-1.005 -3.206,-2.84C-3.316,-3.136 -3.234,-3.206 -2.968,-3.207C-2.419,-3.209 -1.869,-3.227 -1.321,-3.199C-1.187,-3.192 -1,-3.06 -0.94,-2.936C-0.311,-1.634 0.563,-0.519 1.624,0.455C2.5,1.258 3.538,1.793 4.636,2.212C6.365,2.872 8.156,3.016 9.965,2.676C12.095,2.277 13.915,1.267 15.403,-0.32C16.128,-1.094 16.702,-1.97 17.172,-2.92C17.237,-3.053 17.442,-3.187 17.59,-3.197C18.111,-3.231 18.635,-3.218 19.158,-3.211C19.538,-3.205 19.587,-3.118 19.451,-2.778C18.471,-0.344 16.908,1.62 14.706,3.053C13.162,4.057 11.473,4.669 9.635,4.898C8.083,5.092 6.562,4.993 5.056,4.604C3.755,4.269 2.547,3.721 1.425,2.979C1.226,2.847 0.104,1.956 0,1.861" style="fill:rgb(0,167,93);fill-rule:nonzero;"/>
        </g>
        <g transform="matrix(4.16667,0,0,4.16667,1557.98,2852.26)">
            <path d="M0,-1.861C1.436,-0.547 2.525,1.005 3.207,2.84C3.207,2.84 2.753,2.608 2.79,2.865C2.241,2.867 1.869,3.227 1.321,3.199C1.187,3.192 1,3.06 0.94,2.936C0.311,1.633 -0.563,0.519 -1.624,-0.455C-2.499,-1.258 -3.537,-1.793 -4.635,-2.212C-6.364,-2.872 -8.156,-3.016 -9.964,-2.677C-12.094,-2.277 -13.914,-1.267 -15.402,0.32C-16.128,1.094 -16.701,1.97 -17.171,2.92C-17.237,3.053 -17.441,3.187 -17.59,3.197C-18.11,3.231 -18.422,2.958 -18.945,2.951C-19.325,2.946 -19.375,2.858 -19.238,2.518C-18.258,0.084 -16.908,-1.62 -14.705,-3.053C-13.161,-4.057 -11.473,-4.669 -9.634,-4.899C-8.082,-5.092 -6.561,-4.993 -5.055,-4.604C-3.754,-4.269 -2.547,-3.721 -1.425,-2.979C-1.225,-2.847 -0.104,-1.957 0,-1.861" style="fill:rgb(0,167,93);fill-rule:nonzero;"/>
        </g>
        <g transform="matrix(-4.16667,0,0,4.16667,1492.77,2877.53)">
            <path d="M-15.036,2.016L0,2.016L-0.996,0L-14.069,0L-15.036,2.016Z" style="fill:rgb(0,167,93);fill-rule:nonzero;"/>
        </g>
        <g transform="matrix(4.16667,0,0,4.16667,-1475.9,-1240.28)">
            <rect x="718.992" y="995.529" width="2.016" height="5.663" style="fill:rgb(0,167,93);"/>
        </g>
        <g transform="matrix(0,-4.16667,-4.16667,0,1524.1,2864.56)">
            <path d="M-4.12,-4.12C-6.396,-4.12 -8.241,-2.275 -8.241,0.001C-8.241,2.276 -6.396,4.12 -4.12,4.12C-1.844,4.12 0.001,2.276 0.001,0.001C0.001,-2.275 -1.844,-4.12 -4.12,-4.12" style="fill:rgb(0,167,93);fill-rule:nonzero;"/>
        </g>
    </g>
</svg>
