<?xml version="1.0" encoding="UTF-8" standalone="no"?>
<!DOCTYPE svg PUBLIC "-//W3C//DTD SVG 1.1//EN" "http://www.w3.org/Graphics/SVG/1.1/DTD/svg11.dtd">
<svg width="100%" height="100%" viewBox="0 0 491 541" version="1.1" xmlns="http://www.w3.org/2000/svg" xmlns:xlink="http://www.w3.org/1999/xlink" xml:space="preserve" xmlns:serif="http://www.serif.com/" style="fill-rule:evenodd;clip-rule:evenodd;stroke-miterlimit:10;">
    <g transform="matrix(1,0,0,1,-1278.62,-3012.37)">
        <g transform="matrix(4.16667,0,0,4.16667,1685.82,3189.49)">
            <path d="M0,44.819L0,0L-38.814,-22.409L-77.628,0L-77.628,44.819L-38.814,67.228L0,44.819Z" style="fill:white;fill-rule:nonzero;stroke:rgb(0,167,93);stroke-width:4px;"/>
        </g>
        <g transform="matrix(4.16667,0,0,4.16667,1490.69,3252.38)">
            <path d="M0,19.282C-0.152,19.416 -0.276,19.526 -0.436,19.666C-0.504,18.747 -0.491,17.852 -1.051,17.093C-0.954,17.009 -0.866,16.932 -0.758,16.838C-1.284,16.9 -1.781,16.959 -2.314,17.021C-2.295,16.896 -2.301,16.833 -2.277,16.786C-2.194,16.629 -2.229,16.522 -2.394,16.456C-2.422,16.445 -2.446,16.425 -2.472,16.41C-2.919,16.15 -2.91,16.152 -2.822,15.647C-2.805,15.552 -2.871,15.375 -2.945,15.344C-3.207,15.231 -3.483,15.116 -3.762,15.091C-4.628,15.013 -5.458,14.809 -6.261,14.483C-6.371,14.438 -6.484,14.398 -6.637,14.341C-6.607,14.613 -6.582,14.854 -6.552,15.127C-6.724,15.016 -6.877,14.916 -7.051,14.803C-7.078,14.966 -7.099,15.1 -7.123,15.245L-7.622,15.245C-7.554,15.528 -7.491,15.791 -7.428,16.054C-7.882,16.136 -8.438,15.883 -8.562,15.491C-8.661,15.177 -8.87,15.077 -9.143,15.008C-9.422,14.938 -9.719,14.896 -9.846,14.566C-9.862,14.522 -9.993,14.523 -10.099,14.497C-9.937,13.747 -10.327,13.242 -10.962,12.977C-11.44,12.778 -11.986,12.752 -12.417,13.28L-12.417,12.537C-12.712,12.699 -12.946,12.823 -13.176,12.955C-13.28,13.014 -13.371,13.094 -13.475,13.154C-13.747,13.311 -13.84,13.647 -13.669,13.917C-13.527,14.143 -13.521,14.372 -13.645,14.6C-13.822,14.924 -13.826,14.921 -13.693,15.245C-13.994,15.184 -14.283,15.111 -14.576,15.072C-14.772,15.046 -14.976,15.062 -15.176,15.073C-15.423,15.086 -15.558,15.184 -15.522,15.474C-15.505,15.605 -15.563,15.788 -15.655,15.883C-15.955,16.191 -16.051,16.566 -16.112,16.969C-16.125,17.062 -16.253,17.222 -16.284,17.213C-16.471,17.153 -16.772,17.324 -16.831,16.991C-16.882,16.696 -16.871,16.387 -16.944,16.098C-17.029,15.767 -17.154,15.441 -17.298,15.13C-17.9,13.836 -18.639,12.582 -18.353,11.125C-18.177,11.191 -17.976,11.303 -17.763,11.334C-17.531,11.368 -17.276,11.345 -17.287,10.938C-17.062,11.082 -16.874,11.202 -16.616,11.367C-16.698,11.157 -16.754,11.01 -16.835,10.8C-16.642,10.862 -16.484,10.898 -16.337,10.962C-16.073,11.076 -15.869,11.014 -15.613,10.873C-15.2,10.645 -15.091,10.369 -15.263,9.951C-15.399,9.621 -15.541,9.293 -15.66,8.957C-15.702,8.837 -15.743,8.636 -15.682,8.575C-15.448,8.344 -15.439,8.122 -15.639,7.868C-15.554,7.815 -15.493,7.783 -15.438,7.742C-15.076,7.476 -15.063,7.33 -15.367,7.007C-15.483,6.883 -15.597,6.757 -15.74,6.602C-15.553,6.448 -15.377,6.302 -15.191,6.149C-15.132,6.222 -15.052,6.347 -14.947,6.447C-14.818,6.57 -14.696,6.578 -14.647,6.365C-14.638,6.326 -14.61,6.288 -14.611,6.251C-14.626,5.774 -14.391,5.439 -14.024,5.164C-13.954,5.111 -13.901,4.981 -13.907,4.891C-13.923,4.627 -14.08,4.318 -13.987,4.114C-13.842,3.792 -13.538,3.542 -13.276,3.232C-13.102,3.48 -12.957,3.42 -12.812,3.276C-12.777,3.241 -12.73,3.218 -12.688,3.191C-12.085,2.796 -12.041,2.8 -11.508,3.272C-11.471,3.304 -11.432,3.335 -11.386,3.374C-11.4,3.109 -11.414,2.856 -11.43,2.548C-10.994,2.625 -10.625,2.693 -10.254,2.754C-10.116,2.777 -9.976,2.785 -9.836,2.796C-9.556,2.819 -9.425,2.676 -9.353,2.413C-9.309,2.253 -9.215,2.077 -9.089,1.974C-8.603,1.574 -8.095,1.197 -7.591,0.817C-7.513,0.759 -7.417,0.712 -7.322,0.691C-7.037,0.626 -6.852,0.475 -6.732,0.195C-6.628,-0.047 -6.392,-0.155 -6.131,-0.058C-5.917,0.021 -5.714,0.137 -5.524,0.264C-5.47,0.301 -5.462,0.428 -5.458,0.515C-5.449,0.691 -5.502,0.883 -5.449,1.04C-5.231,1.68 -5.335,2.333 -5.341,2.98C-5.344,3.228 -5.518,3.397 -5.775,3.454C-6.086,3.522 -6.389,3.472 -6.547,3.196C-6.707,2.917 -6.803,2.593 -6.88,2.277C-6.943,2.018 -6.936,1.742 -7.009,1.46C-7.076,1.672 -7.16,1.882 -7.206,2.098C-7.257,2.34 -7.375,2.507 -7.585,2.643C-8.085,2.968 -8.177,3.425 -7.868,4.001C-7.727,3.719 -7.591,3.447 -7.455,3.175C-7.422,3.186 -7.389,3.197 -7.356,3.207C-7.29,3.552 -7.225,3.896 -7.158,4.245C-7.098,4.228 -7.071,4.228 -7.064,4.217C-6.812,3.799 -6.454,3.67 -5.97,3.74C-5.726,3.776 -5.626,3.848 -5.63,4.082C-5.631,4.162 -5.619,4.241 -5.608,4.386C-5.506,4.302 -5.432,4.249 -5.368,4.186C-5.096,3.919 -4.832,3.642 -4.553,3.384C-4.485,3.321 -4.322,3.254 -4.285,3.285C-4.2,3.357 -4.135,3.485 -4.119,3.598C-4.102,3.719 -4.151,3.849 -4.176,4.008C-4.383,3.962 -4.563,3.923 -4.768,3.877C-4.817,4.087 -4.864,4.287 -4.903,4.45C-4.035,4.535 -3.19,4.618 -2.345,4.701L-2.345,4.792C-2.476,4.893 -2.607,4.993 -2.8,5.141C-2.261,5.28 -1.794,5.4 -1.326,5.521C-1.371,5.592 -1.448,5.711 -1.534,5.845C-0.963,5.798 -0.878,5.704 -0.922,5.186C-0.937,5.01 -0.967,4.834 -0.989,4.659C-0.964,4.65 -0.939,4.64 -0.914,4.631C-0.448,5.446 0.017,6.261 0.489,7.087C0.671,6.883 0.665,6.61 0.609,6.341C0.562,6.111 0.533,5.908 0.771,5.765C0.812,5.741 0.865,5.683 0.859,5.65C0.8,5.28 1.105,5.206 1.322,5.048C1.506,4.912 1.655,4.728 1.836,4.586C2.042,4.424 2.266,4.285 2.451,4.157C2.465,4.361 2.458,4.526 2.49,4.681C2.542,4.934 2.474,5.141 2.295,5.31C2.14,5.456 2.072,5.615 2.061,5.836C2.051,6.025 1.956,6.218 1.868,6.394C1.705,6.72 1.556,7.038 1.61,7.424C1.642,7.652 0.76,8.459 0.535,8.427C0.473,8.418 0.416,8.358 0.362,8.315C0.265,8.237 0.171,8.154 0.039,8.041C0.178,8.61 0.593,8.811 1.022,8.572C1.668,8.21 1.844,7.996 1.931,7.467C2.378,7.374 2.479,7.463 2.406,7.9C2.352,8.23 2.342,8.54 2.779,8.776C2.496,8.44 2.51,8.154 2.655,7.842C2.693,7.761 2.629,7.572 2.55,7.507C2.345,7.339 2.105,7.212 1.847,7.048C1.899,6.961 1.984,6.852 2.033,6.728C2.143,6.455 2.262,6.18 2.325,5.895C2.392,5.594 2.565,5.397 2.8,5.23C2.906,5.156 3.008,5.075 3.158,5.026C3.062,5.211 2.966,5.395 2.857,5.605L3.463,5.605C3.442,5.474 3.423,5.352 3.392,5.158C3.709,5.476 3.99,5.733 4.233,6.02C4.298,6.097 4.292,6.287 4.247,6.397C4.08,6.811 4.079,7.209 4.288,7.658C4.469,6.811 4.645,6.016 4.087,5.259C4,5.242 3.843,5.213 3.687,5.183C3.697,5.15 3.707,5.117 3.718,5.083C3.765,5.123 3.813,5.163 3.875,5.215C4.13,4.991 4.362,4.737 4.768,4.86C5.079,4.954 5.409,4.985 5.757,5.049C5.748,4.912 5.76,4.788 5.729,4.677C5.642,4.361 5.755,4.181 6.048,4.043C6.533,3.813 7.016,3.613 7.569,3.64C7.679,3.646 7.794,3.575 7.906,3.536C8.083,3.476 8.26,3.412 8.462,3.342C8.212,2.899 8.657,2.734 8.848,2.427C9.042,2.648 9.217,2.846 9.392,3.045C9.415,3.027 9.437,3.009 9.46,2.99C9.428,3.088 9.396,3.187 9.35,3.325C9.429,3.301 9.487,3.298 9.493,3.279C9.579,2.979 9.83,3.008 10.031,3.054C10.621,3.189 10.841,3.92 10.455,4.382C10.083,4.826 9.719,5.279 9.327,5.758C9.936,5.529 10.183,5.284 10.273,4.833C10.406,4.906 10.533,4.976 10.66,5.046C10.687,5.025 10.712,5.005 10.739,4.984C10.651,4.86 10.564,4.737 10.458,4.588C10.515,4.546 10.609,4.475 10.741,4.377C10.765,4.642 10.784,4.856 10.805,5.091C11.002,5.035 11.165,4.994 11.325,4.944C11.57,4.866 11.761,4.805 12.009,5.044C12.282,5.304 12.626,5.075 12.943,4.947C12.888,4.767 12.838,4.608 12.789,4.449C13.613,4.129 14.129,4.21 14.209,5.186C14.256,5.153 14.293,5.126 14.331,5.1C14.587,5.529 14.692,5.612 15.112,5.685C15.075,5.403 15.04,5.136 15,4.835C15.096,4.864 15.173,4.875 15.237,4.909C15.388,4.992 15.479,4.978 15.57,4.809C15.702,4.565 15.806,4.55 16.179,4.643C16.305,4.393 16.397,4.156 16.249,3.862C16.069,3.505 16.146,3.361 16.507,3.205C17.002,2.99 17.494,2.766 17.938,2.568C18.069,2.657 18.169,2.783 18.263,2.779C18.546,2.766 18.879,2.898 19.083,2.565C19.198,2.377 19.303,2.181 19.44,2.01C19.74,1.634 20.094,1.586 20.478,1.875C20.701,2.043 20.854,2.006 20.999,1.788C21.2,1.484 21.416,1.19 21.602,0.878C21.668,0.767 21.665,0.615 21.693,0.482C21.721,0.348 21.749,0.214 21.777,0.08C21.809,0.084 21.84,0.087 21.871,0.091C21.879,0.24 21.888,0.39 21.898,0.571C22.171,0.488 22.423,0.411 22.675,0.335C22.681,0.304 22.686,0.274 22.692,0.243C22.423,0.132 22.154,0.021 21.862,-0.099C22.353,-0.785 22.679,-1.615 23.588,-1.95C24.011,-2.106 24.443,-2.303 24.698,-2.697L25.671,-2.697C25.673,-2.728 25.675,-2.759 25.677,-2.79C25.509,-2.803 25.34,-2.816 25.123,-2.833C25.326,-3.357 25.746,-3.612 26.211,-3.885C26.245,-3.73 26.29,-3.601 26.297,-3.47C26.315,-3.149 26.469,-2.959 26.785,-2.889C26.899,-2.864 27.006,-2.806 27.168,-2.744C26.967,-2.505 26.794,-2.29 26.608,-2.087C26.559,-2.033 26.458,-1.977 26.398,-1.991C25.986,-2.088 25.957,-1.813 25.925,-1.53C25.92,-1.483 25.899,-1.439 25.883,-1.383C25.661,-1.435 25.451,-1.484 25.242,-1.533C25.228,-1.508 25.215,-1.482 25.202,-1.457C25.346,-1.369 25.483,-1.266 25.636,-1.198C26.036,-1.02 26.157,-0.513 25.869,-0.195C25.777,-0.093 25.701,0.023 25.634,0.177C26.218,-0.364 26.89,-0.117 27.597,-0.118C27.517,0.052 27.482,0.194 27.396,0.29C27.179,0.532 27.15,0.813 27.204,1.107C27.341,1.862 27.493,2.615 27.639,3.371C27.071,3.499 27.071,3.499 27.003,4.574C26.93,4.543 26.863,4.514 26.754,4.468C26.852,4.737 26.873,4.955 26.642,5.139C26.593,5.178 26.611,5.354 26.651,5.444C26.735,5.631 26.854,5.801 26.991,6.032C27.079,5.781 27.143,5.595 27.214,5.39C27.315,5.86 27.301,5.907 27.001,6.092C27.1,6.227 27.197,6.36 27.307,6.51C27.432,6.419 27.534,6.345 27.635,6.271C27.625,6.298 27.614,6.324 27.604,6.351C27.933,6.538 28.262,6.725 28.587,6.909C28.25,7.367 28.25,7.367 28.78,7.74C28.87,7.803 28.958,7.868 29.042,7.929C28.87,8.706 28.888,8.776 29.381,9.209C29.075,9.519 29.282,9.793 29.427,10.11C29.585,10.457 29.649,10.848 29.755,11.22C29.729,11.237 29.703,11.254 29.677,11.27C29.058,10.848 28.437,10.429 27.823,10.001C27.602,9.846 27.396,9.668 27.183,9.501C26.847,9.238 26.646,8.891 26.515,8.489C26.463,8.328 26.354,8.186 26.244,7.986C26.537,7.602 26.388,7.154 26.252,6.679C26.124,6.233 26.056,5.761 26.028,5.297C26.006,4.944 25.866,4.7 25.624,4.466C25.488,4.334 25.413,4.142 25.292,3.949C25.257,3.982 25.168,4.065 25.06,4.166C25.482,4.621 25.399,5.22 25.544,5.752C25.555,5.794 25.474,5.861 25.411,5.952C25.312,5.833 25.228,5.74 25.154,5.64C25.012,5.449 24.864,5.462 24.699,5.608C24.411,5.862 24.296,6.173 24.372,6.552C24.44,6.895 24.526,7.237 24.572,7.583C24.607,7.85 24.694,7.973 24.974,7.864C25.027,7.843 25.092,7.852 25.163,7.846C24.899,8.215 24.644,8.572 24.365,8.962C24.291,8.818 24.229,8.7 24.153,8.553C23.992,8.637 23.818,8.697 23.684,8.805C23.595,8.877 23.511,9.019 23.515,9.126C23.521,9.305 23.459,9.386 23.315,9.48C22.955,9.717 22.606,9.972 22.268,10.24C21.954,10.489 21.883,10.86 21.833,11.232C21.712,12.136 21.6,13.04 21.467,13.941C21.43,14.196 21.333,14.442 21.245,14.764C21.479,14.68 21.672,14.612 21.79,14.57C22.085,14.699 22.352,14.814 22.682,14.958C22.706,14.642 22.722,14.428 22.738,14.216C23.454,13.905 24.181,14.47 24.358,15.11C24.465,15.498 24.602,15.895 24.812,16.235C25.11,16.713 25.251,17.209 25.268,17.765C25.304,18.942 25.27,20.111 25.029,21.267C24.858,22.088 24.594,22.31 23.669,22.366C23.589,22.627 23.506,22.897 23.423,23.167C23.395,23.166 23.367,23.165 23.339,23.164C23.32,22.986 23.318,22.803 23.277,22.631C23.204,22.326 23.143,22.01 23.01,21.73C22.851,21.394 22.83,21.202 23.177,21.098C23.698,20.942 23.654,20.621 23.581,20.23C23.47,19.641 23.374,19.05 23.257,18.379C23.114,18.557 23.017,18.686 22.913,18.808C22.665,19.096 22.418,19.385 22.163,19.665C22.054,19.785 21.922,19.781 21.842,19.633C21.539,19.071 21.027,19.051 20.494,19.117C20.062,19.171 19.771,19.03 19.556,18.641C19.407,18.373 19.198,18.132 18.983,17.91C18.45,17.362 17.831,17.25 17.146,17.584C16.852,17.726 16.585,17.924 16.268,18.119C16.671,18.499 16.572,18.919 16.509,19.348C16.469,19.629 16.502,19.921 16.503,20.207C16.503,20.255 16.525,20.323 16.502,20.346C16.382,20.467 16.267,20.61 16.119,20.679C15.998,20.736 15.832,20.715 15.688,20.702C15.27,20.664 14.853,20.609 14.435,20.57C14.39,20.566 14.333,20.622 14.292,20.661C14.218,20.729 14.154,20.807 14.083,20.878C13.253,21.72 12.747,21.827 11.664,21.341C11.16,21.115 10.674,21.025 10.125,21.197C9.587,21.365 9.495,21.272 9.213,20.795C9.1,20.604 8.897,20.449 8.705,20.326C8.532,20.216 8.314,20.176 8.12,20.096C7.941,20.023 7.768,19.928 7.598,20.109C7.417,20.302 7.24,20.49 7.333,20.795C7.37,20.916 7.428,21.095 7.372,21.168C7.263,21.312 7.079,21.496 6.929,21.493C6.48,21.486 6.026,21.413 5.708,21.026C5.666,20.974 5.603,20.91 5.545,20.905C5.117,20.862 4.7,20.664 4.256,20.872C3.813,21.08 3.349,21.244 2.895,21.43C2.71,21.505 2.574,21.497 2.431,21.318C2.342,21.205 2.164,21.133 2.015,21.107C1.79,21.068 1.652,20.96 1.565,20.759C1.47,20.539 1.358,20.326 1.274,20.102C1.177,19.845 0.998,19.793 0.75,19.824C0.257,19.887 0.256,19.882 0.06,19.42C0.044,19.383 0.028,19.346 0,19.282" style="fill:rgb(45,44,43);fill-rule:nonzero;"/>
        </g>
        <g transform="matrix(4.16667,0,0,4.16667,1439.53,3216.73)">
            <path d="M0,13.573C0.031,13.531 0.056,13.49 0.086,13.456C1.22,12.155 2.263,10.788 3.136,9.297C3.686,8.357 4.154,7.379 4.452,6.324C4.643,5.648 4.739,4.962 4.672,4.262C4.585,3.363 4.268,2.545 3.703,1.836C2.731,0.615 1.455,0 -0.102,0.02C-1.324,0.036 -2.386,0.49 -3.266,1.341C-4.1,2.147 -4.57,3.137 -4.679,4.288C-4.762,5.156 -4.599,5.997 -4.329,6.819C-3.944,7.988 -3.368,9.064 -2.704,10.096C-1.912,11.327 -1.003,12.468 0,13.573" style="fill:rgb(0,167,93);fill-rule:nonzero;"/>
        </g>
        <g transform="matrix(0,-4.16667,-4.16667,0,1439.51,3228.38)">
            <path d="M-1.883,-1.883C-2.923,-1.883 -3.766,-1.04 -3.766,0C-3.766,1.04 -2.923,1.883 -1.883,1.883C-0.843,1.883 0,1.04 0,0C0,-1.04 -0.843,-1.883 -1.883,-1.883" style="fill:white;fill-rule:nonzero;"/>
        </g>
        <g transform="matrix(4.16667,0,0,4.16667,1563.62,3218.53)">
            <path d="M0,13.573C0.031,13.531 0.056,13.491 0.086,13.456C1.22,12.156 2.263,10.788 3.136,9.297C3.686,8.357 4.154,7.379 4.451,6.325C4.642,5.648 4.739,4.962 4.671,4.262C4.584,3.363 4.268,2.546 3.703,1.836C2.73,0.616 1.455,0 -0.103,0.02C-1.324,0.036 -2.386,0.49 -3.267,1.342C-4.1,2.147 -4.57,3.138 -4.68,4.289C-4.762,5.156 -4.599,5.997 -4.329,6.819C-3.944,7.989 -3.368,9.064 -2.705,10.096C-1.913,11.327 -1.003,12.468 0,13.573" style="fill:rgb(0,167,93);fill-rule:nonzero;"/>
        </g>
        <g transform="matrix(0,-4.16667,-4.16667,0,1563.6,3230.17)">
            <path d="M-1.883,-1.883C-2.923,-1.883 -3.766,-1.04 -3.766,0C-3.766,1.04 -2.923,1.883 -1.883,1.883C-0.843,1.883 0,1.04 0,0C0,-1.04 -0.843,-1.883 -1.883,-1.883" style="fill:white;fill-rule:nonzero;"/>
        </g>
        <g transform="matrix(4.16667,0,0,4.16667,1614.68,3239.11)">
            <path d="M0,13.573C0.031,13.531 0.056,13.491 0.086,13.456C1.22,12.155 2.263,10.788 3.136,9.297C3.686,8.357 4.154,7.379 4.452,6.325C4.642,5.648 4.739,4.962 4.672,4.262C4.585,3.363 4.268,2.545 3.703,1.836C2.73,0.616 1.455,0 -0.103,0.02C-1.324,0.036 -2.386,0.49 -3.267,1.341C-4.1,2.147 -4.57,3.138 -4.68,4.289C-4.762,5.156 -4.599,5.997 -4.329,6.819C-3.944,7.989 -3.368,9.064 -2.704,10.096C-1.913,11.327 -1.003,12.468 0,13.573" style="fill:rgb(0,167,93);fill-rule:nonzero;"/>
        </g>
        <g transform="matrix(0,-4.16667,-4.16667,0,1614.67,3250.75)">
            <path d="M-1.883,-1.883C-2.923,-1.883 -3.766,-1.04 -3.766,0C-3.766,1.04 -2.923,1.883 -1.883,1.883C-0.843,1.883 0,1.04 0,0C0,-1.04 -0.843,-1.883 -1.883,-1.883" style="fill:white;fill-rule:nonzero;"/>
        </g>
        <g transform="matrix(4.16667,0,0,4.16667,1488.2,3247.94)">
            <path d="M0,13.573C0.031,13.531 0.056,13.49 0.086,13.456C1.22,12.155 2.263,10.788 3.136,9.297C3.686,8.357 4.154,7.379 4.452,6.324C4.642,5.648 4.739,4.962 4.672,4.262C4.585,3.363 4.268,2.545 3.703,1.836C2.73,0.615 1.455,0 -0.103,0.02C-1.324,0.036 -2.386,0.49 -3.266,1.341C-4.1,2.147 -4.57,3.137 -4.679,4.289C-4.762,5.156 -4.599,5.997 -4.329,6.819C-3.944,7.989 -3.368,9.064 -2.704,10.096C-1.913,11.327 -1.003,12.468 0,13.573" style="fill:rgb(0,167,93);fill-rule:nonzero;"/>
        </g>
        <g transform="matrix(0,-4.16667,-4.16667,0,1488.18,3259.58)">
            <path d="M-1.883,-1.883C-2.923,-1.883 -3.766,-1.04 -3.766,0C-3.766,1.04 -2.923,1.883 -1.883,1.883C-0.843,1.883 0,1.04 0,0C0,-1.04 -0.843,-1.883 -1.883,-1.883" style="fill:white;fill-rule:nonzero;"/>
        </g>
        <g transform="matrix(4.16667,0,0,4.16667,1542.6,3266.54)">
            <path d="M0,13.573C0.031,13.531 0.056,13.491 0.086,13.456C1.22,12.155 2.263,10.788 3.136,9.297C3.686,8.357 4.154,7.379 4.452,6.325C4.642,5.648 4.739,4.962 4.672,4.262C4.585,3.363 4.268,2.545 3.703,1.836C2.73,0.615 1.455,0 -0.103,0.02C-1.324,0.036 -2.386,0.49 -3.267,1.341C-4.1,2.147 -4.57,3.137 -4.68,4.289C-4.762,5.156 -4.599,5.997 -4.329,6.819C-3.944,7.989 -3.368,9.064 -2.704,10.096C-1.913,11.327 -1.003,12.468 0,13.573" style="fill:rgb(0,167,93);fill-rule:nonzero;"/>
        </g>
        <g transform="matrix(0,-4.16667,-4.16667,0,1542.58,3278.18)">
            <path d="M-1.883,-1.883C-2.923,-1.883 -3.766,-1.04 -3.766,0C-3.766,1.04 -2.923,1.883 -1.883,1.883C-0.843,1.883 0,1.04 0,0C0,-1.04 -0.843,-1.883 -1.883,-1.883" style="fill:white;fill-rule:nonzero;"/>
        </g>
    </g>
</svg>
