<?xml version="1.0" encoding="UTF-8" standalone="no"?>
<!DOCTYPE svg PUBLIC "-//W3C//DTD SVG 1.1//EN" "http://www.w3.org/Graphics/SVG/1.1/DTD/svg11.dtd">
<svg width="100%" height="100%" viewBox="0 0 491 541" version="1.1" xmlns="http://www.w3.org/2000/svg" xmlns:xlink="http://www.w3.org/1999/xlink" xml:space="preserve" xmlns:serif="http://www.serif.com/" style="fill-rule:evenodd;clip-rule:evenodd;stroke-miterlimit:10;">
    <g transform="matrix(1,0,0,1,-2214.69,-2471.77)">
        <g transform="matrix(4.16667,0,0,4.16667,2621.88,2648.89)">
            <path d="M0,44.819L0,0L-38.814,-22.409L-77.628,0L-77.628,44.819L-38.814,67.228L0,44.819Z" style="fill:white;fill-rule:nonzero;stroke:rgb(0,167,93);stroke-width:4px;"/>
        </g>
        <g transform="matrix(4.16667,0,0,4.16667,-2489.97,-1666)">
            <path d="M1202.92,1054.46L1201.14,1054.46L1201.14,1065.57L1202.92,1065.57L1202.92,1054.46ZM1199.01,1054.42L1197.19,1054.42L1197.19,1065.57L1199.01,1065.57L1199.01,1054.42ZM1210.98,1065.56C1211.01,1065.1 1211.04,1064.67 1211.04,1064.25C1211.05,1061.45 1211.04,1058.65 1211.04,1055.85C1211.04,1054.2 1210.92,1054.12 1209.18,1054.53L1209.18,1065.56L1210.98,1065.56ZM1206.96,1054.45L1205.17,1054.45L1205.17,1065.57L1206.96,1065.57L1206.96,1054.45ZM1193.17,1065.52L1194.97,1065.52L1194.97,1054.4L1193.17,1054.4L1193.17,1065.52ZM1179.12,1054.45L1177.27,1054.45L1177.27,1065.67C1177.94,1065.63 1178.49,1065.61 1179.12,1065.57L1179.12,1054.45ZM1181.19,1065.54L1183.02,1065.54L1183.02,1054.44L1181.19,1054.44L1181.19,1065.54ZM1187.01,1065.56L1187.01,1054.43C1186.57,1054.38 1186.22,1054.34 1185.87,1054.29C1185.25,1054.2 1185.01,1054.41 1185.02,1055.07C1185.09,1058.14 1185.11,1061.21 1185.15,1064.29C1185.15,1064.71 1185.15,1065.13 1185.15,1065.56L1187.01,1065.56ZM1191.04,1065.57L1191.04,1054.4C1190.36,1054.36 1189.75,1054.33 1189.16,1054.3L1189.16,1065.57L1191.04,1065.57ZM1213.03,1067.67L1175.2,1067.67L1175.2,1052.38L1213.03,1052.38L1213.03,1067.67Z" style="fill:rgb(45,44,43);fill-rule:nonzero;"/>
        </g>
        <g transform="matrix(-4.16667,0,0,4.16667,7460.9,-1575.78)">
            <rect x="1175.18" y="1048.25" width="37.853" height="1.895" style="fill:rgb(45,44,43);"/>
        </g>
        <g transform="matrix(4.16667,0,0,4.16667,2426.45,2821.84)">
            <path d="M0,0.481C0.002,-0.608 -0.453,-1.163 -1.358,-1.147C-2.186,-1.133 -2.67,-0.599 -2.69,0.239C-2.712,1.116 -2.13,1.602 -1.358,1.632C-0.57,1.663 -0.018,1.195 0,0.481M2.145,0.192C2.155,2.225 0.715,3.738 -1.257,3.767C-3.235,3.796 -4.865,2.187 -4.85,0.22C-4.835,-1.683 -3.227,-3.303 -1.344,-3.309C0.585,-3.315 2.134,-1.76 2.145,0.192" style="fill:rgb(45,44,43);fill-rule:nonzero;"/>
        </g>
        <g transform="matrix(4.16667,0,0,4.16667,2524.41,2808.97)">
            <path d="M0,6.657L-3.804,6.657C-2.708,5.175 -2.468,3.677 -2.902,1.955L-9.29,1.955L-9.29,0L-0.671,0C-0.671,1.181 -0.757,2.336 -0.646,3.472C-0.542,4.533 -0.229,5.573 0,6.657" style="fill:rgb(45,44,43);fill-rule:nonzero;"/>
        </g>
        <g transform="matrix(4.16667,0,0,4.16667,2463.77,2821.84)">
            <path d="M0,0.481C0.002,-0.608 -0.453,-1.163 -1.358,-1.147C-2.186,-1.133 -2.67,-0.599 -2.69,0.239C-2.712,1.116 -2.13,1.602 -1.359,1.632C-0.57,1.663 -0.018,1.195 0,0.481M2.144,0.192C2.155,2.225 0.715,3.738 -1.257,3.767C-3.235,3.796 -4.865,2.187 -4.85,0.22C-4.836,-1.683 -3.227,-3.303 -1.344,-3.309C0.584,-3.315 2.134,-1.76 2.144,0.192" style="fill:rgb(45,44,43);fill-rule:nonzero;"/>
        </g>
        <g transform="matrix(4.16667,0,0,4.16667,2394.61,2676.94)">
            <path d="M0,1.263L0,-2.454C-1.67,-2.454 -3.3,-2.458 -4.93,-2.445C-5.044,-2.445 -5.224,-2.351 -5.261,-2.256C-5.713,-1.104 -6.144,0.057 -6.597,1.263L0,1.263ZM-7.477,8.407C-7.914,8.407 -8.298,8.397 -8.681,8.409C-9.104,8.422 -9.273,8.229 -9.259,7.81C-9.225,6.837 -9.53,6.684 -8.235,6.555C-8.235,5.317 -8.266,4.072 -8.221,2.828C-8.2,2.257 -8.095,1.667 -7.91,1.125C-7.431,-0.278 -6.876,-1.654 -6.374,-3.05C-6.194,-3.551 -5.893,-3.775 -5.351,-3.77C-3.479,-3.752 -1.605,-3.764 0.267,-3.762C1.066,-3.76 1.347,-3.475 1.349,-2.656C1.353,-0.692 1.351,1.273 1.351,3.238L1.351,3.873L2.461,3.873L2.461,3.247C2.461,0.125 2.46,-2.996 2.461,-6.117C2.461,-6.961 2.688,-7.188 3.533,-7.188C7.664,-7.189 11.795,-7.189 15.927,-7.188C16.75,-7.188 16.994,-6.937 16.994,-6.093C16.994,-2.091 16.994,1.912 16.993,5.915L16.993,6.509C17.598,6.741 17.932,7.548 17.624,8.124C17.54,8.282 17.243,8.381 17.032,8.403C16.615,8.447 16.19,8.396 15.771,8.425C15.383,8.452 15.279,8.288 15.242,7.923C15.064,6.179 13.666,4.733 11.955,4.487C9.707,4.163 7.81,5.524 7.381,7.77C7.343,7.966 7.314,8.164 7.272,8.418L5.857,8.418C4.241,8.419 2.625,8.417 1.009,8.424C0.73,8.425 0.541,8.413 0.491,8.042C0.203,5.888 -1.406,4.423 -3.45,4.413C-5.467,4.404 -7.116,5.899 -7.433,8.027C-7.449,8.135 -7.458,8.243 -7.477,8.407" style="fill:rgb(0,167,93);fill-rule:nonzero;"/>
        </g>
        <g transform="matrix(4.16667,0,0,4.16667,2387.06,2712.1)">
            <path d="M0,-0.023C0.001,-0.964 -0.737,-1.707 -1.665,-1.697C-2.537,-1.688 -3.31,-0.909 -3.314,-0.035C-3.319,0.847 -2.568,1.614 -1.681,1.635C-0.759,1.656 -0.002,0.909 0,-0.023M-5.086,-0.043C-5.075,-1.929 -3.531,-3.477 -1.659,-3.479C0.238,-3.481 1.833,-1.884 1.801,-0.016C1.767,1.906 0.195,3.458 -1.685,3.424C-3.565,3.39 -5.097,1.83 -5.086,-0.043" style="fill:rgb(45,44,43);fill-rule:nonzero;"/>
        </g>
        <g transform="matrix(4.16667,0,0,4.16667,2448.56,2711.92)">
            <path d="M0,0.02C0.004,-0.906 -0.753,-1.67 -1.664,-1.657C-2.538,-1.644 -3.302,-0.873 -3.312,0.006C-3.321,0.908 -2.534,1.687 -1.624,1.675C-0.722,1.665 -0.004,0.934 0,0.02M-5.084,0.005C-5.085,-1.873 -3.516,-3.452 -1.664,-3.438C0.258,-3.424 1.809,-1.876 1.798,0.021C1.788,1.907 0.245,3.46 -1.624,3.466C-3.524,3.472 -5.084,1.912 -5.084,0.005" style="fill:rgb(45,44,43);fill-rule:nonzero;"/>
        </g>
    </g>
</svg>
