<?xml version="1.0" encoding="UTF-8" standalone="no"?>
<!DOCTYPE svg PUBLIC "-//W3C//DTD SVG 1.1//EN" "http://www.w3.org/Graphics/SVG/1.1/DTD/svg11.dtd">
<svg width="100%" height="100%" viewBox="0 0 491 541" version="1.1" xmlns="http://www.w3.org/2000/svg" xmlns:xlink="http://www.w3.org/1999/xlink" xml:space="preserve" xmlns:serif="http://www.serif.com/" style="fill-rule:evenodd;clip-rule:evenodd;stroke-miterlimit:10;">
    <g transform="matrix(1,0,0,1,-343.906,-2471.77)">
        <g transform="matrix(4.16667,0,0,4.16667,751.105,2648.89)">
            <path d="M0,44.819L0,0L-38.814,-22.409L-77.628,0L-77.628,44.819L-38.814,67.228L0,44.819Z" style="fill:white;fill-rule:nonzero;stroke:rgb(0,167,93);stroke-width:4px;"/>
        </g>
        <g transform="matrix(4.16667,0,0,4.16667,598.976,2765.23)">
            <path d="M0,0.047C-0.005,-4.235 -3.403,-7.616 -7.686,-7.6C-11.851,-7.584 -15.272,-4.111 -15.263,0.092C-15.253,4.293 -11.835,7.669 -7.593,7.667C-3.355,7.665 0.005,4.293 0,0.047M-9.791,16.427C-9.972,15.659 -10.153,14.89 -10.336,14.115C-12.088,13.382 -13.95,12.603 -15.813,11.824C-15.89,11.656 -15.967,11.489 -16.044,11.322C-16.33,11.755 -16.579,12.217 -16.911,12.61C-17.322,13.097 -17.804,13.079 -18.259,12.625C-18.927,11.958 -19.576,11.271 -20.27,10.631C-20.863,10.084 -20.875,9.565 -20.245,9.1C-19.351,8.439 -19.312,7.839 -19.917,6.854C-20.566,5.798 -20.933,4.546 -21.279,3.338C-21.454,2.727 -21.632,2.476 -22.292,2.481C-23.94,2.496 -23.978,2.426 -23.979,0.781C-23.979,0.065 -23.971,-0.651 -23.979,-1.368C-23.986,-2.048 -23.693,-2.47 -22.984,-2.34C-21.71,-2.107 -21.318,-2.694 -21.008,-3.87C-20.642,-5.257 -19.88,-6.54 -19.111,-8.272C-19.314,-8.409 -19.767,-8.671 -20.169,-8.995C-20.769,-9.479 -20.789,-10.004 -20.208,-10.554C-19.547,-11.181 -18.901,-11.825 -18.271,-12.484C-17.751,-13.028 -17.273,-13.004 -16.779,-12.466C-16.428,-12.083 -16.069,-11.708 -15.807,-11.429C-13.912,-12.223 -12.135,-12.968 -10.169,-13.791C-10.169,-14.052 -10.142,-14.566 -10.175,-15.077C-10.237,-16.012 -9.79,-16.375 -8.894,-16.346C-8.113,-16.32 -7.331,-16.317 -6.55,-16.347C-5.666,-16.38 -5.186,-16.073 -5.283,-15.103C-5.332,-14.623 -5.292,-14.134 -5.292,-13.778C-3.41,-13.01 -1.626,-12.282 0.158,-11.554C0.211,-11.427 0.266,-11.301 0.319,-11.174C0.677,-11.635 1.012,-12.116 1.398,-12.55C1.847,-13.054 2.335,-13.066 2.825,-12.565C3.485,-11.89 4.146,-11.215 4.831,-10.566C5.384,-10.043 5.339,-9.572 4.805,-9.08C4.424,-8.729 4.057,-8.363 3.856,-8.17C4.581,-6.275 5.233,-4.531 5.929,-2.805C6.009,-2.604 6.317,-2.428 6.551,-2.371C6.858,-2.297 7.2,-2.325 7.522,-2.357C8.464,-2.453 8.825,-2.029 8.774,-1.108C8.73,-0.296 8.738,0.521 8.772,1.333C8.807,2.179 8.407,2.522 7.599,2.499C7.116,2.485 6.633,2.496 6.307,2.496C5.505,4.469 4.755,6.314 3.904,8.41C4.138,8.602 4.563,8.908 4.939,9.264C5.395,9.694 5.41,10.152 4.936,10.612C4.259,11.27 3.579,11.926 2.938,12.619C2.379,13.223 1.879,13.16 1.394,12.572C1.104,12.222 0.854,11.839 0.733,11.673C-1.412,12.58 -3.25,13.356 -5.135,14.152C-5.29,14.79 -5.489,15.609 -5.688,16.427L-9.791,16.427Z" style="fill:rgb(45,44,43);fill-rule:nonzero;"/>
        </g>
        <g transform="matrix(4.16667,0,0,4.16667,624.052,2688.45)">
            <path d="M0,-0.033C-0.009,2.38 1.984,4.364 4.409,4.354C6.721,4.345 8.704,2.336 8.751,-0.045C8.798,-2.374 6.71,-4.424 4.295,-4.419C1.95,-4.414 0.01,-2.433 0,-0.033M12.307,-1.704C12.253,-0.552 12.168,0.411 12.192,1.372C12.199,1.621 12.499,1.957 12.75,2.086C13.255,2.347 13.454,2.627 13.134,3.151C13.05,3.287 13.003,3.446 12.94,3.595C12.288,5.135 12.455,4.893 11.167,4.48C10.375,5.212 9.599,5.894 8.874,6.628C8.727,6.776 8.671,7.159 8.752,7.362C9.013,8.013 8.797,8.331 8.163,8.501C7.82,8.592 7.483,8.729 7.169,8.893C6.678,9.15 6.36,9.053 6.219,8.508C6.075,7.954 5.756,7.85 5.206,7.951C4.674,8.048 4.106,8.03 3.565,7.967C2.905,7.891 2.277,7.717 2.016,8.615C1.975,8.754 1.616,8.853 1.396,8.87C1.222,8.884 1.035,8.746 0.855,8.673C-0.6,8.072 -0.6,8.072 -0.238,6.779C-1.127,6.003 -1.979,5.261 -2.83,4.519L-2.563,4.39C-3.009,4.39 -3.718,4.562 -3.853,4.358C-4.249,3.755 -4.441,3.01 -4.645,2.301C-4.672,2.206 -4.326,1.917 -4.113,1.857C-3.533,1.694 -3.499,1.365 -3.57,0.83C-3.65,0.229 -3.593,-0.4 -3.529,-1.01C-3.474,-1.535 -3.446,-1.963 -4.096,-2.14C-4.647,-2.291 -4.807,-2.658 -4.483,-3.177C-4.415,-3.285 -4.375,-3.412 -4.325,-3.532C-3.739,-4.913 -3.739,-4.913 -2.395,-4.47C-1.666,-5.143 -0.919,-5.765 -0.269,-6.474C-0.086,-6.673 -0.074,-7.167 -0.177,-7.458C-0.375,-8.021 -0.228,-8.32 0.303,-8.5C0.549,-8.583 0.807,-8.647 1.032,-8.77C1.746,-9.161 2.274,-9.183 2.561,-8.242C2.62,-8.049 3.061,-7.893 3.34,-7.864C3.787,-7.818 4.252,-7.951 4.697,-7.902C5.499,-7.812 6.325,-7.542 6.561,-8.734C6.581,-8.836 6.941,-8.93 7.139,-8.922C7.354,-8.913 7.567,-8.788 7.776,-8.7C9.192,-8.11 9.192,-8.109 8.761,-6.873C9.639,-6.054 10.464,-5.285 11.435,-4.38C12.594,-4.663 12.515,-4.627 13.196,-3.136C13.743,-1.939 12.731,-1.985 12.307,-1.704" style="fill:rgb(0,167,93);fill-rule:nonzero;"/>
        </g>
        <g transform="matrix(-0.0137824,4.16664,4.16664,0.0137824,567.32,2753.44)">
            <path d="M2.904,-2.867C1.309,-2.881 0.043,-1.648 0.013,-0.052C-0.018,1.541 1.322,2.897 2.904,2.877C4.442,2.857 5.77,1.524 5.771,-0.002C5.772,-1.546 4.464,-2.854 2.904,-2.867" style="fill:rgb(45,44,43);fill-rule:nonzero;"/>
        </g>
        <g transform="matrix(-0.169111,-4.16323,-4.16323,0.169111,641.605,2681.66)">
            <path d="M-1.62,-1.694C-2.496,-1.681 -3.243,-0.94 -3.257,-0.071C-3.27,0.767 -2.494,1.528 -1.62,1.534C-0.656,1.54 0.071,0.817 0.044,-0.119C0.019,-1.002 -0.725,-1.707 -1.62,-1.694" style="fill:rgb(0,167,93);fill-rule:nonzero;"/>
        </g>
    </g>
</svg>
