<?xml version="1.0" encoding="UTF-8" standalone="no"?>
<!DOCTYPE svg PUBLIC "-//W3C//DTD SVG 1.1//EN" "http://www.w3.org/Graphics/SVG/1.1/DTD/svg11.dtd">
<svg width="100%" height="100%" viewBox="0 0 491 541" version="1.1" xmlns="http://www.w3.org/2000/svg" xmlns:xlink="http://www.w3.org/1999/xlink" xml:space="preserve" xmlns:serif="http://www.serif.com/" style="fill-rule:evenodd;clip-rule:evenodd;stroke-miterlimit:10;">
    <g transform="matrix(1,0,0,1,-343.906,-2951.41)">
        <g transform="matrix(4.16667,0,0,4.16667,751.105,3128.53)">
            <path d="M0,44.819L0,0L-38.814,-22.409L-77.628,0L-77.628,44.819L-38.814,67.228L0,44.819Z" style="fill:white;fill-rule:nonzero;stroke:rgb(0,167,93);stroke-width:4px;"/>
        </g>
        <g transform="matrix(4.16667,0,0,4.16667,589.221,3194.41)">
            <path d="M0,26.568C-2.336,26.568 -4.672,26.596 -7.007,26.56C-9.287,26.525 -11.547,26.319 -13.765,25.723C-17.242,24.788 -19.34,22.363 -19.824,18.793C-20.477,13.985 -18.764,10.082 -15.345,6.829C-11.877,3.528 -7.74,1.476 -3.075,0.478C-0.652,-0.041 1.767,0.074 4.157,0.707C9.091,2.013 13.415,4.371 16.77,8.279C19.856,11.875 20.823,16.005 19.483,20.587C18.668,23.374 16.633,24.922 13.933,25.698C11.276,26.461 8.542,26.563 5.804,26.589C3.87,26.609 1.935,26.593 0,26.593L0,26.568Z" style="fill:rgb(45,44,43);fill-rule:nonzero;"/>
        </g>
        <g transform="matrix(4.16667,0,0,4.16667,609.723,3184.48)">
            <path d="M0,-2.264C1.845,-1.82 3.641,-1.122 5.371,-0.25C7.891,1.021 10.161,2.666 12.39,4.381C13.077,4.909 13.824,5.365 14.568,5.813C15.266,6.232 15.59,7.028 15.33,7.85C15.104,8.563 14.362,9.007 13.583,8.941C12.894,8.882 12.331,8.558 11.796,8.166C10.178,6.981 8.597,5.743 6.945,4.607C4.279,2.774 1.394,1.412 -1.812,0.803C-5.16,0.167 -8.395,0.606 -11.546,1.829C-14.612,3.019 -17.279,4.864 -19.844,6.88C-20.609,7.481 -21.395,8.063 -22.219,8.577C-22.927,9.02 -23.706,9.166 -24.479,8.648C-25.428,8.01 -25.432,6.402 -24.411,5.898C-23.262,5.331 -22.313,4.508 -21.319,3.742C-18.665,1.696 -15.884,-0.132 -12.735,-1.333C-11.75,-1.709 -10.732,-2.001 -9.792,-2.311C-10.135,-3.146 -10.484,-4.017 -10.858,-4.877C-10.91,-4.996 -11.069,-5.09 -11.2,-5.152C-12.519,-5.785 -13.188,-7.047 -12.965,-8.501C-12.77,-9.771 -11.692,-10.796 -10.348,-10.989C-9.043,-11.176 -7.733,-10.442 -7.163,-9.205C-6.627,-8.042 -6.927,-6.541 -7.898,-5.711C-8.142,-5.502 -8.178,-5.332 -8.063,-5.055C-7.741,-4.278 -7.362,-3.539 -6.637,-3.061C-6.447,-2.937 -6.192,-2.865 -5.963,-2.856C-5.291,-2.831 -4.615,-2.88 -3.943,-2.84C-3.499,-2.813 -3.166,-2.973 -2.858,-3.248C-2.251,-3.788 -1.891,-4.484 -1.644,-5.241C-1.609,-5.346 -1.692,-5.542 -1.784,-5.627C-3.153,-6.893 -3.217,-8.934 -1.914,-10.162C-0.569,-11.43 1.479,-11.269 2.638,-9.806C3.842,-8.286 3.275,-6.027 1.46,-5.176C1.209,-5.058 1.115,-4.899 1.021,-4.66C0.707,-3.866 0.354,-3.087 0,-2.264" style="fill:rgb(0,167,93);fill-rule:nonzero;"/>
        </g>
    </g>
</svg>
