<?xml version="1.0" encoding="UTF-8" standalone="no"?>
<!DOCTYPE svg PUBLIC "-//W3C//DTD SVG 1.1//EN" "http://www.w3.org/Graphics/SVG/1.1/DTD/svg11.dtd">
<svg width="100%" height="100%" viewBox="0 0 1230 1782" version="1.1" xmlns="http://www.w3.org/2000/svg" xmlns:xlink="http://www.w3.org/1999/xlink" xml:space="preserve" xmlns:serif="http://www.serif.com/" style="fill-rule:evenodd;clip-rule:evenodd;stroke-linejoin:round;stroke-miterlimit:2;">
    <g transform="matrix(1,0,0,1,-515.311,-973.528)">
        <g transform="matrix(4.16667,0,0,4.16667,1043.96,2520.94)">
            <path d="M0,-364.125L161.965,-270.996L161.965,-16.42L132.661,0L132.661,-255.084L129.494,-256.906L-28.968,-348.022L0,-364.125Z" style="fill:rgb(0,167,93);fill-rule:nonzero;"/>
        </g>
        <g transform="matrix(4.16667,0,0,4.16667,1044.18,2565.85)">
            <path d="M0,-382.157L-41.851,-358.891L126.294,-262.208L126.294,0L168.228,-23.497L168.228,-285.426L0,-382.157Z" style="fill:rgb(0,167,93);fill-rule:nonzero;"/>
        </g>
        <g transform="matrix(4.16667,0,0,4.16667,689.471,2710.44)">
            <path d="M0,-364.125L161.965,-270.995L161.965,-16.419L132.661,0L132.661,-255.084L129.494,-256.905L-28.969,-348.021L0,-364.125Z" style="fill:rgb(0,167,93);fill-rule:nonzero;"/>
        </g>
        <g transform="matrix(4.16667,0,0,4.16667,689.69,2755.34)">
            <path d="M0,-382.157L-41.851,-358.891L126.293,-262.209L126.293,0L168.228,-23.497L168.228,-285.426L0,-382.157Z" style="fill:rgb(0,167,93);fill-rule:nonzero;"/>
        </g>
    </g>
</svg>
