<?xml version="1.0" encoding="UTF-8" standalone="no"?>
<!DOCTYPE svg PUBLIC "-//W3C//DTD SVG 1.1//EN" "http://www.w3.org/Graphics/SVG/1.1/DTD/svg11.dtd">
<svg width="100%" height="100%" viewBox="0 0 1223 1781" version="1.1" xmlns="http://www.w3.org/2000/svg" xmlns:xlink="http://www.w3.org/1999/xlink" xml:space="preserve" xmlns:serif="http://www.serif.com/" style="fill-rule:evenodd;clip-rule:evenodd;stroke-linejoin:round;stroke-miterlimit:2;">
    <g transform="matrix(1,0,0,1,-1739.64,-902.704)">
        <g transform="matrix(4.16667,0,0,4.16667,2265.21,2493.83)">
            <path d="M0,-381.87L-41.589,-358.622L125.504,-262.012L125.504,0L167.176,-23.479L167.176,-285.211L0,-381.87ZM-0.052,-374.621L160.9,-281.561L160.9,-27.176L131.779,-10.768L131.779,-265.662L128.632,-267.482L-28.839,-358.53L-0.052,-374.621Z" style="fill:rgb(230,50,17);fill-rule:nonzero;"/>
        </g>
        <g transform="matrix(4.16667,0,0,4.16667,1912.93,2683.18)">
            <path d="M0,-381.869L-41.589,-358.622L125.505,-262.011L125.505,0L167.176,-23.478L167.176,-285.211L0,-381.869ZM-0.052,-374.62L160.9,-281.56L160.9,-27.175L131.78,-10.768L131.78,-265.661L128.633,-267.481L-28.839,-358.53L-0.052,-374.62Z" style="fill:rgb(230,50,17);fill-rule:nonzero;"/>
        </g>
    </g>
</svg>
