<?xml version="1.0" encoding="UTF-8" standalone="no"?>
<!DOCTYPE svg PUBLIC "-//W3C//DTD SVG 1.1//EN" "http://www.w3.org/Graphics/SVG/1.1/DTD/svg11.dtd">
<svg width="100%" height="100%" viewBox="0 0 1223 1781" version="1.1" xmlns="http://www.w3.org/2000/svg" xmlns:xlink="http://www.w3.org/1999/xlink" xml:space="preserve" xmlns:serif="http://www.serif.com/" style="fill-rule:evenodd;clip-rule:evenodd;stroke-linejoin:round;stroke-miterlimit:2;">
    <g transform="matrix(1,0,0,1,-1711.95,-973.54)">
        <g transform="matrix(4.16667,0,0,4.16667,2237.29,2519.77)">
            <path d="M0,-363.846L160.95,-270.787L160.95,-16.407L131.829,0L131.829,-254.888L128.682,-256.709L-28.786,-347.755L0,-363.846Z" style="fill:rgb(230,50,17);fill-rule:nonzero;"/>
        </g>
        <g transform="matrix(4.16667,0,0,4.16667,2237.51,2564.64)">
            <path d="M0,-381.864L-41.589,-358.616L125.501,-262.008L125.501,0L167.173,-23.479L167.173,-285.207L0,-381.864Z" style="fill:rgb(230,50,17);fill-rule:nonzero;"/>
        </g>
        <g transform="matrix(4.16667,0,0,4.16667,1885.02,2709.12)">
            <path d="M0,-363.845L160.95,-270.787L160.95,-16.407L131.83,0L131.83,-254.888L128.683,-256.708L-28.786,-347.755L0,-363.845Z" style="fill:rgb(230,50,17);fill-rule:nonzero;"/>
        </g>
        <g transform="matrix(4.16667,0,0,4.16667,1885.24,2753.99)">
            <path d="M0,-381.863L-41.589,-358.616L125.502,-262.007L125.502,0L167.173,-23.478L167.173,-285.207L0,-381.863Z" style="fill:rgb(230,50,17);fill-rule:nonzero;"/>
        </g>
    </g>
</svg>
