<?xml version="1.0" encoding="UTF-8" standalone="no"?>
<!DOCTYPE svg PUBLIC "-//W3C//DTD SVG 1.1//EN" "http://www.w3.org/Graphics/SVG/1.1/DTD/svg11.dtd">
<svg width="100%" height="100%" viewBox="0 0 1230 1782" version="1.1" xmlns="http://www.w3.org/2000/svg" xmlns:xlink="http://www.w3.org/1999/xlink" xml:space="preserve" xmlns:serif="http://www.serif.com/" style="fill-rule:evenodd;clip-rule:evenodd;stroke-linejoin:round;stroke-miterlimit:2;">
    <g transform="matrix(1,0,0,1,-543.151,-902.704)">
        <g transform="matrix(4.16667,0,0,4.16667,1072.03,2495.05)">
            <path d="M0,-382.164L-41.852,-358.898L126.296,-262.213L126.296,0L168.231,-23.498L168.231,-285.431L0,-382.164ZM-0.052,-374.909L161.915,-281.778L161.915,-27.198L132.611,-10.778L132.611,-265.867L129.444,-267.688L-29.021,-358.806L-0.052,-374.909Z" style="fill:rgb(0,167,93);fill-rule:nonzero;"/>
        </g>
        <g transform="matrix(4.16667,0,0,4.16667,717.534,2684.55)">
            <path d="M0,-382.164L-41.852,-358.898L126.296,-262.213L126.296,0L168.231,-23.497L168.231,-285.431L0,-382.164ZM-0.052,-374.909L161.915,-281.778L161.915,-27.198L132.611,-10.778L132.611,-265.867L129.443,-267.688L-29.021,-358.806L-0.052,-374.909Z" style="fill:rgb(0,167,93);fill-rule:nonzero;"/>
        </g>
    </g>
</svg>
