<?xml version="1.0" encoding="UTF-8" standalone="no"?>
<!DOCTYPE svg PUBLIC "-//W3C//DTD SVG 1.1//EN" "http://www.w3.org/Graphics/SVG/1.1/DTD/svg11.dtd">
<svg width="100%" height="100%" viewBox="0 0 253 257" version="1.1" xmlns="http://www.w3.org/2000/svg" xmlns:xlink="http://www.w3.org/1999/xlink" xml:space="preserve" xmlns:serif="http://www.serif.com/" style="fill-rule:evenodd;clip-rule:evenodd;stroke-linejoin:round;stroke-miterlimit:2;">
    <g transform="matrix(1,0,0,1,-640.213,-3940.68)">
        <g transform="matrix(4.16667,0,0,4.16667,799.416,3981.65)">
            <path d="M0,51.818C-1.017,51.615 -2.05,51.471 -3.045,51.193C-4.023,50.919 -4.965,50.513 -5.917,50.154C-6.097,50.087 -6.256,49.965 -6.461,49.848C0.098,44.201 4.964,37.309 9.078,29.813C9.033,29.852 8.979,29.885 8.943,29.932C6.606,32.972 3.667,35.359 0.578,37.571C-3.157,40.246 -7.117,42.559 -11.173,44.71C-11.294,44.774 -11.424,44.821 -11.58,44.889C-12.612,43.581 -13.465,42.182 -14.077,40.656C-16.625,34.294 -15.349,28.571 -11.06,23.415C-9.687,21.763 -7.928,20.532 -5.997,19.61C-3.417,18.378 -0.785,17.252 1.816,16.062C5.816,14.234 9.231,11.703 11.581,7.894C12.978,5.628 13.96,3.188 14.682,0.635C14.731,0.463 14.787,0.292 14.877,0C15.048,0.255 15.181,0.436 15.296,0.628C17.901,4.962 19.821,9.58 21.058,14.483C22.044,18.395 22.529,22.37 22.242,26.394C21.665,34.472 18.625,41.487 12.816,47.187C10.205,49.75 7.032,51.308 3.348,51.713C3.232,51.725 3.122,51.782 3.009,51.818L0,51.818Z" style="fill:rgb(93,177,47);fill-rule:nonzero;"/>
        </g>
        <g transform="matrix(4.16667,0,0,4.16667,681.734,3983.49)">
            <path d="M0,37.113C3.521,40.683 7.564,43.06 12.307,44.254C9.653,41.162 7.367,37.846 5.568,34.076C3.7,35.094 1.887,36.084 0,37.113M4.919,4.787C6.121,2.669 7.164,0.612 8.411,-1.312C9.66,-3.239 11.111,-5.033 12.472,-6.884C7.213,-5.506 2.759,-2.761 -0.961,1.445C1.08,2.604 3.039,3.717 4.919,4.787M38.81,1.149C34.887,-3.109 30.301,-5.838 24.681,-7.129C27.968,-3.532 30.514,0.37 32.481,4.788C34.614,3.561 36.669,2.38 38.81,1.149M17.395,-7.774C17.068,-7.594 16.789,-7.507 16.6,-7.325C13.405,-4.266 10.816,-0.746 8.72,3.139C8.27,3.974 7.885,4.843 7.453,5.73C10.706,6.93 13.979,7.624 17.395,7.769L17.395,-7.774ZM30.024,5.679C30.008,5.58 30.011,5.538 29.995,5.505C27.766,0.643 24.763,-3.674 20.899,-7.38C20.681,-7.59 20.334,-7.666 19.97,-7.841L19.97,7.768C23.449,7.605 26.771,6.884 30.024,5.679M17.392,10.283C13.646,10.162 10.052,9.35 6.529,8.081C5.367,11.417 4.68,14.757 4.626,18.244L17.392,18.244L17.392,10.283ZM4.569,31.759C3.205,28.265 2.351,24.623 2.128,20.823L-7.327,20.823C-6.874,26.227 -4.981,31.009 -1.692,35.176C0.407,34.029 2.442,32.92 4.569,31.759M-7.412,18.247L2.103,18.247C2.152,14.415 2.92,10.737 4.133,7.221C1.901,5.95 -0.283,4.707 -2.522,3.432C-5.624,7.82 -7.272,12.751 -7.412,18.247M33.398,7.04C33.665,7.919 33.903,8.784 34.193,9.631C34.321,10.003 34.243,10.224 33.934,10.44C33.36,10.84 32.805,11.264 32.17,11.731C31.782,10.456 31.416,9.253 31.03,7.986C27.414,9.321 23.763,10.137 19.935,10.285L19.935,13.888C19.935,14.952 19.913,16.015 19.946,17.077C19.959,17.497 19.785,17.698 19.465,17.931C18.365,18.731 17.284,19.559 16.23,20.419C15.913,20.678 15.622,20.8 15.214,20.798C11.925,20.783 8.636,20.79 5.347,20.79L4.648,20.79C4.896,24.308 5.664,27.634 6.959,30.866C8.267,30.472 9.555,30.084 10.921,29.672C10.783,30.584 10.672,31.41 10.518,32.227C10.495,32.346 10.273,32.463 10.122,32.515C9.427,32.756 8.724,32.973 7.936,33.228C8.559,34.334 9.103,35.403 9.747,36.41C10.482,37.56 11.089,38.742 11.506,40.058C12.321,42.628 13.797,44.849 15.456,46.952C15.587,47.119 15.702,47.298 15.825,47.47C15.799,47.533 15.773,47.594 15.747,47.657C14.174,47.311 12.573,47.06 11.032,46.604C4.482,44.669 -0.782,40.898 -4.716,35.308C-8.645,29.726 -10.432,23.481 -9.861,16.707C-8.972,6.164 -3.757,-1.716 5.475,-6.862C10.169,-9.477 15.288,-10.544 20.638,-10.217C28.395,-9.742 34.957,-6.623 40.312,-0.976C40.556,-0.718 40.605,-0.484 40.491,-0.178C40.018,1.095 39.56,2.375 39.062,3.638C38.977,3.855 38.761,4.064 38.552,4.182C36.968,5.08 35.372,5.954 33.778,6.835C33.659,6.901 33.537,6.965 33.398,7.04" style="fill:white;fill-rule:nonzero;"/>
        </g>
    </g>
</svg>
