<?xml version="1.0" encoding="UTF-8" standalone="no"?>
<!DOCTYPE svg PUBLIC "-//W3C//DTD SVG 1.1//EN" "http://www.w3.org/Graphics/SVG/1.1/DTD/svg11.dtd">
<svg width="100%" height="100%" viewBox="0 0 667 232" version="1.1" xmlns="http://www.w3.org/2000/svg" xmlns:xlink="http://www.w3.org/1999/xlink" xml:space="preserve" xmlns:serif="http://www.serif.com/" style="fill-rule:evenodd;clip-rule:evenodd;stroke-linejoin:round;stroke-miterlimit:2;">
    <g transform="matrix(1,0,0,1,-601.806,-687.833)">
        <g transform="matrix(4.16667,0,0,4.16667,800.323,747.969)">
            <path d="M0,-0.174L1.335,-0.174L1.335,2.853C0.542,3.494 -0.564,3.819 -1.638,3.819C-3.993,3.819 -5.729,2.18 -5.729,-0.088C-5.729,-2.355 -3.993,-3.993 -1.617,-3.993C-0.347,-3.993 0.716,-3.57 1.433,-2.757L0.542,-1.888C-0.054,-2.485 -0.738,-2.757 -1.552,-2.757C-3.168,-2.757 -4.308,-1.661 -4.308,-0.088C-4.308,1.454 -3.168,2.583 -1.562,2.583C-1.02,2.583 -0.488,2.474 0,2.191L0,-0.174Z" style="fill:rgb(45,44,43);fill-rule:nonzero;"/>
        </g>
        <g transform="matrix(4.16667,0,0,4.16667,826.369,758.452)">
            <path d="M0,-5.208L-1.649,-5.208L-1.649,-2.181L0,-2.181C1.237,-2.181 1.877,-2.744 1.877,-3.7C1.877,-4.655 1.237,-5.208 0,-5.208M1.91,1.194L0.358,-1.03C0.261,-1.019 0.163,-1.019 0.065,-1.019L-1.649,-1.019L-1.649,1.194L-3.06,1.194L-3.06,-6.402L0.065,-6.402C2.062,-6.402 3.299,-5.382 3.299,-3.7C3.299,-2.549 2.713,-1.703 1.682,-1.301L3.429,1.194L1.91,1.194Z" style="fill:rgb(45,44,43);fill-rule:nonzero;"/>
        </g>
        <g transform="matrix(4.16667,0,0,4.16667,872.579,747.61)">
            <path d="M0,-0.002C0,-1.552 -1.139,-2.671 -2.669,-2.671C-4.199,-2.671 -5.338,-1.552 -5.338,-0.002C-5.338,1.55 -4.199,2.669 -2.669,2.669C-1.139,2.669 0,1.55 0,-0.002M-6.76,-0.002C-6.76,-2.248 -5.023,-3.907 -2.669,-3.907C-0.314,-3.907 1.422,-2.258 1.422,-0.002C1.422,2.256 -0.314,3.905 -2.669,3.905C-5.023,3.905 -6.76,2.246 -6.76,-0.002" style="fill:rgb(45,44,43);fill-rule:nonzero;"/>
        </g>
        <g transform="matrix(4.16667,0,0,4.16667,884.475,746.024)">
            <path d="M0,0.867L0,-3.419L1.411,-3.419L1.411,0.814C1.411,2.375 2.116,3.05 3.342,3.05C4.568,3.05 5.263,2.375 5.263,0.814L5.263,-3.419L6.652,-3.419L6.652,0.867C6.652,3.081 5.404,4.286 3.332,4.286C1.248,4.286 0,3.081 0,0.867" style="fill:rgb(45,44,43);fill-rule:nonzero;"/>
        </g>
        <g transform="matrix(4.16667,0,0,4.16667,940.995,752.17)">
            <path d="M0,-2.192C0,-3.147 -0.641,-3.7 -1.877,-3.7L-3.527,-3.7L-3.527,-0.684L-1.877,-0.684C-0.641,-0.684 0,-1.236 0,-2.192M1.421,-2.192C1.421,-0.52 0.184,0.511 -1.812,0.511L-3.527,0.511L-3.527,2.702L-4.937,2.702L-4.937,-4.894L-1.812,-4.894C0.184,-4.894 1.421,-3.874 1.421,-2.192" style="fill:rgb(45,44,43);fill-rule:nonzero;"/>
        </g>
        <g transform="matrix(4.16667,0,0,4.16667,714.78,856.894)">
            <path d="M0,-17.009L3.838,-17.009C3.866,-17.009 3.888,-16.987 3.888,-16.96L3.888,-0.05C3.888,-0.022 3.866,0 3.838,0L0,0C-0.027,0 -0.049,-0.022 -0.049,-0.05L-0.049,-16.96C-0.049,-16.987 -0.027,-17.009 0,-17.009" style="fill:rgb(45,44,43);fill-rule:nonzero;"/>
        </g>
        <g transform="matrix(4.16667,0,0,4.16667,808.742,856.894)">
            <path d="M0,-17.009L0,0L-3.232,0L-11.713,-10.327L-11.713,0L-15.601,0L-15.601,-17.009L-12.345,-17.009L-3.888,-6.682L-3.888,-17.009L0,-17.009Z" style="fill:rgb(45,44,43);fill-rule:nonzero;"/>
        </g>
        <g transform="matrix(4.16667,0,0,4.16667,840.24,843.532)">
            <path d="M0,-10.595L-5.443,-10.595L-5.443,-13.802L9.38,-13.802L9.38,-10.595L3.937,-10.595L3.937,3.207L0,3.207L0,-10.595Z" style="fill:rgb(45,44,43);fill-rule:nonzero;"/>
        </g>
        <g transform="matrix(4.16667,0,0,4.16667,943.017,799.186)">
            <path d="M0,10.691L0,13.85L-13.17,13.85L-13.17,-3.159L-0.316,-3.159L-0.316,0L-9.258,0L-9.258,3.693L-1.36,3.693L-1.36,6.753L-9.258,6.753L-9.258,10.691L0,10.691Z" style="fill:rgb(45,44,43);fill-rule:nonzero;"/>
        </g>
        <g transform="matrix(4.16667,0,0,4.16667,1001.75,822.569)">
            <path d="M0,-0.534L3.596,-0.534L3.596,6.367C1.725,7.777 -0.851,8.529 -3.28,8.529C-8.626,8.529 -12.563,4.86 -12.563,-0.266C-12.563,-5.395 -8.626,-9.063 -3.208,-9.063C-0.219,-9.063 2.26,-8.042 3.912,-6.123L1.385,-3.789C0.146,-5.103 -1.288,-5.71 -3.013,-5.71C-6.318,-5.71 -8.578,-3.498 -8.578,-0.266C-8.578,2.916 -6.318,5.176 -3.062,5.176C-1.993,5.176 -0.997,4.982 0,4.447L0,-0.534Z" style="fill:rgb(45,44,43);fill-rule:nonzero;"/>
        </g>
        <g transform="matrix(4.16667,0,0,4.16667,1059.68,843.532)">
            <path d="M0,-10.595L-3.208,-10.595L-3.208,-4.666L0,-4.666C2.405,-4.666 3.62,-5.784 3.62,-7.631C3.62,-9.502 2.405,-10.595 0,-10.595M3.693,3.207L0.413,-1.532L-3.208,-1.532L-3.208,3.207L-7.145,3.207L-7.145,-13.802L0.219,-13.802C4.762,-13.802 7.605,-11.446 7.605,-7.631C7.605,-5.079 6.318,-3.208 4.106,-2.26L7.921,3.207L3.693,3.207Z" style="fill:rgb(45,44,43);fill-rule:nonzero;"/>
        </g>
        <g transform="matrix(4.16667,0,0,4.16667,1104.51,856.894)">
            <path d="M0,-17.009L3.855,-17.009C3.877,-17.009 3.896,-16.991 3.896,-16.968L3.896,-0.041C3.896,-0.019 3.877,0 3.855,0L0,0C-0.022,0 -0.041,-0.019 -0.041,-0.041L-0.041,-16.968C-0.041,-16.991 -0.022,-17.009 0,-17.009" style="fill:rgb(45,44,43);fill-rule:nonzero;"/>
        </g>
        <g transform="matrix(4.16667,0,0,4.16667,1152.23,843.532)">
            <path d="M0,-10.595L-5.443,-10.595L-5.443,-13.802L9.38,-13.802L9.38,-10.595L3.937,-10.595L3.937,3.207L0,3.207L0,-10.595Z" style="fill:rgb(45,44,43);fill-rule:nonzero;"/>
        </g>
        <g transform="matrix(4.16667,0,0,4.16667,1240.93,811.132)">
            <path d="M0,4.957L0,10.983L-3.937,10.983L-3.937,4.909L-10.521,-6.026L-6.342,-6.026L-1.798,1.531L2.746,-6.026L6.609,-6.026L0,4.957Z" style="fill:rgb(45,44,43);fill-rule:nonzero;"/>
        </g>
        <g transform="matrix(4.16667,0,0,4.16667,734.438,907.459)">
            <path d="M0,-2.607C0,-3.639 -0.78,-4.339 -1.859,-4.339C-2.949,-4.339 -3.73,-3.639 -3.73,-2.607C-3.73,-1.563 -2.949,-0.851 -1.859,-0.851C-0.78,-0.851 0,-1.563 0,-2.607M1.412,-5.487L1.412,-0.289C1.412,1.938 0.253,2.949 -1.894,2.949C-3.041,2.949 -4.177,2.65 -4.877,2.075L-4.235,0.997C-3.695,1.445 -2.823,1.732 -1.974,1.732C-0.62,1.732 -0.022,1.113 -0.022,-0.128L-0.022,-0.449C-0.528,0.101 -1.25,0.366 -2.077,0.366C-3.833,0.366 -5.176,-0.828 -5.176,-2.607C-5.176,-4.386 -3.833,-5.556 -2.077,-5.556C-1.216,-5.556 -0.459,-5.28 0.046,-4.673L0.046,-5.487L1.412,-5.487Z" style="fill:rgb(45,44,43);fill-rule:nonzero;"/>
        </g>
        <g transform="matrix(4.16667,0,0,4.16667,753.414,899.47)">
            <path d="M0,-0.999L3.477,-0.999C3.363,-1.883 2.685,-2.491 1.745,-2.491C0.814,-2.491 0.137,-1.894 0,-0.999M4.82,-0.047L0.011,-0.047C0.184,0.849 0.929,1.422 1.997,1.422C2.685,1.422 3.225,1.205 3.661,0.757L4.43,1.641C3.879,2.295 3.018,2.639 1.962,2.639C-0.092,2.639 -1.423,1.319 -1.423,-0.505C-1.423,-2.331 -0.081,-3.638 1.745,-3.638C3.535,-3.638 4.843,-2.388 4.843,-0.472C4.843,-0.357 4.832,-0.185 4.82,-0.047" style="fill:rgb(45,44,43);fill-rule:nonzero;"/>
        </g>
        <g transform="matrix(4.16667,0,0,4.16667,805.91,898.94)">
            <path d="M0,-0.825L0,2.686L-1.435,2.686L-1.435,-0.642C-1.435,-1.732 -1.974,-2.261 -2.892,-2.261C-3.914,-2.261 -4.602,-1.641 -4.602,-0.412L-4.602,2.686L-6.037,2.686L-6.037,-3.443L-4.671,-3.443L-4.671,-2.651C-4.2,-3.213 -3.455,-3.511 -2.559,-3.511C-1.09,-3.511 0,-2.674 0,-0.825" style="fill:rgb(45,44,43);fill-rule:nonzero;"/>
        </g>
        <g transform="matrix(4.16667,0,0,4.16667,819.002,899.47)">
            <path d="M0,-0.999L3.478,-0.999C3.363,-1.883 2.686,-2.491 1.745,-2.491C0.815,-2.491 0.138,-1.894 0,-0.999M4.82,-0.047L0.012,-0.047C0.184,0.849 0.93,1.422 1.997,1.422C2.686,1.422 3.225,1.205 3.661,0.757L4.43,1.641C3.879,2.295 3.019,2.639 1.963,2.639C-0.092,2.639 -1.423,1.319 -1.423,-0.505C-1.423,-2.331 -0.08,-3.638 1.745,-3.638C3.535,-3.638 4.843,-2.388 4.843,-0.472C4.843,-0.357 4.832,-0.185 4.82,-0.047" style="fill:rgb(45,44,43);fill-rule:nonzero;"/>
        </g>
        <g transform="matrix(4.16667,0,0,4.16667,861.125,910.131)">
            <path d="M0,-6.197L0,-4.832C-0.126,-4.855 -0.23,-4.867 -0.333,-4.867C-1.423,-4.867 -2.112,-4.223 -2.112,-2.973L-2.112,0L-3.546,0L-3.546,-6.129L-2.181,-6.129L-2.181,-5.234C-1.768,-5.876 -1.022,-6.197 0,-6.197" style="fill:rgb(45,44,43);fill-rule:nonzero;"/>
        </g>
        <g transform="matrix(4.16667,0,0,4.16667,882.875,892.632)">
            <path d="M0,2.283L0,1.571L-1.48,1.571C-2.456,1.571 -2.72,1.938 -2.72,2.386C-2.72,2.903 -2.284,3.235 -1.549,3.235C-0.849,3.235 -0.241,2.915 0,2.283M1.435,0.607L1.435,4.2L0.081,4.2L0.081,3.454C-0.264,3.982 -0.93,4.28 -1.848,4.28C-3.248,4.28 -4.131,3.512 -4.131,2.443C-4.131,1.423 -3.443,0.619 -1.583,0.619L0,0.619L0,0.527C0,-0.31 -0.505,-0.804 -1.526,-0.804C-2.215,-0.804 -2.926,-0.575 -3.385,-0.196L-3.948,-1.24C-3.293,-1.745 -2.341,-1.997 -1.354,-1.997C0.413,-1.997 1.435,-1.16 1.435,0.607" style="fill:rgb(45,44,43);fill-rule:nonzero;"/>
        </g>
        <g transform="matrix(4.16667,0,0,4.16667,927.842,910.13)">
            <path d="M0,-8.515L1.411,-8.515L1.426,-8.501L1.426,-0.011L1.415,0L0,0L-0.008,-0.009L-0.008,-8.505L0,-8.515Z" style="fill:rgb(45,44,43);fill-rule:nonzero;"/>
        </g>
        <g transform="matrix(4.16667,0,0,4.16667,897.965,910.13)">
            <path d="M0,-8.515L1.411,-8.515L1.426,-8.501L1.426,-0.011L1.415,0L0,0L-0.008,-0.009L-0.008,-8.505L0,-8.515Z" style="fill:rgb(45,44,43);fill-rule:nonzero;"/>
        </g>
        <g transform="matrix(4.16667,0,0,4.16667,962.138,897.412)">
            <path d="M0,-0.011C0,-1.182 -0.78,-1.928 -1.825,-1.928C-2.857,-1.928 -3.638,-1.182 -3.638,-0.011C-3.638,1.159 -2.857,1.906 -1.825,1.906C-0.78,1.906 0,1.159 0,-0.011M-5.084,-0.011C-5.084,-1.847 -3.707,-3.144 -1.825,-3.144C0.081,-3.144 1.446,-1.847 1.446,-0.011C1.446,1.825 0.081,3.133 -1.825,3.133C-3.707,3.133 -5.084,1.825 -5.084,-0.011" style="fill:rgb(45,44,43);fill-rule:nonzero;"/>
        </g>
        <g transform="matrix(4.16667,0,0,4.16667,994.79,907.459)">
            <path d="M0,-2.607C0,-3.639 -0.78,-4.339 -1.859,-4.339C-2.949,-4.339 -3.729,-3.639 -3.729,-2.607C-3.729,-1.563 -2.949,-0.851 -1.859,-0.851C-0.78,-0.851 0,-1.563 0,-2.607M1.412,-5.487L1.412,-0.289C1.412,1.938 0.253,2.949 -1.894,2.949C-3.041,2.949 -4.177,2.65 -4.877,2.075L-4.235,0.997C-3.695,1.445 -2.823,1.732 -1.974,1.732C-0.62,1.732 -0.022,1.113 -0.022,-0.128L-0.022,-0.449C-0.528,0.101 -1.251,0.366 -2.077,0.366C-3.833,0.366 -5.176,-0.828 -5.176,-2.607C-5.176,-4.386 -3.833,-5.556 -2.077,-5.556C-1.216,-5.556 -0.459,-5.28 0.046,-4.673L0.046,-5.487L1.412,-5.487Z" style="fill:rgb(45,44,43);fill-rule:nonzero;"/>
        </g>
        <g transform="matrix(4.16667,0,0,4.16667,1010.04,898.75)">
            <path d="M0,-3.397L1.379,-3.397L1.411,-3.368L1.411,2.705L1.383,2.731L-0.004,2.731L-0.024,2.716L-0.024,-3.375L0,-3.397ZM-0.22,-5.268C-0.22,-5.751 0.171,-6.128 0.699,-6.128C1.227,-6.128 1.617,-5.773 1.617,-5.301C1.617,-4.796 1.238,-4.407 0.699,-4.407C0.171,-4.407 -0.22,-4.786 -0.22,-5.268" style="fill:rgb(45,44,43);fill-rule:nonzero;"/>
        </g>
        <g transform="matrix(4.16667,0,0,4.16667,1073.05,898.75)">
            <path d="M0,-3.397L1.38,-3.397L1.411,-3.368L1.411,2.705L1.384,2.731L-0.003,2.731L-0.024,2.716L-0.024,-3.375L0,-3.397ZM-0.219,-5.268C-0.219,-5.751 0.171,-6.128 0.699,-6.128C1.227,-6.128 1.617,-5.773 1.617,-5.301C1.617,-4.796 1.238,-4.407 0.699,-4.407C0.171,-4.407 -0.219,-4.786 -0.219,-5.268" style="fill:rgb(45,44,43);fill-rule:nonzero;"/>
        </g>
        <g transform="matrix(4.16667,0,0,4.16667,1022.27,887.175)">
            <path d="M0,4.902L0.551,3.811C1.09,4.167 1.917,4.42 2.686,4.42C3.592,4.42 3.971,4.167 3.971,3.743C3.971,2.571 0.184,3.673 0.184,1.229C0.184,0.07 1.228,-0.687 2.88,-0.687C3.695,-0.687 4.625,-0.492 5.176,-0.16L4.625,0.93C4.04,0.587 3.455,0.472 2.869,0.472C1.997,0.472 1.584,0.757 1.584,1.16C1.584,2.399 5.371,1.298 5.371,3.696C5.371,4.844 4.315,5.589 2.594,5.589C1.572,5.589 0.551,5.292 0,4.902" style="fill:rgb(45,44,43);fill-rule:nonzero;"/>
        </g>
        <g transform="matrix(4.16667,0,0,4.16667,1066.59,880.674)">
            <path d="M0,6.737C-0.344,7.012 -0.861,7.15 -1.377,7.15C-2.72,7.15 -3.489,6.439 -3.489,5.085L-3.489,2.135L-4.499,2.135L-4.499,0.988L-3.489,0.988L-3.489,-0.413L-2.054,-0.413L-2.054,0.988L-0.413,0.988L-0.413,2.135L-2.054,2.135L-2.054,5.05C-2.054,5.647 -1.756,5.968 -1.205,5.968C-0.907,5.968 -0.62,5.887 -0.402,5.716L0,6.737Z" style="fill:rgb(45,44,43);fill-rule:nonzero;"/>
        </g>
        <g transform="matrix(4.16667,0,0,4.16667,1086.09,897.412)">
            <path d="M0,-0.011C0,-1.847 1.377,-3.144 3.317,-3.144C4.51,-3.144 5.463,-2.652 5.934,-1.722L4.832,-1.079C4.464,-1.664 3.914,-1.928 3.305,-1.928C2.25,-1.928 1.446,-1.193 1.446,-0.011C1.446,1.181 2.25,1.906 3.305,1.906C3.914,1.906 4.464,1.641 4.832,1.056L5.934,1.698C5.463,2.617 4.51,3.133 3.317,3.133C1.377,3.133 0,1.825 0,-0.011" style="fill:rgb(45,44,43);fill-rule:nonzero;"/>
        </g>
        <g transform="matrix(4.16667,0,0,4.16667,1114.49,887.175)">
            <path d="M0,4.902L0.551,3.811C1.09,4.167 1.917,4.42 2.686,4.42C3.592,4.42 3.971,4.167 3.971,3.743C3.971,2.571 0.184,3.673 0.184,1.229C0.184,0.07 1.228,-0.687 2.88,-0.687C3.695,-0.687 4.625,-0.492 5.176,-0.16L4.625,0.93C4.04,0.587 3.455,0.472 2.869,0.472C1.997,0.472 1.584,0.757 1.584,1.16C1.584,2.399 5.371,1.298 5.371,3.696C5.371,4.844 4.315,5.589 2.594,5.589C1.572,5.589 0.551,5.292 0,4.902" style="fill:rgb(45,44,43);fill-rule:nonzero;"/>
        </g>
        <g transform="matrix(-3.71311,-1.89047,-1.89047,3.71311,637.235,718.436)">
            <path d="M-26.015,26.526L-3.964,26.526L6.364,6.241L-15.322,5.523L-26.015,26.526Z" style="fill:rgb(45,44,43);fill-rule:nonzero;"/>
        </g>
        <g transform="matrix(4.16667,0,0,4.16667,745.133,729.58)">
            <path d="M0,8.124L2.452,8.124L2.452,0L0,1.078L0,8.124Z" style="fill:rgb(45,44,43);fill-rule:nonzero;"/>
        </g>
        <g transform="matrix(4.16667,0,0,4.16667,688.794,866.753)">
            <path d="M0,-19.749L-0.997,-20.316C-2.202,-20.871 -3.636,-20.859 -4.83,-20.285L-19.301,-11.679C-21.369,-10.252 -21.404,-10.067 -19.392,-8.557L-4.918,0.476C-3.678,1.109 -2.159,1.122 -0.906,0.51L0,-0.03L0,-19.749Z" style="fill:rgb(45,44,43);fill-rule:nonzero;"/>
        </g>
        <g transform="matrix(3.56052,-2.16421,-2.16421,-3.56052,717.839,861.999)">
            <path d="M-6.501,2.671L-2.947,2.671L9.538,23.213L6.015,23.263L-6.501,2.671Z" style="fill:rgb(0,167,93);fill-rule:nonzero;"/>
        </g>
        <g transform="matrix(4.16667,0,0,4.16667,680.914,697.84)">
            <path d="M0,15.67C-0.301,15.797 -0.641,15.863 -0.987,15.863C-1.347,15.863 -1.698,15.792 -2.006,15.656L-15.617,7.642L-1.961,-0.021C-1.664,-0.143 -1.329,-0.208 -0.989,-0.208C-0.661,-0.208 -0.338,-0.148 -0.049,-0.034L14.257,7.643L0,15.67ZM16.028,6.104L0.894,-2.017C-0.311,-2.54 -1.745,-2.529 -2.938,-1.987L-17.41,6.132C-19.478,7.479 -19.513,7.653 -17.5,9.078L-3.027,17.6C-1.787,18.198 -0.268,18.21 0.985,17.632L16.117,9.112C18.513,7.688 18.408,7.409 16.028,6.104" style="fill:rgb(45,44,43);fill-rule:nonzero;"/>
        </g>
    </g>
</svg>
