<?xml version="1.0" encoding="UTF-8" standalone="no"?>
<!DOCTYPE svg PUBLIC "-//W3C//DTD SVG 1.1//EN" "http://www.w3.org/Graphics/SVG/1.1/DTD/svg11.dtd">
<svg width="100%" height="100%" viewBox="0 0 3909 2218" version="1.1" xmlns="http://www.w3.org/2000/svg" xmlns:xlink="http://www.w3.org/1999/xlink" xml:space="preserve" xmlns:serif="http://www.serif.com/" style="fill-rule:evenodd;clip-rule:evenodd;stroke-linejoin:round;stroke-miterlimit:2;">
    <g transform="matrix(1,0,0,1,-609.574,-3653.8)">
        <g transform="matrix(4.16667,0,0,4.16667,4511.62,4927.03)">
            <path d="M0,-78.974L-1.157,-79.107L-2.377,-80.454L-1.187,-81.346L-0.219,-80.24L0.913,-80.385L1.411,-82.03L0.128,-82.634L-0.669,-83.418L-1.676,-82.963L-2.11,-81.895L-2.317,-82.991L-3.918,-83.095L-3.156,-84.712L-3.684,-85.85L-4.918,-85.897L-5.334,-84.88L-5.626,-85.893L-5.239,-86.805L-3.599,-87.018L-3.351,-89.113L-4.024,-89.751L-2.149,-90.383L-2.635,-92.378L-2.151,-93.262L-3.452,-95.28L-5.141,-95.602L-7.195,-94.46L-6.275,-96.429L-4.971,-96.796L-5.704,-98.857L-5.486,-100.041L-6.09,-100.276L-7.42,-99.541L-7.787,-100.76L-8.633,-101.532L-10.587,-101.799L-8.823,-102.62L-7.077,-102.037L-5.097,-102.848L-4.865,-101.993L-2.955,-103.827L-1.362,-103.723L-0.703,-104.746L-1.146,-106.148L-3.892,-107.71L-1.57,-107.418L0.49,-106.714L1.458,-107.315L1.355,-108.86L0.11,-109.946L-0.287,-111.579L-1.617,-111.657L-1.539,-112.475L-0.546,-114.042L-0.597,-117.907L-0.083,-118.62L0.934,-119.392L1.305,-120.335L0.175,-121.169L-1.529,-120.111L-2.871,-119.622L-2.416,-121.299L-3.547,-121.778L-3.939,-120.839L-4.833,-120.758L-4.99,-121.481L-4.27,-122.781L-8.101,-124.722L-9.145,-124.502L-10.945,-125.446L-11.754,-126.886L-11.742,-127.56L-12.819,-128.21L-13.558,-128.187L-13.845,-129.114L-14.94,-129.607L-16.654,-128.065L-18.034,-128.158L-18.759,-128L-19.629,-127.639L-17.987,-127.142L-18.745,-126.34L-20.554,-125.832L-21.251,-125.937L-21.162,-124.632L-20.268,-123.282L-20.773,-122.863L-22,-123.639L-22.285,-126.383L-21.882,-127.071L-22.819,-127.111L-25.235,-125.216L-26.789,-123.573L-28.465,-122.859L-28.451,-122.096L-26.329,-122.944L-25.486,-122.689L-25.296,-121.169L-24.391,-119.677L-22.534,-117.298L-22.602,-115.642L-23.802,-114.893L-23.854,-113.742L-22.021,-113.54L-20.081,-113.932L-19.454,-112.521L-19.733,-111.332L-19.502,-108.959L-19.604,-108.369L-20.413,-109.97L-20.66,-111.859L-21.372,-112.452L-22.457,-111.56L-22.449,-110.235L-21.979,-109.63L-22.333,-109.273L-23.383,-109.915L-23.891,-112.101L-25.527,-112.87L-27.201,-112.072L-28.092,-112.801L-28.084,-114.344L-27.29,-114.835L-27.67,-116.441L-28.547,-117.846L-28.51,-119.404L-30.57,-120.837L-31.511,-125.242L-32.395,-127.163L-32.002,-127.663L-32.609,-128.689L-33.609,-129.236L-33.392,-128.626L-34.119,-127.656L-34.568,-128.223L-34.731,-129.843L-36.897,-132.073L-38.385,-132.709L-39.817,-132.817L-39.818,-131.865L-38.866,-130.874L-36.653,-129.224L-38.652,-129.067L-40.658,-130.707L-41.494,-132.262L-40.907,-133.119L-41.419,-133.763L-43.481,-134.492L-42.921,-133.838L-43.132,-133.142L-45.124,-133.196L-45.773,-134.807L-45.182,-135.334L-47.202,-136.381L-47.761,-136.331L-47.889,-135.013L-48.88,-135.694L-49.08,-137.002L-50.985,-137.524L-50.707,-136.298L-56.002,-139.094L-57.726,-138.964L-59.641,-140.359L-59.433,-141.216L-61.223,-142.3L-61.528,-142.016L-61.79,-141.329L-62.354,-141.991L-63.476,-142.764L-64.383,-144.073L-65.299,-143.915L-65.281,-142.711L-67.144,-143.385L-68.884,-143.747L-69.646,-142.836L-71.609,-143.537L-75.122,-146.124L-74.817,-146.573L-72.787,-145.033L-71.771,-144.075L-71.393,-144.612L-74.447,-148.358L-78.826,-150.227L-80.917,-150.313L-81.429,-150.958L-80.471,-151.432L-81.293,-152.493L-82.792,-152.567L-82.463,-152.034L-83.499,-152.018L-84.782,-153.168L-88.471,-155.697L-90.688,-156.095L-91.705,-155.426L-92.548,-156.058L-92.937,-157.102L-94.346,-156.925L-96.772,-157.713L-97.618,-159.057L-98.559,-159.176L-100.474,-159.488L-100.871,-159.986L-102.048,-159.145L-102.662,-158.189L-102.93,-159.628L-108.628,-159.829L-109.121,-158.567L-110.231,-159.391L-111.377,-158.106L-111.891,-158.21L-112.119,-159.256L-114.02,-159.614L-114.347,-158.352L-115.212,-158.722L-116.462,-158.557L-117.857,-160.231L-119.566,-160.147L-119.998,-159.245L-122.97,-160.197L-126.656,-160.927L-127.361,-161.734L-130.455,-162.155L-130.862,-161.873L-129.45,-159.984L-129.25,-157.587L-128.635,-156.748L-128.642,-155.281L-128.249,-152.991L-129.035,-152.359L-129.497,-150.649L-128.765,-150.374L-127.25,-151.061L-125.244,-149.258L-124.95,-148.083L-124.078,-147.546L-122.393,-144.482L-122.578,-142.259L-120.882,-141.041L-120.084,-139.005L-120.504,-138.154L-120.344,-137.238L-121.111,-136.871L-120.589,-135.353L-121.303,-134.972L-122.108,-135.54L-123.952,-135.013L-124.073,-133.908L-125.775,-134.206L-127.049,-133.773L-129.146,-134.731L-129.748,-135.787L-129.312,-137.229L-130.603,-140.881L-131.502,-141.315L-132.073,-141.051L-134.998,-142.698L-137.083,-143.001L-137.83,-143.932L-139.094,-146.599L-138.558,-148.173L-139.467,-149.482L-141.1,-150.189L-141.159,-151.079L-141.389,-152.782L-143.323,-153.906L-144.21,-153.496L-144.798,-152.077L-145.331,-150.316L-145.371,-149.296L-147.553,-147.628L-148.542,-146.408L-149.123,-147.533L-149.058,-148.379L-149.694,-148.517L-151.162,-148.066L-153.848,-149.12L-156.469,-148.969L-157.338,-149.58L-159.512,-148.749L-161.546,-148.931L-162.556,-149.611L-163.497,-151.25L-164.373,-151.574L-164.98,-151.187L-165.129,-150.147L-167.665,-149.911L-169.176,-149.31L-171.89,-149.832L-174.035,-148.476L-174.76,-145.961L-175.791,-142.906L-174.391,-138.734L-174.645,-136.64L-175.687,-139.669L-176.625,-141.423L-177.762,-141.599L-178.915,-142.819L-179.029,-141.546L-177.917,-140.56L-177.897,-138.274L-178.073,-137.514L-179.277,-140.537L-180.476,-140.899L-180.153,-143.409L-181.712,-146.164L-182.178,-148.203L-183.369,-148.403L-183.437,-146.194L-184.114,-145.042L-184.228,-146.813L-185.417,-148.096L-187.285,-148.391L-187.673,-147.474L-188.257,-148.577L-190.054,-149.12L-192.154,-147.742L-193.75,-147.843L-192.383,-148.954L-192.156,-150.244L-192.718,-153.24L-192.048,-155.1L-192.433,-155.976L-192.205,-157.266L-192.744,-159.983L-194.273,-163.38L-196.624,-165.664L-198.493,-169.381L-204.266,-173.464L-207.623,-174.588L-209.26,-174.751L-212.602,-173.754L-212.914,-173.248L-214.27,-173.986L-216.964,-173.877L-222.65,-172.875L-224.623,-172.984L-227.411,-171.489L-228.857,-171.383L-232.158,-169.994L-233.859,-169.745L-235.889,-168.782L-238.245,-168.896L-239.896,-170.1L-242.863,-170.345L-245.042,-169.972L-243.143,-171.029L-240.611,-171.675L-239.967,-172.732L-241.147,-175.476L-244.243,-177.282L-246.697,-180.306L-247.542,-181.104L-248.255,-180.723L-250.348,-178.474L-250.75,-176.966L-250.998,-178.128L-251.782,-178.038L-252.975,-176.608L-254.073,-176.397L-254.272,-177.16L-253.22,-178.853L-252.354,-179.569L-252.453,-181.392L-253.807,-182.673L-255.837,-181.707L-255.862,-180.741L-257.157,-179.5L-257.694,-180.586L-257.401,-182.293L-257.725,-183.911L-257.739,-186.031L-259.487,-185.094L-261.773,-185.621L-263.487,-185.163L-264.314,-185.848L-262.883,-186.447L-262.808,-187.78L-262.314,-189.044L-262.339,-190.574L-261.967,-190.899L-260.138,-188.334L-258.803,-188.8L-258.151,-190.233L-259.468,-193.784L-263.372,-196.702L-266.766,-198.216L-270.901,-198.375L-274.614,-198.687L-277.461,-197.536L-278.99,-190.662L-279.687,-188.914L-279.561,-187.521L-281.443,-185.97L-281.97,-184.225L-284.067,-183.394L-285.165,-183.726L-285.567,-184.553L-285.198,-185.418L-286.421,-186.931L-285.235,-187.442L-284.463,-186.774L-282.886,-188.578L-282.582,-191.368L-283.761,-192.322L-283.906,-194.918L-283.109,-194.3L-281.407,-195.086L-281.778,-193.68L-280.862,-192.042L-280.71,-189.661L-280.084,-190.287L-279.264,-193.73L-279.185,-196.318L-284.144,-195.912L-288.287,-194.61L-288.804,-193.247L-291.168,-192.44L-292.225,-193.63L-291.624,-194.535L-290.396,-194.65L-291.285,-196.552L-289.6,-199.083L-288.368,-198.114L-287.599,-198.151L-286.375,-196.967L-281.409,-197.587L-279.549,-197.622L-282.722,-198.636L-284.702,-198.91L-287.156,-199.976L-292.811,-201.574L-294.282,-201.204L-302.067,-202.958L-306.525,-204.197L-309.427,-204.477L-311.976,-206.662L-314.681,-207.044L-316.803,-206.869L-315.882,-204.69L-313.645,-204.014L-312.553,-203.138L-311.248,-202.961L-310.384,-200.962L-310.818,-200.062L-313.755,-198.614L-315.089,-199.234L-317.583,-199.062L-318.39,-197.298L-319.513,-196.279L-318.889,-193.318L-316.741,-191.965L-316.055,-193.33L-314.243,-194.303L-311.577,-194.316L-312.746,-192.06L-315.001,-192.687L-314.436,-190.776L-314.839,-190.517L-314.589,-189.196L-316.518,-188.745L-315.279,-187.987L-313.708,-188.168L-313.325,-186.911L-314.077,-185.506L-312.98,-183.384L-311.427,-182.749L-310.11,-179.744L-310.823,-178.658L-311.605,-179.655L-313.165,-179.528L-313.182,-177.849L-314.117,-177.64L-314.668,-178.513L-315.604,-178.472L-315.717,-180.079L-317.289,-182.24L-318.39,-182.191L-318.008,-180.937L-319.383,-180.535L-319.969,-181.474L-320.957,-181.069L-320.811,-179.394L-321.247,-177.244L-319.872,-176.391L-317.908,-176.778L-317.124,-175.234L-318.438,-174.654L-317.223,-173.473L-318.702,-172.887L-320.346,-173.925L-320.441,-173.25L-318.914,-171.647L-321.849,-172.534L-322.158,-174.039L-324.336,-174.752L-324.758,-176.401L-326.167,-177.314L-327.245,-179.327L-329.285,-179.943L-330.436,-181.16L-331.595,-181.292L-332.185,-181.849L-337.174,-181.35L-337.747,-180.162L-338.494,-179.681L-337.782,-178.434L-338.338,-177.678L-337.792,-175.883L-338.148,-175.609L-339.111,-177.099L-340.257,-176.9L-341.266,-177.693L-346.627,-178.662L-348.99,-179.647L-349.903,-181.664L-351.375,-182.542L-352.351,-184.52L-352.641,-186.458L-353.68,-187.315L-353.833,-186.271L-353.482,-183.831L-354.138,-180.228L-353.483,-175.736L-353.037,-172.179L-353.801,-164.801L-354.6,-163.411L-355.408,-163.602L-355.849,-165.041L-355.83,-166.178L-356.613,-167.717L-357.458,-167.429L-357.235,-166.383L-357.937,-165.672L-359.744,-166.71L-360.974,-169.469L-364.019,-170.716L-364.837,-172.865L-365.802,-173.642L-368.893,-178.869L-369.739,-179.125L-370.782,-178.738L-371.882,-179.229L-372.239,-180.206L-368.912,-181.864L-367.795,-181.417L-368.513,-182.287L-369.83,-183.501L-370.87,-185.445L-371.269,-185.565L-371.125,-184.599L-370.244,-183.026L-370.749,-181.714L-372.608,-181.136L-374.854,-182.521L-376.733,-185.099L-376.935,-186.242L-379.379,-187.311L-379.457,-188.853L-380.378,-189.946L-377.493,-189.075L-375.147,-187.661L-374.221,-186.405L-372.598,-186.564L-370.837,-188.259L-370.684,-189.303L-371.864,-189.169L-371.867,-190.255L-373.17,-190.432L-372.116,-192.266L-373.096,-194.293L-374.209,-194.01L-374.146,-195.211L-374.792,-195.865L-375.857,-195.562L-376.646,-195.015L-378.665,-195.952L-378.296,-197.793L-375.146,-199.275L-375.048,-200.306L-376.114,-200.706L-378.442,-199.461L-378.129,-201.044L-376.8,-201.838L-376.814,-203.413L-377.383,-203.419L-378.078,-203.09L-378.076,-204.444L-379.285,-204.836L-379.559,-205.543L-380.291,-206.628L-379.053,-208.123L-379.475,-208.876L-380.46,-208.469L-381.81,-207.141L-381.468,-209.8L-382.396,-211.22L-383.89,-210.667L-384.648,-210.928L-384.596,-212.913L-386.063,-212.167L-386.708,-212.279L-387.279,-211.556L-387.147,-213.415L-386.919,-214.348L-388.714,-214.89L-389.605,-214.7L-390.067,-215.49L-392.18,-215.504L-393.354,-215.916L-393.835,-215.409L-393.295,-214.594L-393.257,-213.095L-394.059,-213.581L-394.758,-213.44L-395.051,-212.469L-395.388,-212.787L-396.947,-212.906L-397.283,-213.418L-396.375,-214.358L-395.347,-214.807L-395.705,-216.3L-396.797,-216.899L-397.115,-215.668L-398.096,-215.289L-398.594,-216.601L-399.596,-217.31L-400.406,-218.937L-401.065,-218.271L-402.13,-218.35L-403.863,-218.792L-404.129,-219.712L-404.733,-218.702L-405.697,-218.368L-406.87,-220.049L-407.951,-220.244L-407.998,-219.012L-407.858,-218.401L-409.681,-217.648L-410.184,-218.237L-410.174,-219.071L-411.246,-218.042L-411.55,-216.317L-410.958,-215.031L-411.039,-213.618L-410.429,-213.107L-410.727,-211.33L-409.353,-210.588L-409.006,-209.398L-409.541,-208.153L-408.765,-206.783L-408.646,-205.66L-409.878,-204.624L-410.465,-205.021L-410.582,-206.164L-412.521,-206.182L-413.596,-206.86L-414.927,-206.933L-414.681,-205.862L-415.832,-204.823L-417.224,-205.137L-418.14,-205.793L-421.494,-205.101L-425.766,-205.66L-427.199,-206.66L-429.296,-207.338L-429.817,-207.224L-430.856,-207.916L-436.609,-209.927L-437.927,-211.845L-437.921,-214.562L-436.609,-215.848L-436.035,-215.948L-435.62,-216.962L-437.255,-218.221L-439.26,-218.769L-443.83,-218.197L-449.12,-219.578L-453.799,-219.739L-456.688,-220.069L-457.523,-219.288L-458.369,-219.543L-459.288,-218.843L-460.919,-218.467L-463.096,-217.387L-462.744,-215.486L-461.889,-214.902L-460.69,-215.086L-460.266,-214.52L-461.214,-213.721L-461.957,-213.782L-463.541,-212.847L-463.649,-212.12L-464.015,-212.723L-463.515,-215.284L-464.834,-217.206L-464.849,-218.242L-464.248,-219.147L-465.263,-220.813L-466.117,-221.231L-467.904,-224.493L-468.554,-224.849L-468.745,-224.038L-467.41,-221.083L-467.633,-219.629L-469.088,-218.763L-471.714,-219.068L-472.772,-218.791L-474.476,-219.465L-477.187,-223.439L-476.893,-224.762L-475.89,-225.384L-475.776,-226.488L-477.79,-226.283L-478.145,-224.757L-479.356,-223.985L-481.145,-226.157L-483.071,-226.629L-484.697,-225.926L-485.056,-223.642L-486.552,-222.463L-486.115,-220.484L-484.885,-219.352L-482.508,-220.211L-482.037,-221.045L-479.173,-221.703L-478.925,-220.542L-479.517,-219.142L-482.516,-218.038L-482.064,-216.814L-483.447,-215.659L-485.194,-215.642L-486.345,-216.859L-486.445,-216.349L-486.172,-214.743L-487.581,-213.484L-489.99,-212.527L-489.577,-211.208L-490.517,-210.786L-491.53,-211.036L-493.978,-209.931L-496.414,-210.34L-498.714,-210.817L-499.891,-209.599L-499.773,-207.66L-498.258,-204.698L-497.347,-204.123L-498.378,-204.112L-500.138,-204.566L-500.853,-203.804L-500.719,-203.172L-501.686,-202.132L-503.308,-201.242L-504.583,-201.519L-505.275,-200.83L-504.612,-201.959L-503.286,-202.481L-501.343,-205.689L-502.048,-206.578L-501.875,-207.688L-501.099,-208.214L-500.733,-209.834L-500.805,-211.862L-499.646,-213.434L-498.119,-213.842L-497.271,-214.857L-497.226,-217.691L-497.401,-218.555L-496.684,-219.232L-495.777,-219.094L-495.319,-218.713L-493.37,-218.801L-491.328,-221.353L-491.196,-222.506L-491.487,-224.136L-489.764,-227.057L-488.318,-228.165L-486.578,-230.079L-486.703,-232.174L-487.125,-232.302L-488.189,-231.647L-489.249,-231.913L-490.594,-232.834L-489.198,-232.44L-487.271,-233.262L-485.925,-233.484L-484.935,-234.62L-484.917,-235.398L-483.907,-236.042L-482.277,-237.854L-482.422,-238.627L-481.499,-239.786L-479.599,-240.079L-479.353,-241.166L-479.926,-242.317L-479.84,-242.969L-478.35,-244.308L-478.299,-245.645L-477.452,-246.552L-476.853,-246.589L-475.289,-248.423L-474.472,-250.936L-474.243,-253.329L-474.81,-255.749L-474.195,-256.35L-474.215,-257.359L-474.891,-257.808L-475.68,-257.612L-476.437,-258.437L-476.75,-259.643L-477.15,-259.764L-478.314,-258.491L-479.002,-258.184L-479.565,-258.923L-479.886,-260.726L-479.503,-261.016L-479.992,-261.651L-481.644,-262.369L-482.174,-263.828L-481.785,-264.146L-479.989,-263.707L-477.997,-262.133L-477.251,-260.85L-476.453,-261.343L-475.943,-261.24L-475.63,-260.306L-475.672,-259.533L-475.198,-259.309L-474.749,-260.261L-475.396,-261.967L-475.168,-263.255L-475.659,-264.783L-476.335,-265.587L-476.888,-265.644L-477.741,-265.412L-478.5,-266.049L-478.337,-267.571L-479.696,-269.879L-479.358,-270.997L-480.091,-272.166L-480.473,-273.419L-481.357,-273.716L-482.648,-273.29L-482.999,-272.043L-481.831,-271.611L-481.166,-270.757L-481.575,-270.12L-482.475,-269.849L-482.813,-268.898L-483.472,-268.772L-484.954,-272.118L-484.583,-273.06L-484.885,-274.673L-485.955,-275.262L-490.03,-279.613L-491.206,-280.483L-491.43,-280.984L-494.404,-281.636L-494.331,-282.784L-493.674,-283.336L-493.652,-284.23L-495.102,-284.341L-495.497,-285.004L-496.933,-285.108L-498.25,-284.426L-498.626,-284.868L-500.15,-284.133L-501.013,-282.984L-502.801,-283.525L-503.684,-284.008L-505.847,-282.767L-508.255,-282.87L-509.248,-282.818L-509.721,-283.475L-510.692,-283.768L-511.407,-283.47L-511.709,-282.1L-510.837,-281.403L-510.08,-281.309L-509.954,-279.322L-510.471,-276.906L-511.925,-275.338L-513.945,-275.839L-515.958,-274.762L-518.673,-274.931L-519.512,-275.401L-518.147,-275.966L-516.985,-276.049L-516.378,-277.499L-517.174,-280.619L-515.707,-282.239L-515.279,-283.467L-514.548,-284.117L-514.736,-286.347L-514.346,-287.639L-515.56,-289.911L-516.792,-289.627L-517.506,-290.499L-518.231,-290.605L-519.026,-289.217L-520.723,-289.566L-521.183,-290.361L-522.686,-290.055L-524.362,-288.658L-525.608,-289.035L-525.421,-290.01L-524.066,-291.069L-523.836,-292.031L-524.718,-292.516L-527.823,-289.974L-531.217,-289.697L-532.177,-290.313L-530.601,-291.737L-529.067,-291.598L-527.025,-293.32L-527.004,-294.833L-526.009,-295.786L-525.783,-296.368L-524.244,-296.772L-524.228,-297.363L-526.068,-298.466L-526.39,-299.216L-525.965,-301.149L-526.5,-301.529L-528.698,-300.564L-530.399,-301.403L-530.525,-303.504L-531.687,-303.801L-533.305,-302.934L-534.341,-305.257L-535.225,-305.576L-537.549,-304.541L-538.178,-303.537L-539.474,-303.545L-539.037,-301.947L-540.658,-301.079L-541.618,-298.977L-541.597,-297.234L-543.491,-296.014L-545.524,-290L-544.366,-288.073L-544.832,-286.53L-546.031,-286.892L-546.312,-285.237L-545.55,-283.269L-544.227,-282.979L-543.318,-280.582L-541.647,-279.644L-543.913,-278.972L-543.799,-277.201L-544.101,-276.201L-541.769,-275.28L-539.931,-275.432L-538.145,-273.967L-536.097,-273.189L-535.842,-272.242L-537.177,-271.774L-538.249,-272.37L-539.295,-272.519L-540.641,-273.798L-544.007,-273.457L-544.722,-274.326L-546.183,-274.169L-547.384,-274.858L-548.581,-275.22L-549.777,-274.493L-552.454,-275.359L-553.713,-274.596L-553.615,-274.024L-552.406,-273.17L-552.44,-271.982L-550.802,-271.818L-550.187,-270.976L-548.521,-271.453L-547.805,-269.336L-546.427,-267.777L-545.748,-264.64L-547.871,-262.294L-549.986,-261.951L-547.965,-264.657L-548.473,-265.682L-547.903,-267.57L-549.899,-268.338L-550.293,-268.835L-550.087,-269.698L-550.746,-270.225L-552.212,-269.85L-553.937,-270.263L-555.866,-269.271L-554.623,-268.35L-555.61,-267.78L-557.035,-268.268L-556.474,-266.904L-556.966,-266.18L-559.341,-265.325L-559.169,-266.791L-559.672,-267.106L-560.843,-266.645L-560.765,-265.102L-561.701,-263.807L-562.797,-264.138L-562.428,-266.258L-563.099,-267.818L-563.562,-267.36L-563.642,-266.021L-565.436,-264.394L-566.503,-262.652L-567.597,-264.07L-567.355,-264.868L-565.076,-267.545L-565.308,-268.756L-566.679,-269.445L-570.542,-269.251L-571.705,-270.092L-574.017,-269.267L-575.084,-269.864L-576.008,-270.957L-577.772,-271.219L-576.698,-269.37L-577.996,-268.678L-578.367,-269.06L-578.372,-269.772L-578.809,-270.117L-579.718,-269.088L-580.612,-268.817L-581.54,-265.946L-580.982,-264.907L-579.04,-265.949L-578.512,-264.978L-575.854,-265.695L-575.121,-265.256L-575.807,-264.05L-579.957,-263.621L-581.022,-262.422L-582.908,-261.956L-585.928,-262.381L-586.445,-261.397L-586.183,-260.451L-588.575,-260.626L-589.623,-261.49L-590.366,-261.548L-591.071,-260.456L-591.926,-260.335L-593.783,-260.3L-594.508,-259.702L-594.058,-258.316L-594.622,-258.432L-595.379,-257.359L-596.181,-257.221L-596.512,-258.298L-597.004,-258.447L-598.795,-257.03L-598.789,-256.324L-599.389,-255.96L-599.765,-254.717L-601.496,-253.668L-601.656,-252.41L-603.467,-252.358L-605.731,-252.934L-607.298,-252.268L-607.733,-250.987L-606.756,-250.638L-605.839,-251.335L-602.978,-249.659L-603.972,-248.874L-605.243,-249.525L-605.69,-249.119L-604.939,-248.022L-605.982,-245.457L-607.436,-244.976L-607.474,-243.953L-608.046,-242.766L-608.876,-245.245L-610.174,-245.258L-610.982,-247.62L-611.863,-248.108L-612.314,-247.7L-611.71,-246.644L-611.975,-245.421L-612.977,-244.801L-612.534,-243.201L-611.058,-243.408L-609.166,-242.126L-607.729,-241.475L-607.861,-240.155L-606.863,-238.768L-605.514,-238.745L-604.715,-238.882L-604.455,-237.932L-606.013,-237.643L-607.621,-238.075L-608.518,-239.594L-609.385,-239.421L-609.898,-238.438L-610.682,-238.184L-609.692,-235.874L-608.512,-236.009L-606.292,-235.446L-606.187,-233.462L-605.588,-232.569L-604.703,-233.171L-602.687,-232.456L-603.434,-231.43L-601.934,-229.565L-600.341,-229.083L-599.965,-226.905L-601.635,-224.802L-604.75,-224.005L-606.231,-222.877L-606.452,-221.967L-604.857,-218.984L-603.606,-217.899L-606.063,-218.586L-608.137,-221.604L-607.756,-223.067L-605.694,-225.379L-604.489,-225.776L-604.334,-226.813L-603.17,-227.982L-603.453,-228.667L-608.617,-228.107L-611.277,-227.934L-612.458,-226.551L-614.247,-226.385L-615.392,-227.275L-617.09,-227.407L-619.476,-226.338L-625.062,-226.013L-628.888,-226.301L-630.48,-226.782L-632.623,-225.634L-634.478,-226.143L-635.714,-225.645L-634.532,-223.984L-635.018,-222.557L-635.821,-221.33L-635.283,-220.245L-634.25,-219.879L-634.193,-218.994L-634.993,-218.15L-633.072,-216.047L-632.283,-212.546L-633.14,-210.249L-632.925,-208.99L-632.324,-208.808L-632.62,-206.944L-631.107,-205.125L-629.511,-204.811L-625.041,-203.244L-623.151,-203.756L-623.451,-202.764L-623.185,-201.483L-623.746,-199.807L-622.068,-198.162L-621.578,-196.001L-618.175,-194.863L-616.339,-192.68L-615.438,-192.408L-614.577,-190.41L-615.254,-186.916L-615.222,-185.388L-616.042,-183.952L-615.137,-181.721L-614.115,-180.434L-612.938,-176.765L-613.033,-173.586L-611.719,-171.453L-611.627,-169.956L-613.996,-167.523L-614.838,-167.61L-615.762,-168.326L-615.106,-166.009L-612.922,-165.133L-611.913,-163.794L-610.269,-160.418L-608.271,-158.783L-607.944,-158.955L-607.051,-158.307L-604.399,-159.351L-602.144,-159.105L-600.143,-156.706L-598.553,-155.52L-597.372,-155.109L-597.084,-153.177L-597.583,-150.449L-597.494,-153.083L-598.148,-154.691L-600.141,-155.293L-602.299,-158.389L-603.758,-158.776L-606.382,-157.287L-606.992,-155.461L-607.023,-154.439L-608.841,-157.978L-611.511,-158.837L-612.624,-160.369L-612.104,-161.732L-612.834,-163.801L-614.732,-164.918L-616.863,-165.419L-618.771,-167.713L-618.025,-168.031L-617.559,-169.575L-616.479,-169.902L-616.513,-171.055L-615.779,-174.2L-615.887,-176.731L-616.702,-177.792L-618.08,-175.929L-619.195,-175.831L-619.497,-174.128L-620.594,-173.372L-620.468,-172.358L-621.271,-171.132L-622.147,-171.288L-621.5,-175.602L-620.252,-176.473L-619.955,-178.016L-621.58,-180.352L-620.966,-182.56L-621.364,-184.309L-620.788,-186.038L-618.502,-186.597L-618.149,-187.575L-618.007,-188.942L-616.952,-191.18L-618.446,-191.795L-619.043,-191.811L-619.737,-193.11L-623.037,-192.259L-626.671,-192.813L-628.534,-193.484L-630.429,-197.097L-631.684,-198.347L-631.591,-199.73L-635.291,-201.339L-636.6,-202.928L-637.68,-205.104L-642.293,-206.39L-643.407,-207.38L-645.172,-206.933L-647.518,-204.925L-648.12,-203.478L-649.014,-203.206L-649.53,-203.849L-650.111,-203.157L-649.554,-201.957L-646.945,-202.689L-644.687,-201.354L-644.213,-198.602L-646.451,-196.402L-648.416,-196.559L-651.027,-198.703L-652.189,-201.338L-653.184,-201.639L-655.433,-200.852L-656.255,-200.283L-657.305,-200.223L-656.216,-196.629L-655.452,-196.292L-655.453,-194.499L-653.762,-191.814L-651.612,-191.005L-650.674,-189.632L-647.511,-188.404L-646.447,-189.06L-645.873,-188.78L-645.944,-187.66L-643.704,-186.983L-643.543,-184.817L-642.787,-184.264L-642.825,-182.864L-640.217,-181.801L-638.831,-182.25L-640.151,-181.293L-643.023,-181.671L-644.466,-183.194L-645.663,-183.721L-646.859,-186.254L-647.912,-186.898L-649.351,-186.626L-650.889,-186.929L-652.519,-185.844L-652.655,-187.026L-653.595,-188.236L-655.003,-188.063L-657.343,-188.77L-658.788,-190.455L-660.475,-190.637L-660.803,-191.879L-659.419,-192.33L-659.132,-193.278L-659.99,-194.569L-659.659,-195.665L-661.129,-198.007L-661.482,-199.691L-660.391,-201.155L-660.897,-203.263L-659.878,-206.108L-660.898,-207.937L-660.415,-210.073L-660.802,-210.951L-661.623,-211.47L-661.394,-213.301L-662.877,-215.218L-663.874,-214.978L-662.695,-208.805L-662.92,-205.017L-664.491,-202.337L-667.446,-200.458L-669.263,-199.491L-669.44,-198.726L-668.728,-197.479L-668.948,-195.318L-670.611,-193.05L-671.057,-191.394L-668.991,-189.244L-666.736,-185.739L-666.648,-183.702L-664.951,-183.189L-663.978,-181.214L-663.596,-178.16L-665.282,-174.001L-666.129,-172.462L-665.343,-169.669L-666.481,-166.807L-666.145,-165.025L-664.442,-161.682L-664.663,-160.227L-665.375,-158.596L-664.945,-157.49L-663.271,-156.384L-660.967,-156.992L-658.852,-155.541L-657.731,-156.014L-656.744,-157.672L-654.655,-158.831L-653.16,-157.838L-651.893,-157.89L-649.928,-155.774L-648.383,-155.852L-648.034,-154.119L-645.291,-151.874L-643.041,-151.248L-642.143,-148.806L-642.359,-147.73L-640.712,-145.985L-640.58,-144.802L-640.259,-144.431L-640.273,-143.297L-639.558,-142.263L-640.873,-141.683L-642.273,-141.727L-643.083,-139.581L-642.707,-137.403L-642.064,-136.664L-642.841,-135.705L-642.409,-134.271L-640.897,-133.867L-640.416,-132.418L-638.522,-131.846L-637.013,-133.239L-636.865,-132.105L-635.467,-132.065L-634.68,-131.445L-635.559,-131.223L-636.234,-130.611L-638.284,-131.013L-639.483,-130.993L-641.397,-131.14L-642.76,-132.908L-644.325,-133.491L-644.872,-135.285L-644.043,-135.69L-643.798,-137.406L-644.571,-139.326L-644.473,-140.926L-645.391,-142.016L-644.661,-143.537L-645.687,-146.071L-646.286,-146.252L-646.53,-147.413L-648.355,-149.106L-647.813,-150.898L-649.289,-153.571L-651.11,-154.013L-654.581,-152.238L-656.397,-152.516L-657.911,-151.29L-660.431,-150.314L-661.38,-146.468L-660.929,-145.083L-658.669,-142.661L-658.136,-137.229L-658.698,-136.096L-661.82,-133.128L-662.835,-131.042L-662.273,-128.752L-664.354,-126.015L-664.861,-124.866L-667.262,-123.578L-667.646,-122.664L-669.074,-122.439L-670.266,-121.55L-670.761,-119.909L-670.251,-118.722L-670.592,-117.413L-672.928,-116.87L-675.303,-118.184L-675.537,-119.014L-677.843,-119.662L-680.403,-119.997L-682.317,-121.227L-686.954,-123.498L-688.201,-125.669L-688.405,-127.144L-690.57,-127.364L-691.691,-126.342L-691.987,-126.974L-692.839,-127.398L-691.366,-128.85L-689.38,-128.415L-685.499,-127.788L-684.596,-128.435L-682.121,-125.839L-681.14,-125.651L-680.542,-126.396L-679.142,-125.974L-679.495,-124.995L-681.812,-124.498L-680.889,-123.078L-678.402,-122.49L-677.017,-123.482L-675.427,-123.708L-675.274,-124.751L-676.165,-126.648L-675.894,-127.545L-674.495,-126.254L-673.642,-126.917L-672.715,-129.626L-670.901,-130.056L-670.874,-130.864L-671.94,-130.914L-672.078,-131.556L-670.408,-131.867L-669.502,-134.687L-669.827,-135.601L-668.598,-136.424L-668.499,-137.101L-666.99,-137.785L-666.571,-139.887L-667.617,-141.832L-667.71,-144.576L-666.818,-146.266L-666.333,-147.69L-665.76,-147.25L-665.445,-148.293L-666.85,-150.839L-667.738,-151.323L-668.295,-152.691L-670.184,-154.017L-671.794,-158.201L-671.5,-161.153L-672.037,-162.076L-670.994,-163.009L-672.131,-164.281L-672.496,-165.963L-671.467,-167.555L-672.606,-171.161L-672.004,-173.153L-672.932,-175.119L-672.25,-175.941L-671.933,-176.823L-672.681,-178.298L-671.955,-182.48L-672.394,-184.082L-673.659,-185.661L-673.454,-188.309L-673.987,-189.074L-675.103,-188.974L-674.998,-189.321L-676.405,-190.236L-676.79,-192.199L-677.792,-193.915L-677.821,-195.61L-676.893,-195.818L-676.164,-196.956L-676.431,-198.232L-675.866,-199.037L-676.247,-200.294L-674.562,-203.698L-674.795,-205.995L-674.138,-208.349L-674.608,-209.309L-674.127,-210.902L-674.525,-212.65L-673.342,-212.783L-673.477,-214.128L-674.731,-214.833L-676.557,-215.439L-680.011,-218.223L-681.542,-218.737L-682.485,-218.316L-683.465,-219.211L-684.59,-219.606L-686.489,-219.256L-688.349,-219.76L-690.04,-219.568L-690.32,-220.251L-689.693,-220.713L-690.616,-221.588L-691.757,-221.607L-692.382,-218.811L-693.46,-216.687L-692.768,-214.848L-693.364,-214.485L-694.75,-212.241L-694.194,-211.204L-694.706,-209.676L-694.558,-208.544L-695.375,-207.651L-695.83,-205.611L-695.3,-203.772L-696.692,-202.397L-696.92,-201.107L-696.817,-199.287L-697.455,-198.609L-699.201,-198.046L-702.576,-195.157L-703.652,-194.83L-703.735,-193.662L-703.278,-192.109L-704.371,-191.189L-705.233,-189.061L-704.092,-187.084L-703.075,-187.374L-702.437,-186.26L-702.215,-183.582L-700.751,-183.033L-699.886,-181.578L-700.756,-182.11L-702.08,-181.153L-702.428,-179.465L-700.873,-177.416L-701.323,-175.925L-702.654,-175.294L-703.338,-176.264L-703.639,-175.267L-703.403,-172.097L-702.682,-170.902L-702.903,-168.525L-701.946,-169.374L-700.991,-168.218L-699.46,-167.7L-698.351,-166.333L-696.582,-167.702L-696.08,-166.844L-696.787,-164.504L-696.166,-162.957L-695.464,-162.581L-693.737,-158.584L-692.513,-157.779L-691.326,-158.123L-690.081,-157.747L-690.046,-157.143L-688.82,-156.881L-690.303,-156.294L-691.322,-152.742L-691.992,-151.969L-691.511,-150.304L-692.026,-149.695L-692.835,-149.885L-693.044,-147.94L-693.398,-147.125L-694.706,-147.847L-695.359,-151.246L-696.743,-153.134L-698.662,-154.147L-698.954,-156.248L-700.002,-157.815L-703.398,-159.164L-706.399,-162.352L-708.502,-163.314L-708.374,-164.634L-709.341,-165.035L-710.134,-166.362L-712.238,-166.236L-713.812,-165.518L-714.022,-167.159L-713.366,-167.72L-713.442,-168.722L-717.162,-171.529L-718.661,-173.393L-724.875,-175.65L-730.065,-176.459L-731.187,-177.231L-732.546,-177.425L-733.414,-178.502L-734.049,-178.371L-735.074,-178.95L-736.089,-178.445L-735.87,-176.855L-736.201,-175.758L-737.746,-175.681L-737.911,-175.137L-737.417,-173.356L-736.672,-172.588L-736.697,-169.987L-736.377,-168.696L-735.781,-169.764L-735.017,-169.428L-734.566,-166.955L-734.78,-165.711L-733.406,-164.865L-732.199,-162.378L-733.853,-163.206L-734.286,-163.934L-735.313,-164.136L-736.521,-162.109L-738.023,-161.638L-739.574,-162.982L-740.727,-162.531L-741.053,-161.819L-740.161,-159.734L-739.812,-159.111L-740.078,-158.322L-741.004,-157.766L-744.285,-158.918L-744.759,-160.12L-744.176,-161.058L-744.407,-162.56L-743.034,-163.228L-742.84,-163.954L-743.771,-165.644L-744.669,-166.35L-743.329,-167.193L-743.439,-167.713L-744.588,-167.491L-745.302,-167.649L-747.554,-166.464L-748.645,-166.552L-750.182,-165.847L-750.522,-165.163L-752.206,-165.514L-753.133,-164.952L-753.388,-164.108L-754.631,-163.671L-757.487,-164.535L-758.342,-165.201L-759.036,-165.055L-759.889,-165.37L-760.482,-166.201L-762.543,-165.628L-763.129,-165.047L-764.539,-165.229L-766.023,-164.349L-766.174,-163.746L-765.42,-162.763L-765.986,-162.038L-765.948,-161.185L-766.536,-160.768L-767.357,-161.885L-767.662,-162.95L-768.341,-163.044L-770.185,-161.87L-771.318,-160.451L-770.846,-162.012L-772.053,-162.949L-773.151,-162.632L-774.014,-162.916L-774.955,-162.932L-775.984,-163.488L-775.933,-164.636L-774.199,-165.519L-772.874,-165.174L-772.043,-165.952L-772.512,-167.612L-772.055,-168.041L-771.076,-168.259L-772.158,-170.133L-773.02,-169.958L-773.858,-170.427L-774.117,-171.184L-771.336,-171.591L-770.325,-171.365L-768.807,-171.638L-768.893,-172.236L-771.358,-172.601L-775.282,-172.162L-776.579,-171.633L-776.29,-170.894L-776.261,-169.557L-776.015,-168.622L-777.032,-167.879L-777.904,-167.888L-778.72,-169.593L-778.091,-170.073L-777.561,-170.196L-777.518,-171.087L-777.927,-171.195L-781.081,-169.534L-781.179,-168.915L-780.501,-167.616L-779.84,-167.036L-780.273,-166.138L-782.239,-165.102L-782.808,-165.82L-782.106,-166.446L-782.044,-167.537L-782.498,-167.731L-782.347,-168.767L-785.148,-168.748L-785.724,-168.002L-787.767,-167.697L-789.126,-168.406L-790.036,-168.229L-790.261,-167.483L-793.944,-165.007L-794.752,-165.033L-798.095,-162.787L-799.369,-162.52L-800.082,-163.766L-800.724,-163.959L-800.569,-162.499L-799.219,-160.68L-799.222,-159.595L-801.122,-161.038L-801.896,-160.457L-805.567,-161.078L-806.409,-160.789L-805.797,-159.243L-806.102,-158.034L-807.399,-156.795L-807.402,-154.625L-808.273,-153.365L-810.929,-153.028L-811.487,-152.432L-812.884,-152.855L-813.723,-152.241L-814.083,-153.924L-816.197,-153.206L-817.396,-153.569L-818.993,-157.8L-821.042,-160.918L-821.84,-161.702L-821.151,-163.616L-820.579,-164.254L-820.002,-163.645L-819.167,-164.428L-819.14,-165.235L-818.285,-165.735L-816.228,-165.168L-815.359,-165.881L-813.031,-165.127L-812.485,-166.049L-813.619,-168.943L-813.555,-170.063L-814.988,-170.715L-815.886,-172.778L-815.476,-173.958L-816.798,-175.502L-820.226,-176.918L-822.729,-177.453L-823.944,-177.224L-825.551,-177.655L-827.696,-180.261L-829.192,-180.713L-829.352,-179.997L-826.91,-176.382L-825.426,-174.467L-825.271,-171.377L-825.722,-169.885L-825.299,-168.778L-825.98,-168.494L-826.405,-167.266L-826.394,-166.228L-827.012,-165.983L-827.915,-162.995L-828.92,-161.449L-828.871,-159.643L-826.9,-159.158L-825.713,-157.872L-825.081,-156.54L-825.527,-155.97L-825.546,-155L-825.993,-154.428L-826.169,-153.666L-825.707,-153.035L-826.442,-152.225L-827.308,-149.171L-828.084,-148.593L-827.71,-146.576L-828.236,-144.129L-828.856,-145.132L-828.859,-146.923L-830.125,-148.666L-832.168,-147.656L-831.549,-148.987L-831.976,-150.095L-833.942,-150.96L-835.905,-151.282L-836.882,-152.716L-838.455,-153.464L-839.561,-153.038L-842.017,-150.304L-844.685,-149.206L-846.318,-149.376L-847.73,-148.662L-848.643,-147.088L-850.669,-145.583L-852.899,-144.683L-853.395,-143.581L-853.285,-141.428L-851.296,-137.569L-850.341,-134.45L-851.681,-133.609L-852.69,-133.861L-853.065,-132.451L-854.492,-131.851L-855.52,-130.966L-856.752,-133.185L-860.331,-136.442L-861.733,-137.027L-861.926,-138.01L-864.184,-138.799L-865.076,-140.155L-865.556,-141.821L-867.288,-142.727L-868.483,-144.176L-869.99,-144.574L-870.545,-143.82L-870.405,-142.851L-870.927,-142.199L-870.692,-141.362L-871.793,-140.775L-873.056,-141.263L-872.649,-139.185L-872.742,-137.636L-871.206,-136.25L-870.522,-134.36L-869.17,-133.082L-867.764,-133.251L-867.027,-132.979L-865.762,-133.407L-865.925,-132.32L-864.64,-131.325L-864.717,-130.805L-865.361,-130.296L-864.628,-129.13L-865.35,-127.101L-866.25,-126.988L-867.373,-127.221L-869.257,-126.108L-869.958,-126.377L-870.792,-127.821L-872.665,-128.441L-873.29,-129.416L-875.345,-130.063L-875.797,-130.717L-875.459,-132.373L-876.385,-133.438L-876.913,-134.925L-877.41,-135.158L-878.923,-134.531L-881.263,-136.292L-881.535,-137.541L-881.961,-138.373L-881.101,-139.251L-880.892,-140.859L-880.515,-142.105L-881.527,-143.444L-881.147,-144.521L-882.409,-146.806L-882.06,-148.33L-883.013,-148.947L-882.419,-150.016L-881.316,-150.062L-880.486,-152.094L-880.198,-153.417L-880.598,-153.704L-880.228,-154.571L-879.539,-155.23L-880.193,-155.592L-881.035,-158.02L-883.644,-160.165L-884.621,-159.809L-885.062,-160.7L-886.103,-161.015L-886.768,-160.784L-888.238,-161.501L-887.464,-162.082L-886.11,-161.888L-885.462,-162.777L-886.86,-163.364L-886.74,-163.762L-885.671,-163.877L-886.374,-164.794L-887.453,-164.469L-889.757,-164.567L-889.955,-165.007L-889.116,-165.623L-887.622,-165.881L-887.887,-166.445L-889.695,-167.48L-889.74,-168.584L-890.982,-170.045L-890.709,-172.025L-891.82,-173.394L-891.399,-173.702L-890.192,-173.389L-889.962,-172.885L-888.312,-172.223L-888.44,-170.905L-886.312,-167.706L-885.444,-167.335L-885.06,-167.711L-884.001,-166.358L-881.857,-165.71L-881.447,-166.182L-880.884,-164.98L-881.848,-164.678L-881.47,-164.126L-881.695,-163.38L-880.415,-162.939L-879.618,-163.406L-877.545,-162.723L-878.186,-162.592L-877.082,-162.096L-875.732,-161.905L-876.023,-161.122L-874.859,-159.032L-873.657,-159.43L-872.666,-158.748L-872.61,-158.026L-870.804,-157.46L-869.811,-156.806L-868.632,-157.211L-867.403,-155.619L-865.435,-154.349L-861.688,-152.986L-858.596,-152.434L-858.034,-152.861L-856.091,-152.274L-854.92,-152.735L-852.662,-152.486L-850.582,-152.891L-847.068,-155.521L-846.545,-156.347L-844.548,-157.751L-844.277,-158.646L-843.53,-159.508L-842.643,-161.358L-842.225,-162.921L-841.779,-164.575L-842.128,-165.223L-842.669,-165.224L-843.222,-167.187L-843.865,-167.924L-843.815,-169.7L-844.776,-171.566L-845.844,-172.161L-846.322,-171.654L-847.608,-172.805L-847.205,-173.6L-849.285,-176.242L-848.806,-177.458L-849.779,-179.273L-850.479,-179.484L-850.375,-178.746L-849.796,-176.887L-850.864,-176.777L-852.056,-178.766L-853.067,-179.181L-854.431,-181.494L-855.079,-181.689L-855.245,-181.141L-855.225,-180.32L-856.147,-180.87L-856.995,-183.627L-858.119,-184.398L-858.732,-185.781L-862.362,-190.139L-868.004,-195.753L-869.348,-196.866L-869.714,-196.381L-870.85,-197.648L-872.341,-198.478L-872.388,-197.785L-873.547,-197.539L-874.69,-198.426L-876.556,-199.099L-877.053,-200.499L-878.13,-201.423L-878.288,-201.089L-877.874,-199.932L-878.256,-199.392L-878.956,-200.313L-880.346,-200.57L-880.993,-200.219L-881.001,-199.305L-882.33,-197.963L-883.767,-198.235L-882.598,-199.238L-881.646,-199.499L-881.931,-200.181L-882.928,-200.482L-882.455,-201.154L-881.952,-201.543L-882.41,-202.008L-883.188,-201.592L-884.706,-200.531L-884.451,-201.375L-884.151,-201.829L-884.375,-202.331L-885.202,-201.714L-885.578,-201.724L-885.411,-202.728L-886.386,-203.43L-887.703,-202.854L-887.672,-204.116L-888.081,-204.648L-889.238,-204.044L-889.257,-205.328L-888.793,-206.758L-887.824,-207.468L-887.999,-206.626L-887.312,-205.308L-885.711,-205.043L-884.858,-204.293L-883.441,-204.844L-883.333,-205.571L-883.977,-206.305L-884.166,-206.849L-885.033,-207.571L-885.699,-207.231L-886.216,-208.038L-886.622,-209.215L-887.744,-210.23L-888.952,-210.734L-889.354,-210.392L-889.129,-209.513L-888.77,-209.27L-888.92,-208.771L-889.766,-208.839L-890.468,-209.214L-890.641,-208.724L-889.76,-207.616L-890.417,-207.495L-891.255,-207.851L-892.042,-207.142L-892.712,-205.556L-893.033,-206.55L-892.62,-207.834L-893.018,-208.497L-894.381,-209.094L-894.42,-209.061L-894.766,-207.695L-895.886,-206.917L-897.072,-207.87L-898.195,-208.105L-898.623,-206.183L-900.06,-205.113L-901.692,-205.369L-903.961,-204.213L-904.712,-201.919L-905.534,-202.02L-905.547,-201.967L-907.491,-201.802L-908.785,-201.389L-907.833,-200.711L-908.65,-199.042L-909.8,-196.953L-909.228,-195.593L-908.993,-192.259L-908.137,-191.848L-906.638,-190.308L-906.096,-188.487L-905.95,-187.096L-903.53,-184.294L-902.951,-183.293L-904.16,-181.537L-906.132,-179.802L-908.176,-177.002L-907.121,-174.823L-907.112,-172.799L-905.913,-167L-905.032,-159.285L-906.309,-159.36L-907.882,-155.174L-908.177,-154.021L-906.993,-153.304L-908.258,-152.392L-908.917,-150.21L-908.393,-148.859L-906.862,-148.088L-906.669,-146.682L-907.378,-146.224L-908.011,-143.779L-907.757,-142.04L-906.186,-140.065L-906.627,-138.077L-908.377,-136.743L-909.49,-134.957L-907.737,-129.768L-906.209,-128.683L-904.35,-124.554L-904.526,-122.432L-907.84,-118.312L-911.857,-114.607L-914.223,-111.75L-916.903,-109.559L-919.603,-106.958L-921.398,-106.671L-925.306,-104.697L-925.616,-102.816L-925.597,-102.805C-925.429,-102.952 -925.282,-103.06 -925.188,-103.064C-924.857,-103.074 -923.041,-103.502 -923.041,-103.502L-921.526,-103.318L-922.713,-102.806L-922.52,-101.823L-922.866,-100.676L-923.946,-102.308L-924.452,-101.539L-923.418,-99.377L-921.905,-98.811L-921.437,-97.313L-919.944,-96.861L-919.271,-96.929L-918.224,-96.612L-917.576,-94.626L-918.674,-93.867L-920.42,-95.105L-921.308,-95.045L-922.001,-94.005L-923.956,-93.288L-925.01,-94.476L-925.937,-94.107L-926.226,-92.781L-927.542,-92.745L-927.76,-94.005L-928.417,-93.988L-928.643,-93.241L-928.347,-92.061L-929.191,-90.753L-929.203,-90.621L-928.914,-89.418L-928.901,-89.175L-929.202,-88.812L-930.627,-87.814L-931.649,-86.073L-932.581,-85.773L-934.543,-80.985L-933.174,-74.569L-933.576,-73.241L-934.887,-72.651L-935.067,-71.36L-936.491,-70.189L-935.237,-69.598L-935.396,-68.408L-935.867,-67.872L-935.455,-67.181L-935.404,-65.978L-935.853,-65.179L-935.485,-63.308L-935.243,-62.56L-935.107,-60.451L-934.577,-58.948L-934.909,-57.018L-934.343,-56.983L-933.438,-55.878L-931.754,-56.302L-931.058,-53.811L-929.212,-54.082L-927.843,-53.463L-927.269,-50.906L-925.156,-51.714L-923.084,-51.712L-922.609,-50.534L-921.664,-50.248L-919.127,-48.342L-919.208,-46.706L-920.197,-45.138L-919.458,-43.463L-920.061,-41.469L-919.029,-39.395L-918.819,-37.36L-917.828,-34.467L-916.781,-33.117L-916.873,-30.76L-914.86,-29.527L-913.053,-26.597L-913.229,-25.307L-911.874,-23.651L-912.827,-23.213L-914.817,-21.433L-918.381,-21.986L-919.404,-23.75L-920.289,-22.877L-920.681,-21.231L-919.988,-18.741L-920.72,-16.995L-919.717,-14.825L-920.221,-13.156L-919.235,-12.594L-917.622,-12.468L-917.347,-13.882L-916.077,-14.481L-913.136,-12.403L-909.764,-11.384L-907.834,-11.785L-906.346,-11.233L-906.263,-7.894L-905.232,-6.343L-906.439,-5.098L-905.353,-2.183L-901.543,-1.6L-900.556,-0.062L-900.782,1.369L-899.605,1.932L-900.15,3.736L-900.086,6.083L-897.973,9.879L-896.384,8.907L-894.836,10.465L-893.191,10.498L-891.85,11.212L-889.106,10.18L-888.021,10.352L-887.526,14.023L-885.871,15.919L-885.645,17.383L-884.471,16.754L-882.253,17.992L-880.516,18.573L-879.51,19.703L-878.018,19.895L-876.622,21.458L-874.75,22.437L-873.451,21.742L-873.343,23.43L-872.594,24.227L-873.081,25.996L-874.615,27.133L-876.076,27.006L-877.364,29.72L-875.87,31.624L-876.154,33.606L-877.692,35.778L-877.958,37.512L-879.415,38.056L-882.648,37.283L-884.76,39.13L-885.724,39.255L-887,42.107L-886.995,42.185L-886.701,42.171L-885.434,42.825L-883.687,42.268L-881.869,42.543L-881.678,43.363L-882.331,44.25L-886.325,45.058L-888.067,45.618L-887.613,46.455L-886.77,46.71L-887.9,47.404L-889.409,46.624L-891.736,46.246L-891.427,48.459L-890.765,49.691L-889.891,49.304L-889.748,50.106L-888.526,50.91L-888.692,51.457L-889.601,51.401L-890.387,52.031L-891.238,51.614L-891.937,51.945L-892.087,52.443L-893.902,53.413L-894.31,54.762L-893.796,55.404L-894.668,57.204L-895.904,56.616L-896.261,56.722L-897.068,55.609L-898.404,54.827L-898.637,55.408L-898.425,56.507L-899.551,56.651L-900.675,57.13L-899.192,57.795L-898.428,57.971L-897.088,60.006L-897.29,61.033L-896.297,62.962L-893.795,63.5L-891.721,65.811L-890.12,66.782L-886.823,71.148L-886.454,73.002L-885.377,73.759L-885.224,74.674L-884.444,75.886L-883.418,76.252L-883.288,77.266L-882.191,78.142L-881.499,78.351L-880.919,80.214L-879.685,80.805L-879.145,81.347L-878.312,81.11L-877.056,83.064L-877.21,83.943L-875.675,84.624L-874.945,87.234L-874.449,88.469L-874.927,91.314L-874.415,93.75L-875.087,94.364L-875.128,95.385C-872.688,96.137 -866.544,97.876 -866.277,96.425L-865.943,94.614L-858.466,96.595C-858.466,96.595 -857.462,98.586 -856.175,99.043C-854.881,99.503 -848.102,98.686 -848.102,98.686C-848.102,98.686 -846.529,99.414 -846.327,100.788C-846.147,102.038 -844.437,102.118 -844.129,102.123L-843.922,101.797L-842.081,102.561L-839.788,105.949L-839.418,107.823L-836.471,109.027L-835.555,108.059L-833.336,107.585L-830.304,105.569L-830.213,105.468L-830.673,104.864L-833.323,100.96L-834.87,97.176L-834.727,95.152L-835.377,93.714L-834.947,91.773L-835.057,90.756L-835.031,89.987L-835.933,89.715L-835.449,88.618L-834.867,89.107L-834.161,87.971L-833.313,87.04L-834.085,86.857L-834.934,87.274L-836.167,85.867L-835.509,83.688L-836.622,82.936L-837.162,81.633L-838.041,81.626L-839.089,81.156L-839.02,78.691L-838.232,77.633L-837.365,77.325L-836.635,74.908L-835.794,74.021L-834.95,72.776L-834.097,72.514L-833.371,71.132L-832.468,70.273L-832.168,69.451L-831.576,69.89L-831.096,70.611L-830.484,70.483L-829.968,69.806L-829.588,70.518L-828.795,70.213L-827.92,70.477L-826.812,70.085L-826.838,69.48L-827.679,68.836L-827.045,68.973C-827.045,68.973 -826.699,69.364 -826.53,69.416C-826.363,69.466 -825.432,69.461 -825.432,69.461L-825,70.266L-824.394,69.984L-824.433,69.169L-826.002,67.501L-825.091,67.564L-823.979,68.265L-823.451,68.246L-822.488,68.82L-822.25,68.034L-822.744,67.444L-822.018,67.611L-821.819,66.868L-822.236,66.195L-821.184,66.305L-820.902,65.637L-820.678,65.137L-820.621,65.148L-820.616,65.131L-821.915,63.606L-823.797,63.661L-825.728,61.317L-825.256,60.269L-822.744,61.028L-824.052,55.768L-826.228,52.004L-830.138,49.528L-830.963,50.364L-832.551,47.917L-831.819,47.053L-832.401,44.86L-834.793,43L-833.11,41.025L-831.303,37.117L-832.002,35.818L-831.357,32.494L-829.891,32.264L-827.48,30.611L-826.979,28.953L-825.653,28.007L-823.104,32.244L-823.032,33.558L-821.419,35.394L-819.32,35.821L-818.951,33.756L-817.948,33.336L-817.874,27.612L-815.764,27.992L-813.628,28.637L-813.155,27.072L-813.748,25.599L-812.861,24.213L-810.542,23.564L-809.633,23.791L-808.481,22.222L-807.259,21.759L-805.994,22.557L-805.449,21.427L-805.421,20.145L-804.833,19.388L-803.23,21.114L-801.865,22.252L-802.31,23.051L-803.545,23.87L-803.08,24.734L-801.63,24.394L-801,23.498L-799.927,23.203L-800.221,24.354L-799.093,23.709L-798.664,22.962L-797.34,23.206L-795.679,22.672L-794.476,22.986L-794.297,24.955L-793.127,26.394L-790.526,26.354L-789.451,26.733L-789.089,27.929L-788.344,28.202L-787.53,30.314L-786.11,30.743L-785.478,32.433L-784.045,34.37L-783.031,34.778L-782.782,35.838L-783.143,37.38L-782.46,37.848L-781.218,36.827L-780.856,35.122L-779.349,34.748L-778.832,36.302L-776.435,37.443L-776.049,38.906L-775.131,39.65L-773.151,38.901L-772.261,36.481L-770.843,36.753L-770.377,35.547L-769.229,35.531L-768.774,36.755L-767.874,35.839L-766.281,36.058L-764.919,38.386L-764.755,39.212L-762.848,39.58L-762.591,37.9L-761.456,37.88L-760.027,38.465L-759.044,37.781L-757.735,39.106L-756.927,39.868L-757.625,40.641L-758.784,40.859L-757.959,42.767L-756.89,43.505L-756.203,43.297L-755.463,44.092L-753.444,44.597L-751.502,46.577L-749.947,46.742L-748.87,45.567L-748.389,44.313L-747.538,43.898L-745.868,45.745L-744.076,46.495L-741.618,46.41L-740.673,45.507L-739.437,40.236L-739.918,39.573L-741.846,38.938L-742.777,37.571L-742.801,36.787L-744.168,36.013L-744.814,34.886L-746.381,34.413L-746.214,33.532L-746.395,32.594L-746.006,31.992L-744.778,32.206L-744.129,30.901L-742.773,30.016L-742.647,28.398L-743.598,27.953L-743.262,26.502L-741.149,24.81L-739.218,23.896L-736.375,24.446L-735.401,25.151L-734.482,24.86L-734.037,23.545L-735.204,22.782L-735.926,21.422L-736.988,21.152L-737.979,21.526L-739.138,20.557L-740.783,20.006L-740.665,19.109L-739.942,18.76L-738.17,19.24L-738.263,17.66L-739.995,17.398L-741.076,16.708L-740.261,16.234L-740.501,14.448L-739.896,14.164L-738.448,14.5L-737.539,13.893L-736.604,14.225L-736.392,15.071L-734.82,15.337L-733.888,16.551L-733.168,16.045L-732.924,15.237L-731.57,14.875L-730.399,15.276L-729.996,16.693L-729.123,16.026L-728.695,15.118L-726.203,15.097L-724.642,15.41L-722.74,15.109L-720.943,15.493L-720.435,15.025L-718.35,14.466L-716.723,14.908L-715.468,14.507L-714.489,14.701L-713.706,15.354L-713.04,15.037L-712.668,13.647L-711.712,13.213L-710.286,13.644L-709.841,12.846L-708.771,12.392L-708.263,13.27L-707.37,13.749L-705.919,13.407L-704.306,13.377L-700.938,12.325L-700.32,12.512L-699.573,12.273L-697.923,12.46L-696.664,11.548L-695.88,12.041L-694.012,12.192L-693.772,11.229L-694.086,10.046L-693.258,9.885L-691.476,10.317L-690.715,9.148L-689.328,8.846L-688.56,9.233L-687.464,9.202L-686.049,10.354L-684.193,10.713L-682.941,12.248L-681.362,12.701L-679.726,12.521L-678.404,13.047L-678.348,14.831L-677.952,15.395L-677.882,16.893L-677.328,18.312L-676.592,19.05L-676.669,19.832L-677.347,20.872L-677.459,22.193L-677.685,22.666L-678.792,22.645L-678.571,24.06L-677.959,24.87L-676.24,24.428L-675.475,25.571L-674.66,25.528L-674.037,24.341L-673.1,24.234L-673.076,25.693L-672.265,25.938L-671.796,24.965L-671.887,23.486L-671.375,23.328L-669.613,25.652L-669.993,27.849L-669.632,29.75L-668.829,29.915L-667.574,29.178L-668.203,28.624L-668.336,27.778L-666.795,27.904L-664.684,29.843L-663.829,30.101L-662.607,29.584L-661.997,30.211L-662.929,31.335L-663.953,31.805L-664.493,33.509L-663.965,34.943L-663.042,35.146L-662,34.445L-660.381,34.494L-657.939,35.934L-657.426,36.555L-656.449,36.228L-656.258,34.648L-654.882,34.571L-652.876,34.89L-651.392,34.431L-650.499,33.456L-649.256,32.946L-648.845,32.007L-646.958,31.019L-645.795,30.955L-644.463,30.212L-642.925,30.264L-641.08,30.247L-640.479,30.923L-640.878,32.076L-642.338,32.958L-643.462,32.905L-643.234,34.037L-634.077,46.505L-624.038,71.617L-622.342,71.83L-621.065,71.461L-620.546,70.765L-620.788,70.377L-620.396,68.911L-619.223,68.724L-617.595,70.198L-618.062,71.047L-618.218,71.984L-616.843,72.84L-616.188,74.105L-615.028,74.483L-613.947,74.159L-612.795,74.299L-611.386,75.734L-609.772,75.523L-608.748,76.094L-607.312,75.981L-606.802,75.483L-607.02,74.664L-606.579,74.048L-604.295,74.402L-601.964,75.106L-600.126,76.23L-598.609,78.247L-598.115,80.478L-597.891,82.202L-597.262,82.448L-596,83.244L-594.751,84.686L-594.273,84.83L-593.436,85.578L-593.593,86.362L-594.025,86.928L-594.315,87.985L-594.229,88.972L-593.774,89.786L-593.589,90.207L-592.986,90.36L-591.845,91.302L-590.991,92.081L-590.455,91.592L-589.232,91.338L-586.054,92.071L-584.508,92.074L-583.495,91.137L-582,90.813L-581.388,91.358L-582.445,92.802L-582.395,94.005L-581.521,94.525L-580.432,96.252L-578.693,97.506L-578.492,97.976L-577.681,98.234L-576.497,99.109L-575.935,99.292L-575.918,99.122L-574.143,97.016L-572.772,96.76L-569.778,97.817L-569.151,97.282L-567.642,96.394L-565.326,96.262L-564.825,94.965L-563.955,93.781L-562.005,93.49L-561.684,92.605L-560.276,91.888L-559.097,91.935L-557.811,90.926L-557.085,90.577L-557.636,89.841L-557.397,88.882L-556.797,88.436L-554.805,89.711L-553.758,89.513L-552.58,88.005L-551.41,87.893L-548.998,88.31L-547.614,88.365L-546.512,88.647L-545.024,89.201L-543.838,88.881L-543.521,89.033L-543.043,90.368L-543.132,91.168L-542.614,92.204L-541.212,92.526L-540.433,92.497L-539.273,92.959L-538.074,92.592L-535.949,93.082L-535.837,94.252L-535.925,95.416L-535.807,96.384L-533.139,99.207L-532.21,100.579L-530.167,102.383L-529.169,102.167L-527.696,102.095L-525.958,101.485L-524.773,101.683L-523.649,102.388L-522.863,103.402L-521.724,103.382L-518.891,104.29L-517.952,105.143L-516.679,105.375L-516.292,105.128L-515.13,105.739L-512.815,106.126L-510.985,104.507L-511.454,103.485L-512.508,102.182L-511.856,100.206L-510.83,98.186L-510.813,97.258L-511.916,96.46L-512.322,95.403L-514.111,94.296L-514.097,92.544L-513.075,89.329L-511.287,88.215L-510.986,87.219L-509.99,86.328L-508.789,86.279L-508.191,86.714L-507.386,85.768L-507.451,84.548L-506.948,83.583L-505.9,83.095L-504.632,83.555L-503.933,84.414L-502.335,85.394L-500.831,86.757L-500.726,87.285L-499.369,88.262L-497.766,88.898L-495.371,89.547L-494.649,90.416L-494.211,91.198L-492.572,91.874L-491.786,92.604L-490.701,93.142L-487.897,93.882L-486.982,94.627L-486.822,95.812L-487.08,96.666L-486.687,97.769L-486.974,98.717L-486.576,99.614L-486.353,101.287L-486.76,102.457L-486.155,103.362L-485.36,103.658L-484.396,105.24L-484.23,106.072L-482.458,107.212L-480.75,108.873L-479.837,109.203L-479.228,108.892L-477.261,109.591L-476.171,109.247L-475.21,109.588L-474.489,110.12L-473.555,110.114L-472.043,109.22L-469.984,109.192L-467.313,109.791L-465.715,109.392L-463.981,109.839L-462.198,109.856L-460.965,111.13L-459.078,111.909L-456.501,112.634L-455.747,114.932L-453.692,116.536L-451.785,117.063L-450.309,117.143L-449.832,117.965L-449.753,120.264L-448.695,121.566L-448.03,122.284L-447.234,122.736L-446.467,124.308L-445.488,124.658L-442.415,125.278L-440.036,126.823L-436.087,127.967L-434.352,128.232L-433.53,127.912L-432.06,128.356L-431.026,129.392L-430.239,129.527L-428.709,128.227L-425.812,127.552L-424.309,128.055L-422.893,127.14L-421.762,127.326L-418.739,128.29L-417.1,127.491L-416.284,126.338L-416.113,125.773L-414.906,124.686L-413.345,124.484L-412.097,123.776L-411.156,122.559L-409.872,121.913L-408.734,122.256L-408.423,122.764L-406.322,122.829L-405.129,123.346L-403.866,124.813L-403.451,126.18L-402.571,126.861L-401.137,126.57L-400.632,127.291L-399.428,127.604L-397.699,127.193L-397.455,126.543L-395.159,126.825L-392.917,128.328L-392.501,129.178L-391.691,129.16L-390.804,129.588L-390.73,130.102L-389.476,130.247L-387.632,131.088L-386.926,132.186L-386.151,132.289L-382.114,130.263L-380.304,129.669L-377.828,129.976L-376.505,129.284L-375.745,128.137L-375.594,126.701L-376,126.242L-376.64,126.464L-377,125.94L-377.628,125.616L-377.195,123.751L-376.668,123.314L-376.119,121.401L-376.241,120.088L-375.775,119.4L-374.862,119.211L-374.347,118.014L-374.884,116.966L-374.649,115.473L-374.199,114.836L-374.53,113.542L-374.108,112.48L-372.949,111.383L-371.939,110.961L-371.197,109.528L-369.953,108.508L-368.962,108.136L-368.396,106.598L-368.438,105.706L-368.137,104.709L-368.87,103.711L-369.019,102.32L-369.492,100.469L-370.242,100.034L-371.258,100.141L-372.998,100.599L-373.635,100.305L-373.902,99.652L-373.416,98.044L-372.817,97.601L-372.617,96.938L-371.891,96.431L-371.145,95.309L-369.85,94.459L-369.606,93.652L-368.709,93.254L-366.944,93.577L-366.053,93.537L-365.185,93.748L-364.874,93.585L-363.954,93.964L-362.828,93.838L-362.006,92.996L-360.872,93.339L-359.85,92.72L-358.504,93.384L-357.653,93.485L-356.289,93.953L-355.564,93.602L-355.045,93.759L-354.359,92.878L-352.391,93.214L-352.005,93.128L-351.3,93.544L-350.287,93.951L-349.586,94.89L-347.555,95.711L-346.922,96.68L-346.852,97.322L-345.334,97.781L-344.396,97.749L-344.103,98.306L-343.082,99.237L-342.491,99.157L-342.346,98.319L-341.61,98.128L-341.116,98.538L-340.168,98.824L-339.618,98.741L-339.167,99.693L-338.48,99.812L-337.727,100.404L-337.501,101.125L-337.876,101.765L-337.868,102.496L-337.135,102.745L-336.976,103.337L-336.156,103.013L-335.301,103.45L-335.275,104.134L-335.823,104.671L-335.687,105.331L-334.687,105.972L-334.015,106.073L-333.694,106.637L-333.858,107.263L-333.325,107.816L-333.105,108.712L-333.306,109.637L-333.21,110.522L-333.404,111.165L-333.275,111.674L-331.618,112.278L-331.645,113.075L-332.296,113.84L-332.368,114.593L-331.148,115.952L-330.931,117.212L-330.429,118.482L-330.48,119.505L-329.916,120.038L-329.821,121.262L-329.173,122.131L-329.393,122.691L-329.806,123.371L-329.494,123.699L-328.755,123.583L-328.447,124.794L-328.528,125.654L-327.78,127.72L-325.865,129.958L-325.811,131.318L-325.976,132.714L-325.633,133.288L-325.935,134.644L-325.308,135.3L-324.639,135.656L-324.698,136.884L-325.109,137.74L-324.788,139.235L-323.777,141.201L-322.804,141.909L-322.583,142.905L-321.774,143.305L-321.036,143.266L-320.486,143.847L-319.878,143.722L-318.562,144.327L-317.678,143.973L-316.776,144.246L-316.876,144.577L-317.575,144.99L-317.26,145.496L-315.833,146.084L-315.268,146.618L-315,147.269L-314.353,148.033L-314.002,147.57L-313.271,147.509L-312.639,147.904L-312.14,147.2L-311.446,147.306L-311.091,147.932L-311.051,148.749L-310.6,149.741L-309.919,150.05L-309.915,150.752L-309.403,151.534L-309.037,151.619L-308.635,152.417L-308.663,153.108L-307.43,154.18L-307.191,154.59L-306.57,154.854L-306.062,155.584L-305.21,156.021L-304.457,156.016L-303.653,156.179L-302.805,155.866L-302.247,155.907L-301.818,156.29L-302.224,157.106L-303.037,157.742L-303.261,158.663L-303.371,159.459L-302.258,159.717L-302.346,160.964L-302.268,162.159L-302.853,163.329L-303.281,163.616L-303.569,164.569L-302.779,166.519L-302.318,167.048L-301.681,168.697L-301.546,169.465L-300.436,169.489L-299.363,169.109L-298.446,169.414L-298.109,170.448L-298.041,171.432L-297.142,171.366L-296.432,170.987L-295.573,171.505L-294.862,171.461L-292.909,171.687L-291.847,171.175L-291.062,171.075L-290.943,170.331L-290.269,169.207L-289.275,169.017L-288.958,167.969L-288.269,167.138L-287.401,167.271L-286.068,167.674L-285.31,166.45L-284.575,166.514L-283.848,166.501L-283.38,165.552L-282.445,165.133L-281.334,165.313L-280.468,164.85L-279.367,165.693L-278.826,166.475L-277.751,166.856L-277.583,167.683L-277.283,169.069L-278.128,169.484L-278.092,170.219L-277.359,171.734L-277.506,172.726L-277.093,173.581L-276.427,174.294L-277.128,175.583L-277.516,176.709L-277.934,177.143L-278.986,177.032L-280.225,177.858L-280.403,178.447L-280.08,179.43L-279.868,179.859L-280.295,180.923L-280.963,181.764L-280.739,182.478L-280.27,183.062L-280.562,183.778L-280.413,184.315L-280.515,184.833L-280.887,185.032L-281.366,185.068L-281.737,186.643L-281.651,188.151L-281.501,188.949L-281.659,189.473L-282.448,189.755L-282.976,190.553L-282.756,191.373L-282.979,192.111L-282.83,192.832L-283.871,193.009L-284.176,193.335L-283.995,194.116L-284.094,195.204L-284.664,195.549L-285.631,196.686L-285.688,197.475L-285.657,198.237L-286.048,198.666L-286.157,199.384L-285.978,200.244L-286.106,201.27L-286.826,201.756L-287.561,201.534L-288.138,201.137L-292.104,199.114L-292.825,198.538L-293.801,197.944L-294.35,197.918L-296.125,199.421L-296.67,200.232L-297.556,200.877L-298.333,200.718L-299.302,200.998L-299.764,201.506L-299.623,202.744L-298.802,205.614L-298.789,206.686L-298.604,207.624L-298.088,209.001L-298.496,210.172L-298.833,211.814L-299.027,212.951L-299.709,215.21L-299.117,216.011L-299.374,217.209L-299.687,218.411L-300.209,218.93L-300.521,219.794L-300.531,220.522L-300.902,221.656L-301.391,221.637L-302.906,220.995L-303.802,221.221L-304.025,221.697L-304.146,222.907L-303.739,223.382L-303.965,224.132L-304.21,224.437L-303.569,226.362L-303.182,226.513L-302.146,224.709L-300.362,224.923L-300,225.684L-298.786,223.658L-297.762,223.316L-296.891,220.97L-295.413,220.386L-295.098,219.177L-294.488,218.602L-293.364,219.919L-291.561,219.702L-291.012,220.574L-291.57,222.957L-289.694,224.124L-288.041,226.036L-287.071,225.515L-286.53,226.602L-284.57,225.507L-282.637,225.77L-282.117,224.944L-281.155,225.183L-279.646,223.792L-276.648,221.764L-276.834,220.946L-275.081,220.716L-274.614,219.172L-274.689,217.629L-273.784,218.227L-273.79,218.606L-271.583,216.882L-271.854,215.441L-271.097,215.453L-270.626,213.37L-269.236,213.08L-268.787,211.752L-266.631,211.096L-266.189,210.528L-266.586,209.863L-265.872,208.393L-264.984,208.173L-262.041,202.922L-260.17,201.588L-259.712,200.419L-258.006,199.631L-257.24,198.18L-255.061,196.722L-254.553,195.406L-255.142,195.008L-255.062,193.132L-253.25,192.158L-253.056,189.012L-251.489,187.964L-251.288,186.94L-251.806,186.674L-250.213,184.818L-249.755,183.111L-248.142,182.293L-247.409,180.395L-247.699,180.09L-247.289,177.825L-245.807,175.987L-245.087,174.142L-242.589,172.724L-242.167,170.949L-242.438,169.505L-241.936,167.487L-241.333,167.125L-240.82,165.596L-241.845,165.394L-241.332,162.074L-240.929,161.268L-241.106,160.242L-240.205,157.796L-241.429,155.198L-242.026,155.017L-242.328,153.675L-241.6,153.246L-240.09,151.854L-240.059,151.211L-241.511,151.698L-242.498,151.182L-242.53,146.443L-242.15,145.364L-242.066,144.358L-241.579,141.842L-240.856,141.083L-240.956,137.63L-239.87,136.922L-240.433,136.267L-239.939,135.708L-239.566,134.843L-239.979,134.228L-238.876,133.097L-239.079,131.785L-238.645,130.888L-237.652,130.478L-238.445,129.151L-238.168,127.5L-237.347,126.928L-237.243,125.709L-238.315,126.203L-239.321,125.572L-240.32,124.02L-239.832,122.593L-238.817,121.922L-238.551,120.695L-239.617,117.932L-240.585,117.692L-241.437,115.857L-240.378,115.583L-239.947,114.516L-238.918,113.63L-239.382,111.201L-240.164,111.019L-240.695,109.721L-241.707,109.226L-241.818,108.243L-244.356,106.339L-244.759,105.24L-246.496,104.447L-247.125,103.662L-247.389,101.847L-248.092,100.689L-249.574,100.104L-250.695,98.441L-252.561,99.147L-253.871,98.911L-254.662,99.568L-255.415,99.34L-255.724,98.596L-255.449,98.033L-256.471,96.938L-257.771,96.595L-257.809,99.025L-257.056,100.581L-257.949,101.556L-257.896,103.981L-258.94,105.626L-259.949,105.919L-259.557,104.244L-258.808,102.678L-259.062,100.645L-259.85,101.442L-259.99,102.81L-261.139,104.633L-262.966,105.116L-266.038,104.673L-266.26,103.955L-264.913,103.276L-264.168,103.502L-263.747,101.568L-262.841,100.753L-262.133,100.368L-263.533,99.784L-264.486,100.255L-264.76,99.358L-265.761,99.437L-266.75,100.55L-267.709,100.859L-268.031,100.649L-269.258,101.476L-270.514,99.523L-269.755,97.904L-269.683,95.697L-270.575,93.254L-269.552,89.868L-271.119,89.829L-271.672,89.5L-272.988,89.914L-274.099,89.965L-276.095,90.662L-277.36,90.172L-278.159,88.843L-279.57,88.93L-280.538,87.739L-280.892,86.308L-279.867,85.341L-279.08,84.064L-277.199,82.453L-276.898,81.457L-274.548,80.316L-273.785,78.16L-271.298,77.116L-270.737,75.439L-270.017,75.382L-269.902,74.657L-268.072,73.088L-267.375,71.673L-265.99,70.515L-266.087,68.857L-265.393,68.193L-264.774,65.776L-263.064,62.814L-262.565,62.965L-261.484,60.629L-260.271,60.399L-260.133,58.864L-257.68,57.215L-256.967,55.584L-255.386,55.03L-255.455,52.561L-254.658,52.261L-254.145,50.734L-253.149,50.491L-252.56,50.722L-252.175,49.261L-252.476,48.086L-251.588,45.527L-251.492,43.764L-249.912,41.959L-247.312,40.354L-246.096,37.95L-246.994,34.799L-246.292,33.383L-244.703,32.611L-243.932,31.324L-241.001,30.254L-240.259,29.064L-239.383,29.22L-238.771,30.437L-237.307,30.607L-234.461,29.459L-232.485,29.947L-230.184,29.339L-228.867,29.846L-227.238,29.304L-226.11,29.701L-224.918,29.897L-224.022,29.08L-223.1,30.177L-224.083,31.451L-223.244,32.088L-222.394,33.596L-221.358,32.494L-220.04,31.914L-221.497,29.899L-221.301,29.251L-219.567,28.906L-217.134,30.022L-215.842,29.707L-213.197,30.668L-213.034,31.749L-212.387,31.945L-211.396,31.375L-210.446,31.824L-210.468,30.623L-209.488,30.266L-207.38,31.013L-206.816,32.38L-203.977,32.148L-203.676,31.154L-204.334,30.465L-205.018,30.749L-206.354,29.419L-204.896,28.175L-204.882,29.213L-202.764,29.041L-204.177,27.417L-203.868,26.586L-203.007,26.79L-200.631,25.227L-198.771,25.898L-198.002,26.947L-196.789,26.714L-194.629,28.018L-192.794,28.413L-193.138,29.014L-192.473,29.867L-191.551,29.873L-191.811,28.76L-189.838,29.248L-188.054,30.17L-186.905,30.677L-185.945,32.002L-186.026,32.628L-184.472,33.425L-182.998,32.675L-182.013,33.19L-181.956,34.076L-184.754,35.075L-186.796,34.458L-187.507,35.009L-187.764,36.396L-188.857,36.066L-189.397,36.608L-188.955,37.123L-187.913,37.438L-186.894,40.355L-186.152,39.872L-183.977,39.878L-182.8,39.038L-182.95,38.449L-181.409,38.208L-181.983,36.514L-181.187,36.755L-180.056,38.942L-179.153,39.38L-178.302,38.712L-178.716,37.934L-177.653,37.555L-176.75,36.882L-176.35,37.004L-175.931,35.882L-175.89,34.944L-174.896,34.869L-174.294,35.668L-173.214,35.402L-172.707,36.232L-172.84,37.305L-172.089,38.044L-169.838,36.883L-170.437,35.915L-170.164,35.538L-168.954,35.2L-168.148,35.851L-167.163,35.552L-166.335,35.964L-165.892,35.391L-166.661,33.806L-166.271,33.41L-166.16,32.687L-167.337,31.733L-167.931,31.014L-168.159,31.241L-168.228,31.816L-168.971,31.591L-169.95,30.617L-170.358,30.712L-170.437,31.418L-171.671,31.022L-172.332,31.335L-173.204,30.449L-172.515,29.411L-171.786,29.252L-172.822,26.31L-171.527,25.806L-172.237,23.75L-170.928,21.651L-170.43,20.205L-169.105,19.305L-168.375,17.332L-166.707,16.374L-166.285,14.903L-166.593,14.565L-165.099,14.478L-166.178,12.116L-164.109,7.702L-162.766,7.104L-163.543,4.841L-163.276,3.051L-163.974,2.135L-163.677,1.523L-162.24,0.982L-161.875,-0.861L-160.913,-1.085L-158.77,-2.982L-157.273,-2.288L-156.328,-2.625L-155.509,-2.026L-154.512,-2.807L-152.07,-2.206L-151.706,-2.769L-150.628,-2.746L-149.977,-3.929L-149.405,-3.756L-148.821,-4.067L-147.284,-3.602L-147.386,-2.275L-146.663,-2.52L-146.204,-2.245L-145.917,-0.402L-145.424,-0.253L-143.918,-1.286L-143.546,-2.962L-142.605,-2.946L-141.85,-4.454L-141.251,-4.384L-141.208,-3.177L-140.113,-1.786L-140.493,-0.169L-141.065,0.28L-140.694,1.127L-140.627,2.444L-141.784,3.123L-141.306,3.678L-141.349,5.182L-141.755,5.167L-142.063,6.184L-141.852,6.845L-142.678,7.513L-143.211,7.921L-142.981,8.696L-141.515,7.975L-141.35,9.027L-140.128,9.747L-140.612,12.149L-139.786,11.83L-139.423,10.827L-137.939,10.11L-137.074,10.482L-136.723,11.374L-138.395,12.978L-137.547,14.375L-137.564,15.97L-136.181,14.247L-135.056,13.938L-134.792,13.147L-134.053,12.504L-132.976,9.202L-131.831,8.542L-132.492,7.423L-131.083,6.713L-130.692,5.69L-131.067,5.226L-130.885,4.791L-130.308,4.588L-129.364,2.707L-129.915,1.675L-128.594,-0.094L-127.346,-0.557L-125.43,-0.439L-125.275,0.744L-124.525,1.864L-123.792,1.218L-124.35,0.021L-123.69,-1.266L-125.343,-2.794L-125.194,-5.708L-125.914,-6.465L-125.796,-7.215L-126.747,-8.534L-126.593,-10.573L-125.909,-10.961L-125.793,-12.416L-126.907,-14.021L-126.403,-15.066L-126.791,-15.912L-124.559,-17.029L-123.165,-16.714L-121.557,-17.746L-119.891,-17.159L-119.225,-17.476L-117.788,-15.333L-115.954,-14.86L-115.335,-14.296L-114.038,-13.74L-113.188,-13.699L-115.143,-13.233L-114.519,-12.34L-116.006,-12.275L-117.412,-13.078L-119.732,-11.775L-120.177,-10.828L-119.955,-8.972L-120.265,-7.577L-119.671,-6.582L-119.772,-5.532L-118.819,-3.396L-118.952,-2.682L-118.828,-2.482L-119.311,-2.033L-118.119,-1.048L-118.244,0.622L-118.495,1.358L-119.247,1.864L-119.887,5.08L-119.474,5.398L-118.73,4.644L-118.291,4.886L-117.946,6.453L-117.701,7.422L-119.068,9.176L-119.883,11.692L-119.101,12.769L-118.089,12.478L-116.902,13.028L-116.736,13.646L-117.265,14.407L-118.028,14.151L-119.549,14.717L-119.965,14.566L-122.08,15.633L-122.615,16.856L-124.397,17.319L-124.87,17.883L-125.997,17.945L-126.529,19.171L-127.533,19.975L-127.512,21.769L-126.466,21.732L-127.116,23.514L-128.879,25.229L-128.883,26.149L-128.319,26.778L-129.607,29.453L-129.828,31.688L-130.73,32.42L-132.41,32.532L-133.01,33.791L-132.595,34.483L-133.684,36.917L-134.285,37.387L-134.331,38.51L-133.479,40.095L-134.484,39.764L-135.562,41.847L-135.342,42.729L-135.838,44.371L-137.295,45.233L-136.918,46.87L-137.755,49.442L-137.644,52.139L-140.875,55.457L-140.241,57.33L-141.384,56.604L-143.715,56.227L-144.482,58.765L-144.447,59.915L-146.374,61.074L-148.584,59.047L-150.238,59.853L-150.428,60.827L-148.736,61.338L-147.286,65.528L-148.409,68.717L-149.199,69.351L-148.723,70.472L-149.89,70.552L-150.914,72.699L-152.915,74.019L-154.023,76.645L-153.623,79.27L-154.411,84.037L-153.487,87.471L-154.18,89.766L-153.277,97.219L-151.898,105.255L-149.996,112.086L-148.877,114.486L-149.378,116.509L-146.378,123.356L-144.092,134.08L-142.114,135.983L-140.388,136.558L-139.193,136.377L-140.018,137.324L-141.297,137.588L-142.212,137.202L-141.327,140.405L-140.495,146.796L-140.898,149.227L-140.124,151.69L-137.626,152.769L-137.495,153.786L-137.95,155.114L-137.907,156.216L-138.577,157.536L-136.261,154.92L-134.692,152.245L-134.219,152.113L-133.666,150.818L-131.65,149.9L-130.992,148.797L-131.108,148.108L-130.23,147.181L-128.922,144.477L-129.309,143.058L-128.57,141.161L-127.181,140.495L-127.999,138.89L-128.862,139.062L-129.651,138.607L-128.901,137.747L-129.225,135.585L-128.556,136.059L-127.859,135.564L-128.764,133.88L-128.203,133.121L-127.427,131.782L-128.851,131.46L-129.434,130.525L-128.345,129.439L-127.366,130.878L-124.888,129.67L-123.947,130.171L-122.537,129.454L-121.051,129.035L-120.74,129.618L-119.292,130.22L-119.849,128.64L-121.453,127.12L-120.857,125.508L-122.347,123.969L-122.45,119.811L-120.648,116.714L-121.391,115.242L-120.307,114.698L-119.535,113.032L-117.57,110.856L-117.921,110.039L-116.999,110.589L-114.452,109.894L-114.365,110.681L-110.032,110.362L-109.668,108.622L-108.454,107.848L-109.691,106.55L-110.987,102.734L-111.981,102.434L-113.852,96.38L-113.417,95.32L-114.078,94.084L-112.832,89.413L-112.347,88.904L-112.264,86.649L-110.868,85.443L-110.461,84.096L-112.112,83.977L-112.216,83.077L-110.417,81.612L-109.048,81.749L-108.748,80.755L-109.044,80.123L-107.958,79.583L-107.983,80.933L-108.628,82.528L-109.636,83.693L-110.059,85.63L-108.289,86.98L-106.973,88.735L-105.973,88.658L-105.328,86.896L-104.475,86.23L-104.894,83.822L-107.049,80.346L-106.082,77.326L-107.265,76.206L-107.504,75.755L-108.069,76.181L-109.354,76.663L-109.521,77.371L-110.362,77.659L-111.457,76.244L-110.65,73.935L-111.159,72.202L-111.641,69.394L-110.351,68.539L-109.757,68.282L-109.779,67.088L-108.618,66.111L-109.157,64.861L-108.601,64.191L-108.323,62.999L-109.102,62.255L-110.259,62.147L-111.987,59.782L-113.322,59.272L-114.496,59.754L-114.675,60.706L-113.595,63.06L-114.147,64.163L-114.829,64.449L-116.221,63.217L-117.274,60.352L-118.103,58.774L-118.908,57.772L-118.194,57.284L-118.549,54.604L-118.151,53.203L-117.87,52.451L-118.133,50.909L-117.385,50.131L-117.454,47.944L-116.337,47.115L-116.11,45.912L-115.284,44.533L-114.872,43.17L-115.696,43.38L-116.561,41.576L-116.232,41.108L-115.214,41.059L-114.262,42.217L-113.999,41.703L-114.722,40.59L-115.475,39.331L-114.786,38.567L-114.287,38.717L-114.281,37.794L-114.961,36.452L-116.199,35.616L-116.25,34.629L-115.525,34.578L-115.381,32.911L-116.169,31.21L-115.651,30.147L-114.886,29.132L-114.068,28.837L-114.555,27.309L-114.125,26.519L-113.169,26.781L-112.071,27.92L-111.246,27.894L-110.129,26.169L-109.087,26.322L-108.725,27.464L-108.042,27.722L-107.481,29.468L-105.205,26.951L-106.484,25.969L-105.841,24.747L-104.601,24.417L-102.161,22.112L-101.562,20.658L-100.96,22.257L-99.959,23.264L-100.296,24.74L-99.979,29.453L-99.449,30.754L-98.636,30.402L-97.137,27.052L-96.347,26.04L-96.191,24.46L-95.107,23.591L-95.569,21.495L-94.48,22.582L-93.331,22.009L-91.948,19.764L-90.638,20.106L-88.702,18.734L-87.184,18.757L-86.653,19.518L-84.043,18.783L-82.305,19.689L-79.442,22.783L-79.537,24.001L-78.582,24.455L-77.365,24.547L-76.82,25.094L-77.554,25.363L-76.31,28.072L-75.415,27.639L-74.62,29.126L-72.999,29.346L-72.063,30.01L-71.779,28.902L-72.952,25.776L-72.215,25.13L-72.373,24.21L-73.127,23.66L-72.62,22.507L-71.524,21.589L-70.095,18.652L-68.505,16.635L-68.539,15.482L-66.543,13.912L-66.771,12.867L-65.776,12.459L-66.077,10.032L-66.822,9.261L-66.611,8.566L-64.723,8.975L-63.642,7.725L-65.314,6.242L-65.692,4.985L-64.755,4.942L-64.266,5.849L-63.316,5.92L-62.7,4.967L-63.059,3.826L-61.398,3.185L-61.185,2.11L-61.692,0.925L-60.55,0.727L-59.874,1.365L-59.029,0.372L-58.468,-0.223L-58.974,-1.077L-57.783,-1.044L-55.826,-2.138L-56.137,-3.268L-55.482,-4.53L-54.975,-3.511L-53.242,-4.401L-53.517,-6.547L-52.944,-8.441L-51.866,-8.057L-51.767,-7.649L-50.797,-8.171L-48.038,-10.107L-48.794,-10.661L-48.385,-11.844L-47.171,-11.533L-44.313,-12.898L-45.079,-13.78L-44.418,-14.174L-42.79,-13.631L-40.311,-14.292L-40.607,-15.472L-40.092,-15.913L-39.479,-15.234L-39.581,-14.022L-38.503,-13.259L-37.377,-13.571L-36.202,-12.236L-31.374,-10.777L-30.753,-9.776L-30.028,-9.826L-30.209,-11.732L-31.27,-12.923L-31.075,-13.566L-30.087,-13.592L-29.047,-17.571L-29.975,-20.789L-31.314,-21.573L-32.284,-24.472L-31.043,-25.187L-32.319,-27.255L-35.099,-28.854L-37.443,-31.684L-37.951,-33.955L-38.678,-32.813L-39.504,-33.501L-40.122,-33.25L-40.823,-31.834L-42.302,-31.797L-42.541,-32.787L-41.955,-34.188L-40.325,-34.726L-40.919,-36.372L-40.48,-36.731L-39.634,-36.475L-38.91,-35.28L-40.298,-40.208L-41.756,-42.222L-42.444,-40.314L-42.561,-39.747L-43.483,-39.92L-45.165,-42.982L-44.64,-44.183L-43.408,-43.591L-43.679,-44.865L-46.269,-48.695L-46.82,-49.022L-46.758,-47.972L-47.637,-47.045L-49.554,-47.348L-50.683,-49.376L-52.19,-50.318L-53.061,-53.356L-52.806,-54.201L-53.444,-55.156L-54.628,-55.185L-57.23,-53.96L-57.455,-53.216L-58.508,-53.861L-59.568,-53.579L-60.543,-50.886L-60.024,-49.917L-61.072,-50.939L-61.176,-53.471L-60.106,-55.211L-61.785,-56.86L-61.906,-58.798L-62.472,-59.076L-61.23,-58.866L-60.424,-57.045L-59.968,-58.376L-58.462,-57.974L-57.538,-56.885L-55.433,-57.549L-55.725,-58.941L-58.773,-61.465L-60.035,-60.377L-61.86,-60.984L-63.112,-62.087L-61.681,-61.61L-60.013,-62.841L-58.775,-62.807L-57.913,-61.773L-56.277,-61.043L-55.066,-59.501L-53.774,-56.939L-52.427,-56.371L-52.101,-54.911L-51.185,-54.362L-49.487,-54.934L-49.01,-53.816L-45.285,-55.186L-45.083,-54.58L-45.81,-53.448L-44.405,-53.948L-43.924,-55.537L-41.598,-57.494L-41.72,-58.513L-41.132,-60.292L-41.015,-63.029L-38.628,-67.027L-37.775,-69.829L-38.569,-71.679L-38.572,-73.46L-40.023,-75.475L-40.266,-77.716L-39.661,-77.475L-38.947,-75.53L-38.668,-75.47L-38.586,-77.45L-39.997,-78.798L-41.695,-78.633L-44.135,-80.157L-46.473,-85.601L-47.206,-86.315L-46.752,-87.099L-44.775,-86.635L-43.831,-87.896L-44.383,-89.198L-45.942,-89.696L-46.38,-90.395L-45.337,-90.791L-45.565,-92.724L-45.248,-92.794L-44.324,-90.562L-42.614,-88.773L-41.989,-89.587L-42.531,-90.754L-42.076,-91.807L-42.214,-92.961L-41.354,-93.407L-40.878,-92.367L-40.703,-91.338L-39.621,-90.522L-40.108,-87.203L-40.624,-86.224L-38.135,-82.789L-36.727,-83.149L-35.479,-82.171L-36.117,-79.794L-34.909,-79.4L-31.472,-82.072L-30.536,-83.472L-30.666,-85.109L-29.596,-87.657L-29.586,-89.037L-29.28,-87.535L-29.641,-85.802L-28.829,-85.719L-27.364,-86.523L-24.949,-86.443L-24.239,-87.718L-22.229,-86.3L-22.699,-85.925L-22.452,-85.309L-19.977,-82.017L-19.603,-81.548L-19.557,-79.72L-19.884,-79.005L-19.284,-78.389L-16.324,-78.229L-15.934,-77.73L-16.128,-77.085L-15.735,-76.966L-14.313,-77.89L-14.613,-79.151L-14.246,-79.471L-13.458,-79.203L-13.234,-81.007L-12.295,-80.531L-12.045,-79.482L-12.675,-78.641L-11.389,-78.253L-10.074,-78.56L-7.097,-77.391L-6.418,-76.592L-5.341,-76.406L-5.16,-75.753L-4.542,-75.458L-3.258,-76.103L-3.222,-78.753L-2.862,-78.32L-2.068,-75.744L0.035,-76.033L0.354,-76.913L0,-78.974Z" style="fill:rgb(237,237,237);fill-rule:nonzero;"/>
        </g>
    </g>
</svg>
