<?xml version="1.0" encoding="UTF-8" standalone="no"?>
<!DOCTYPE svg PUBLIC "-//W3C//DTD SVG 1.1//EN" "http://www.w3.org/Graphics/SVG/1.1/DTD/svg11.dtd">
<svg width="100%" height="100%" viewBox="0 0 2718 2013" version="1.1" xmlns="http://www.w3.org/2000/svg" xmlns:xlink="http://www.w3.org/1999/xlink" xml:space="preserve" xmlns:serif="http://www.serif.com/" style="fill-rule:evenodd;clip-rule:evenodd;stroke-linejoin:round;stroke-miterlimit:2;">
    <g transform="matrix(1,0,0,1,-1478.83,-989.726)">
        <g transform="matrix(4.16667,0,0,4.16667,-1633.09,-1119.66)">
            <clipPath id="_clip1">
                <rect x="753.734" y="516.768" width="600" height="460.714" clip-rule="nonzero"/>
            </clipPath>
            <g clip-path="url(#_clip1)">
                <g transform="matrix(1,0,0,1,1340.51,660.16)">
                    <path d="M0,-1.878L-0.078,-2.477C-0.389,-4.862 0.231,-7.276 1.654,-9.215L12.085,-23.432L17.234,16.387L10.345,21.554L2.658,6.632C1.287,3.97 0.388,1.091 0,-1.878" style="fill:rgb(178,178,178);fill-rule:nonzero;"/>
                </g>
                <g transform="matrix(1,0,0,1,1356.82,796.027)">
                    <path d="M0,-91.484C0.311,-89.099 -19.55,26.975 -19.55,26.975L-25.674,25.955L-5.856,-111.651L4.944,-118.459L0,-91.484Z" style="fill:rgb(178,178,178);fill-rule:nonzero;"/>
                </g>
                <g>
                    <text x="957.612px" y="831.511px" style="font-family:'ArialMT', 'Arial', sans-serif;font-size:9.845px;fill:rgb(45,44,43);">С<tspan x="964.887px 972.925px 979.873px 986.82px 993.215px 1000.71px 1006.82px 1014.28px " y="831.511px 831.511px 831.511px 831.511px 831.511px 831.511px 831.511px 831.511px ">ОВЕТСКИЙ</tspan></text>
                    <text x="972.074px" y="843.326px" style="font-family:'ArialMT', 'Arial', sans-serif;font-size:9.845px;fill:rgb(45,44,43);">Р<tspan x="978.771px 986.126px 993.99px 1002.44px " y="843.326px 843.326px 843.326px 843.326px ">АЙОН</tspan></text>
                </g>
                <g>
                    <clipPath id="_clip2">
                        <rect x="753.734" y="516.768" width="600" height="460.714" clip-rule="nonzero"/>
                    </clipPath>
                    <g clip-path="url(#_clip2)">
                        <g transform="matrix(-0.944003,-0.329938,-0.329938,0.944003,1350.31,836.264)">
                            <path d="M-34.003,24.272L7.756,24.272L9.148,7.529L-38.05,6.944L-34.003,24.272Z" style="fill:rgb(178,178,178);fill-rule:nonzero;"/>
                        </g>
                        <g transform="matrix(-0.979906,-0.199461,-0.199461,0.979906,1270.04,841.797)">
                            <path d="M-34.765,14.103L12.543,14.103L14.172,6.098L-46.677,7.382L-34.765,14.103Z" style="fill:rgb(178,178,178);fill-rule:nonzero;"/>
                        </g>
                        <g transform="matrix(-1,0,0,1,1261.49,862.55)">
                            <path d="M-33.681,18.562L1.53,18.562L-3.063,0L-35.211,7.846L-33.681,18.562Z" style="fill:rgb(178,178,178);fill-rule:nonzero;"/>
                        </g>
                        <g transform="matrix(1,0,0,1,1397.49,739.697)">
                            <path d="M0,143.959C-6.807,141.706 -13.896,139.252 -20.751,136.878C-33.525,132.457 -46.733,127.883 -59.056,124.276C-59.609,124.114 -59.779,124.166 -60.411,124.355C-61.323,124.628 -62.704,125.042 -64.752,124.48C-101.026,114.54 -138.236,106.14 -174.222,98.016C-203.412,91.425 -233.597,84.611 -263.725,76.898C-322.576,61.832 -352.872,56.032 -387.951,49.317C-412.612,44.596 -440.565,39.245 -482.564,29.787C-508.51,23.943 -625.825,5.358 -649.479,5.358L-649.479,0C-623.953,0 -505.918,19.035 -481.389,24.56C-439.473,33.999 -411.565,39.341 -386.943,44.055C-351.778,50.786 -321.407,56.6 -262.396,71.708C-232.343,79.401 -202.195,86.207 -173.041,92.789C-136.998,100.926 -99.727,109.34 -63.336,119.313C-62.769,119.467 -62.578,119.411 -61.949,119.223C-61.023,118.946 -59.626,118.526 -57.551,119.134C-45.104,122.778 -31.832,127.372 -18.998,131.815C-12.16,134.183 -5.089,136.631 1.683,138.872L0,143.959Z" style="fill:rgb(198,198,198);fill-rule:nonzero;"/>
                        </g>
                        <g transform="matrix(1,0,0,1,1323.13,681.329)">
                            <path d="M0,177.262L-5.272,176.313L9.95,91.738L23.272,0L28.575,0.77L15.231,92.643L0,177.262Z" style="fill:rgb(198,198,198);fill-rule:nonzero;"/>
                        </g>
                        <g transform="matrix(1,0,0,1,1349.05,506.254)">
                            <path d="M0,178.14C-0.917,178.14 -1.81,177.669 -2.31,176.823C-5.79,170.932 -9.693,161.427 -14.214,150.42C-20.696,134.634 -28.045,116.741 -36.625,103.222C-37.726,101.489 -43.794,90.094 -53.658,71.531C-61.806,56.199 -71.041,38.82 -72.201,37.037C-78.796,26.908 -82.893,13.743 -82.893,2.679C-82.893,1.2 -81.692,0 -80.214,0C-78.734,0 -77.534,1.2 -77.534,2.679C-77.534,12.609 -73.679,24.947 -67.711,34.114C-66.511,35.958 -59.494,49.131 -48.927,69.017C-41.181,83.594 -33.17,98.667 -32.101,100.35C-23.268,114.268 -15.824,132.393 -9.258,148.384C-4.815,159.199 -0.98,168.539 2.305,174.098C3.057,175.371 2.634,177.015 1.36,177.767C0.933,178.02 0.463,178.14 0,178.14" style="fill:rgb(198,198,198);fill-rule:nonzero;"/>
                        </g>
                        <g transform="matrix(1,0,0,1,1159.21,682.254)">
                            <path d="M0,139.151C-0.031,139.151 -0.063,139.15 -0.096,139.147C-0.728,139.095 -1.198,138.541 -1.146,137.909C0.024,123.601 5.026,109.891 9.862,96.631C14.156,84.86 18.597,72.688 20.299,60.207C20.438,59.183 20.561,58.155 20.683,57.128C21.062,53.939 21.453,50.642 22.385,47.468C23.801,42.645 26.4,38.307 28.915,34.111C30.057,32.207 31.237,30.237 32.279,28.264C36.78,19.739 39.222,10.205 41.583,0.985C41.741,0.371 42.362,0 42.98,0.158C43.595,0.315 43.965,0.941 43.808,1.555C41.414,10.904 38.938,20.572 34.31,29.337C33.239,31.364 32.042,33.361 30.885,35.292C28.444,39.363 25.922,43.573 24.588,48.115C23.711,51.104 23.331,54.304 22.963,57.399C22.84,58.44 22.716,59.481 22.574,60.517C20.839,73.243 16.355,85.533 12.02,97.418C7.235,110.534 2.288,124.097 1.143,138.096C1.094,138.696 0.591,139.151 0,139.151" style="fill:rgb(198,198,198);fill-rule:nonzero;"/>
                        </g>
                        <g transform="matrix(1,0,0,1,1241.86,684.417)">
                            <path d="M0,156.683C-0.047,156.683 -0.095,156.681 -0.143,156.674C-0.772,156.596 -1.22,156.023 -1.141,155.393C1.7,132.453 4.88,110.106 12.473,88.907L21.815,62.822L21.998,62.64C24.532,60.111 32.087,58.652 40.965,57.138L41.605,57.028C42.838,56.818 43.975,56.756 44.978,56.701C48.009,56.535 48.996,56.374 49.579,54.09C49.681,53.696 49.85,52.869 50.048,51.912C50.692,48.772 51.224,46.295 51.696,45.339C52.068,44.583 53.543,42.916 57.135,39.191C57.41,38.906 57.625,38.684 57.747,38.554C59.458,36.742 60.674,27.175 61.651,19.488C62.644,11.672 63.502,4.922 64.946,2.403C65.514,1.413 67.019,1.105 69.43,0.714C70.026,0.618 70.82,0.489 71.146,0.387C71.46,0.099 71.925,0 72.344,0.167C72.934,0.401 73.223,1.068 72.988,1.658C72.646,2.519 71.694,2.674 69.797,2.981C68.927,3.122 67.337,3.38 66.884,3.646C65.694,5.883 64.797,12.945 63.929,19.777C62.547,30.648 61.487,37.938 59.417,40.13C59.291,40.264 59.071,40.492 58.789,40.785C55.707,43.981 54.013,45.856 53.755,46.356C53.377,47.122 52.7,50.41 52.297,52.374C52.085,53.401 51.918,54.212 51.804,54.659C50.775,58.683 47.892,58.841 45.102,58.994C44.115,59.047 43.095,59.103 41.992,59.292L41.352,59.401C35.692,60.367 26.312,61.966 23.795,64.104L14.635,89.681C7.121,110.659 3.963,132.868 1.138,155.676C1.065,156.257 0.571,156.683 0,156.683" style="fill:rgb(198,198,198);fill-rule:nonzero;"/>
                        </g>
                        <g transform="matrix(1,0,0,1,1322.35,809.664)">
                            <path d="M0,11.935C-0.046,11.935 -0.092,11.933 -0.139,11.927C-0.768,11.851 -1.217,11.28 -1.142,10.65L0.007,1.082C0.082,0.453 0.657,0 1.283,0.079C1.913,0.154 2.362,0.726 2.286,1.355L1.139,10.924C1.068,11.507 0.572,11.935 0,11.935" style="fill:rgb(198,198,198);fill-rule:nonzero;"/>
                        </g>
                        <g transform="matrix(1,0,0,1,1327.08,819.189)">
                            <path d="M0,3.481C-0.083,3.481 -0.169,3.472 -0.254,3.452L-4.986,2.382C-5.604,2.242 -5.992,1.627 -5.853,1.009C-5.713,0.391 -5.099,0 -4.479,0.143L0.253,1.213C0.871,1.353 1.259,1.967 1.119,2.585C0.999,3.119 0.525,3.481 0,3.481" style="fill:rgb(198,198,198);fill-rule:nonzero;"/>
                        </g>
                        <g transform="matrix(1,0,0,1,1356.41,820.233)">
                            <path d="M0,11.7C-0.114,11.7 -0.23,11.682 -0.346,11.646L-29.676,2.383C-30.28,2.192 -30.615,1.547 -30.425,0.942C-30.233,0.338 -29.589,0 -28.983,0.193L0.347,9.456C0.951,9.648 1.286,10.292 1.096,10.897C0.94,11.387 0.488,11.7 0,11.7" style="fill:rgb(198,198,198);fill-rule:nonzero;"/>
                        </g>
                        <g transform="matrix(1,0,0,1,1341.74,750.503)">
                            <path d="M0,76.798C-0.073,76.798 -0.146,76.791 -0.22,76.776C-0.843,76.655 -1.249,76.052 -1.128,75.43L13.346,1.029C13.468,0.407 14.079,0 14.692,0.122C15.314,0.243 15.722,0.846 15.601,1.468L1.126,75.869C1.02,76.417 0.539,76.798 0,76.798" style="fill:rgb(198,198,198);fill-rule:nonzero;"/>
                        </g>
                        <g transform="matrix(1,0,0,1,1348.86,667.2)">
                            <path d="M0,17.017C-0.411,17.017 -0.809,16.795 -1.016,16.406C-1.312,15.846 -1.099,15.151 -0.539,14.854L26.915,0.296C27.478,0 28.171,0.212 28.468,0.772C28.765,1.332 28.552,2.027 27.991,2.324L0.537,16.883C0.365,16.974 0.182,17.017 0,17.017" style="fill:rgb(198,198,198);fill-rule:nonzero;"/>
                        </g>
                        <g transform="matrix(1,0,0,1,1337.31,600.227)">
                            <path d="M0,56.56C-0.216,56.56 -0.434,56.499 -0.627,56.373C-1.157,56.026 -1.307,55.314 -0.96,54.783L34.401,0.679C34.749,0.148 35.462,0 35.99,0.346C36.521,0.693 36.671,1.404 36.324,1.935L0.963,56.04C0.742,56.376 0.375,56.56 0,56.56" style="fill:rgb(198,198,198);fill-rule:nonzero;"/>
                        </g>
                        <g transform="matrix(1,0,0,1,1342.53,646.078)">
                            <path d="M0,2.719C-0.021,2.719 -0.042,2.719 -0.062,2.717L-7.047,2.338C-7.681,2.304 -8.166,1.763 -8.132,1.13C-8.097,0.496 -7.558,0 -6.923,0.046L0.062,0.425C0.694,0.458 1.181,1 1.146,1.633C1.112,2.245 0.606,2.719 0,2.719" style="fill:rgb(198,198,198);fill-rule:nonzero;"/>
                        </g>
                        <g transform="matrix(1,0,0,1,1301.68,654.343)">
                            <path d="M0,30.05C-0.343,30.05 -0.683,29.897 -0.908,29.605C-1.297,29.104 -1.205,28.383 -0.704,27.994L34.93,0.388C35.433,0 36.153,0.091 36.54,0.592C36.929,1.093 36.837,1.814 36.336,2.203L0.703,29.809C0.493,29.972 0.246,30.05 0,30.05" style="fill:rgb(198,198,198);fill-rule:nonzero;"/>
                        </g>
                        <g transform="matrix(1,0,0,1,1301.68,668.132)">
                            <path d="M0,16.262C-0.395,16.262 -0.779,16.057 -0.992,15.691L-9.029,1.888C-9.349,1.34 -9.163,0.637 -8.615,0.318C-8.07,0 -7.365,0.183 -7.046,0.732L0.991,14.535C1.311,15.084 1.125,15.786 0.577,16.106C0.396,16.212 0.197,16.262 0,16.262" style="fill:rgb(198,198,198);fill-rule:nonzero;"/>
                        </g>
                        <g transform="matrix(1,0,0,1,1293.64,655.146)">
                            <path d="M0,15.444C-0.38,15.444 -0.751,15.256 -0.97,14.912C-1.31,14.377 -1.151,13.667 -0.616,13.327L19.817,0.34C20.354,0 21.063,0.157 21.402,0.693C21.742,1.228 21.584,1.938 21.049,2.278L0.615,15.265C0.424,15.386 0.211,15.444 0,15.444" style="fill:rgb(198,198,198);fill-rule:nonzero;"/>
                        </g>
                        <g transform="matrix(1,0,0,1,1314.08,646.148)">
                            <path d="M0,11.455C-0.398,11.455 -0.786,11.247 -0.998,10.875L-6.126,1.879C-6.441,1.329 -6.249,0.627 -5.698,0.313C-5.147,0 -4.445,0.191 -4.132,0.742L0.997,9.738C1.312,10.288 1.119,10.99 0.568,11.304C0.389,11.406 0.193,11.455 0,11.455" style="fill:rgb(198,198,198);fill-rule:nonzero;"/>
                        </g>
                        <g transform="matrix(1,0,0,1,1308.95,633.908)">
                            <path d="M0,14.699C-0.367,14.699 -0.729,14.523 -0.95,14.197C-1.307,13.673 -1.172,12.958 -0.646,12.601L17.345,0.356C17.868,0 18.583,0.135 18.939,0.659C19.297,1.184 19.161,1.898 18.637,2.255L0.645,14.5C0.447,14.635 0.223,14.699 0,14.699" style="fill:rgb(198,198,198);fill-rule:nonzero;"/>
                        </g>
                        <g transform="matrix(1,0,0,1,1324,618.834)">
                            <path d="M0,19.529C-0.291,19.529 -0.583,19.419 -0.807,19.197L-18.149,2.079C-18.601,1.633 -18.605,0.906 -18.159,0.455C-17.714,0.003 -16.986,0 -16.536,0.445L0.807,17.564C1.259,18.009 1.263,18.736 0.817,19.187C0.593,19.415 0.296,19.529 0,19.529" style="fill:rgb(198,198,198);fill-rule:nonzero;"/>
                        </g>
                        <g transform="matrix(1,0,0,1,1241.86,613.161)">
                            <path d="M0,53.436C-0.371,53.436 -0.735,53.256 -0.957,52.924C-1.309,52.396 -1.165,51.683 -0.637,51.332L76.015,0.351C76.544,0 77.255,0.142 77.606,0.671C77.958,1.199 77.814,1.911 77.287,2.263L0.636,53.244C0.439,53.374 0.219,53.436 0,53.436" style="fill:rgb(198,198,198);fill-rule:nonzero;"/>
                        </g>
                        <g transform="matrix(1,0,0,1,1306.65,517.3)">
                            <path d="M0,103.944C-0.39,103.944 -0.77,103.745 -0.985,103.387L-61.966,1.902C-62.293,1.359 -62.116,0.653 -61.572,0.326C-61.031,0 -60.325,0.175 -59.997,0.719L0.983,102.205C1.311,102.748 1.134,103.453 0.591,103.78C0.406,103.891 0.202,103.944 0,103.944" style="fill:rgb(198,198,198);fill-rule:nonzero;"/>
                        </g>
                        <g transform="matrix(1,0,0,1,1245.67,508.895)">
                            <path d="M0,10.864C-0.13,10.864 -0.263,10.842 -0.393,10.795C-0.988,10.578 -1.295,9.919 -1.079,9.323L1.982,0.903C2.199,0.307 2.86,0 3.454,0.216C4.05,0.433 4.357,1.092 4.142,1.688L1.079,10.108C0.91,10.574 0.469,10.864 0,10.864" style="fill:rgb(198,198,198);fill-rule:nonzero;"/>
                        </g>
                        <g transform="matrix(1,0,0,1,1245.68,516.916)">
                            <path d="M0,2.843C-0.027,2.843 -0.055,2.843 -0.081,2.841L-7.48,2.33C-8.113,2.286 -8.591,1.738 -8.547,1.106C-8.503,0.473 -7.941,0 -7.322,0.039L0.077,0.549C0.71,0.593 1.187,1.141 1.144,1.774C1.102,2.38 0.598,2.843 0,2.843" style="fill:rgb(198,198,198);fill-rule:nonzero;"/>
                        </g>
                        <g transform="matrix(1,0,0,1,1217.99,509.347)">
                            <path d="M0,26.219C-3.503,26.219 -7.051,25.958 -10.52,25.656L-36.968,23.352C-41.635,22.946 -46.461,22.525 -51.14,21.403C-53.454,20.848 -55.764,20.115 -57.998,19.407C-63.062,17.801 -67.846,16.281 -72.85,16.581C-74.474,16.678 -76.143,16.979 -77.757,17.27C-80.12,17.697 -82.568,18.138 -85.061,18C-89.959,17.731 -94.589,15.191 -97.447,11.205C-98.228,10.118 -98.879,8.932 -99.508,7.785C-100.724,5.572 -101.871,3.482 -103.791,2.284C-104.329,1.948 -104.493,1.24 -104.157,0.702C-103.822,0.164 -103.113,0 -102.576,0.336C-100.146,1.852 -98.799,4.306 -97.495,6.68C-96.871,7.818 -96.281,8.892 -95.581,9.867C-93.161,13.241 -89.082,15.479 -84.936,15.707C-82.705,15.829 -80.501,15.431 -78.165,15.011C-76.484,14.708 -74.746,14.394 -72.986,14.289C-67.559,13.965 -62.345,15.618 -57.303,17.218C-55.108,17.914 -52.838,18.635 -50.604,19.17C-46.091,20.253 -41.353,20.665 -36.77,21.065L-10.321,23.368C-2.717,24.03 5.265,24.492 12.074,22.352L19.257,8.234C19.544,7.668 20.238,7.445 20.801,7.731C21.366,8.018 21.592,8.71 21.304,9.275L13.691,24.238L13.245,24.386C9.095,25.772 4.586,26.219 0,26.219" style="fill:rgb(198,198,198);fill-rule:nonzero;"/>
                        </g>
                        <g transform="matrix(1,0,0,1,1096.92,513.093)">
                            <path d="M0,34.987C-0.216,34.987 -0.434,34.926 -0.628,34.799C-1.159,34.452 -1.308,33.74 -0.96,33.21L20.363,0.678C20.712,0.148 21.424,0 21.954,0.347C22.484,0.695 22.633,1.407 22.285,1.937L0.962,34.468C0.741,34.805 0.374,34.987 0,34.987" style="fill:rgb(198,198,198);fill-rule:nonzero;"/>
                        </g>
                        <g transform="matrix(1,0,0,1,1161.22,526.549)">
                            <path d="M0,14.898C-0.607,14.898 -1.114,14.422 -1.146,13.809L-1.797,1.24C-1.83,0.607 -1.344,0.067 -0.71,0.034C-0.074,0 0.462,0.489 0.496,1.122L1.147,13.69C1.18,14.323 0.693,14.863 0.06,14.896C0.039,14.898 0.02,14.898 0,14.898" style="fill:rgb(198,198,198);fill-rule:nonzero;"/>
                        </g>
                        <g transform="matrix(1,0,0,1,1156.88,539.029)">
                            <path d="M0,6.5C-0.306,6.5 -0.61,6.379 -0.837,6.139C-1.271,5.677 -1.249,4.951 -0.787,4.516L3.55,0.434C4.012,0 4.737,0.02 5.174,0.483C5.608,0.944 5.586,1.671 5.124,2.105L0.787,6.188C0.564,6.396 0.282,6.5 0,6.5" style="fill:rgb(198,198,198);fill-rule:nonzero;"/>
                        </g>
                        <g transform="matrix(1,0,0,1,1156.88,541.173)">
                            <path d="M0,4.356L-0.042,4.356L-55.92,2.314C-56.554,2.291 -57.049,1.758 -57.025,1.125C-57.001,0.491 -56.444,0 -55.836,0.019L0.041,2.061C0.676,2.084 1.17,2.616 1.147,3.25C1.125,3.869 0.615,4.356 0,4.356" style="fill:rgb(198,198,198);fill-rule:nonzero;"/>
                        </g>
                        <g transform="matrix(1,0,0,1,1049.72,545.785)">
                            <path d="M0,3.572C-0.62,3.572 -1.131,3.078 -1.146,2.455C-1.164,1.821 -0.665,1.293 -0.031,1.276L47.172,0L47.204,0C47.823,0 48.334,0.493 48.351,1.116C48.368,1.751 47.868,2.278 47.234,2.296L0.032,3.572L0,3.572" style="fill:rgb(198,198,198);fill-rule:nonzero;"/>
                        </g>
                        <g transform="matrix(1,0,0,1,916.787,546.932)">
                            <path d="M0,39.166C-0.503,39.166 -0.965,38.832 -1.105,38.323C-1.274,37.712 -0.916,37.08 -0.305,36.911L132.627,0.169C133.233,0 133.87,0.358 134.039,0.97C134.208,1.582 133.851,2.214 133.239,2.383L0.307,39.124C0.204,39.152 0.102,39.166 0,39.166" style="fill:rgb(198,198,198);fill-rule:nonzero;"/>
                        </g>
                        <g transform="matrix(1,0,0,1,1008.19,518.833)">
                            <path d="M0,42.003C-0.382,42.003 -0.754,41.814 -0.972,41.467L-25.905,1.921C-26.244,1.385 -26.083,0.676 -25.546,0.338C-25.011,0 -24.301,0.161 -23.963,0.697L0.97,40.242C1.309,40.779 1.147,41.488 0.611,41.826C0.421,41.946 0.209,42.003 0,42.003" style="fill:rgb(198,198,198);fill-rule:nonzero;"/>
                        </g>
                        <g transform="matrix(1,0,0,1,983.254,507.378)">
                            <path d="M0,13.912C-0.493,13.912 -0.95,13.591 -1.099,13.094L-4.544,1.612C-4.726,1.005 -4.382,0.364 -3.773,0.182C-3.169,0 -2.526,0.343 -2.345,0.952L1.1,12.433C1.282,13.041 0.937,13.681 0.33,13.863C0.221,13.896 0.109,13.912 0,13.912" style="fill:rgb(198,198,198);fill-rule:nonzero;"/>
                        </g>
                        <g transform="matrix(1,0,0,1,878.28,582.981)">
                            <path d="M0,71.973C-0.325,71.973 -0.647,71.836 -0.875,71.569C-1.286,71.087 -1.229,70.362 -0.745,69.951L23.578,49.228C24.884,48.115 26.234,46.965 27.172,45.578C29.05,42.803 29.285,39.128 29.493,35.886L30.162,25.404C30.321,22.904 30.487,20.319 30.872,17.767C31.778,11.763 33.949,5.862 37.148,0.703C37.482,0.163 38.192,0 38.729,0.332C39.268,0.666 39.434,1.374 39.1,1.913C36.063,6.81 34.003,12.41 33.143,18.11C32.772,20.563 32.61,23.098 32.454,25.55L31.784,36.032C31.569,39.391 31.302,43.572 29.073,46.866C27.961,48.51 26.49,49.764 25.066,50.976L0.744,71.699C0.527,71.883 0.263,71.973 0,71.973" style="fill:rgb(198,198,198);fill-rule:nonzero;"/>
                        </g>
                        <g transform="matrix(1,0,0,1,916.403,576.24)">
                            <path d="M0,9.197C-0.176,9.197 -0.354,9.156 -0.521,9.071C-1.087,8.782 -1.31,8.091 -1.021,7.526L2.424,0.787C2.713,0.222 3.404,0 3.969,0.288C4.534,0.576 4.758,1.268 4.469,1.832L1.023,8.571C0.82,8.968 0.417,9.197 0,9.197" style="fill:rgb(198,198,198);fill-rule:nonzero;"/>
                        </g>
                        <g transform="matrix(1,0,0,1,919.848,558.667)">
                            <path d="M0,20.031C-0.499,20.031 -0.959,19.702 -1.104,19.198C-1.277,18.588 -0.924,17.953 -0.314,17.779L61.368,0.174C61.972,0 62.612,0.352 62.788,0.962C62.962,1.572 62.608,2.207 61.999,2.382L0.316,19.987C0.211,20.016 0.104,20.031 0,20.031" style="fill:rgb(198,198,198);fill-rule:nonzero;"/>
                        </g>
                        <g transform="matrix(1,0,0,1,914.491,561.479)">
                            <path d="M0,6.248C-0.307,6.248 -0.612,6.125 -0.839,5.883L-4.411,2.056C-4.844,1.592 -4.818,0.866 -4.354,0.433C-3.892,0 -3.165,0.026 -2.731,0.489L0.84,4.316C1.272,4.78 1.247,5.506 0.784,5.939C0.562,6.146 0.281,6.248 0,6.248" style="fill:rgb(198,198,198);fill-rule:nonzero;"/>
                        </g>
                        <g transform="matrix(1,0,0,1,919.85,565.268)">
                            <path d="M0,13.43C-0.425,13.43 -0.834,13.193 -1.032,12.785L-6.391,1.814C-6.669,1.245 -6.433,0.557 -5.863,0.279C-5.294,0 -4.605,0.237 -4.327,0.806L1.03,11.778C1.309,12.347 1.072,13.035 0.503,13.313C0.341,13.392 0.169,13.43 0,13.43" style="fill:rgb(198,198,198);fill-rule:nonzero;"/>
                        </g>
                        <g transform="matrix(1,0,0,1,914.491,547.439)">
                            <path d="M0,20.288C-0.498,20.288 -0.956,19.962 -1.103,19.46C-1.279,18.851 -0.929,18.214 -0.319,18.037L61.172,0.177C61.78,0 62.416,0.35 62.594,0.959C62.771,1.568 62.421,2.205 61.812,2.382L0.32,20.242C0.213,20.273 0.105,20.288 0,20.288" style="fill:rgb(198,198,198);fill-rule:nonzero;"/>
                        </g>
                        <g transform="matrix(1,0,0,1,907.345,561.524)">
                            <path d="M0,2.886C-0.562,2.886 -1.053,2.473 -1.135,1.9C-1.225,1.273 -0.788,0.691 -0.16,0.601L3.412,0.091C4.036,0 4.621,0.438 4.711,1.066C4.801,1.693 4.364,2.275 3.736,2.365L0.164,2.875C0.109,2.883 0.055,2.886 0,2.886" style="fill:rgb(198,198,198);fill-rule:nonzero;"/>
                        </g>
                        <g transform="matrix(1,0,0,1,915.258,561.949)">
                            <path d="M0,16.494C-0.4,16.494 -0.79,16.284 -1.001,15.909L-8.91,1.876C-9.222,1.324 -9.026,0.623 -8.474,0.312C-7.924,0 -7.223,0.195 -6.91,0.749L0.999,14.782C1.311,15.334 1.115,16.035 0.562,16.346C0.385,16.446 0.191,16.494 0,16.494" style="fill:rgb(198,198,198);fill-rule:nonzero;"/>
                        </g>
                        <g transform="matrix(1,0,0,1,912.705,575.992)">
                            <path d="M0,6.076C-0.229,6.076 -0.459,6.008 -0.66,5.867C-1.179,5.502 -1.303,4.785 -0.938,4.267L1.613,0.643C1.979,0.124 2.693,0 3.213,0.365C3.731,0.73 3.855,1.446 3.491,1.964L0.939,5.589C0.716,5.907 0.361,6.076 0,6.076" style="fill:rgb(198,198,198);fill-rule:nonzero;"/>
                        </g>
                        <g transform="matrix(1,0,0,1,925.655,563.641)">
                            <path d="M0,13.401C-0.418,13.401 -0.821,13.171 -1.023,12.773L-6.583,1.831C-6.871,1.265 -6.646,0.574 -6.08,0.287C-5.516,0 -4.823,0.225 -4.536,0.791L1.022,11.733C1.311,12.298 1.085,12.989 0.52,13.276C0.354,13.36 0.175,13.401 0,13.401" style="fill:rgb(198,198,198);fill-rule:nonzero;"/>
                        </g>
                        <g transform="matrix(1,0,0,1,931.444,561.704)">
                            <path d="M0,13.686C-0.451,13.686 -0.879,13.419 -1.062,12.977L-5.715,1.742C-5.958,1.156 -5.68,0.485 -5.094,0.242C-4.505,0 -3.836,0.278 -3.594,0.863L1.06,12.098C1.303,12.684 1.024,13.355 0.438,13.598C0.295,13.658 0.146,13.686 0,13.686" style="fill:rgb(198,198,198);fill-rule:nonzero;"/>
                        </g>
                        <g transform="matrix(1,0,0,1,936.6,560.321)">
                            <path d="M0,13.597C-0.437,13.597 -0.854,13.347 -1.046,12.924L-6.113,1.784C-6.376,1.206 -6.121,0.526 -5.544,0.263C-4.967,0 -4.285,0.255 -4.023,0.833L1.044,11.973C1.307,12.55 1.052,13.231 0.475,13.493C0.32,13.563 0.159,13.597 0,13.597" style="fill:rgb(198,198,198);fill-rule:nonzero;"/>
                        </g>
                        <g transform="matrix(1,0,0,1,941.327,558.935)">
                            <path d="M0,13.634C-0.438,13.634 -0.856,13.382 -1.048,12.956L-6.071,1.779C-6.332,1.201 -6.073,0.521 -5.495,0.261C-4.915,0 -4.237,0.259 -3.977,0.838L1.046,12.015C1.307,12.593 1.048,13.273 0.47,13.533C0.316,13.601 0.157,13.634 0,13.634" style="fill:rgb(198,198,198);fill-rule:nonzero;"/>
                        </g>
                        <g transform="matrix(1,0,0,1,945.327,557.547)">
                            <path d="M0,13.88C-0.468,13.88 -0.906,13.592 -1.077,13.128L-5.28,1.692C-5.498,1.097 -5.193,0.437 -4.599,0.218C-4.001,0 -3.343,0.304 -3.124,0.9L1.078,12.335C1.297,12.931 0.991,13.59 0.396,13.809C0.266,13.857 0.132,13.88 0,13.88" style="fill:rgb(198,198,198);fill-rule:nonzero;"/>
                        </g>
                        <g transform="matrix(1,0,0,1,952.092,555.777)">
                            <path d="M0,13.719C-0.442,13.719 -0.864,13.461 -1.053,13.029L-5.963,1.765C-6.217,1.184 -5.95,0.508 -5.369,0.254C-4.788,0 -4.112,0.266 -3.858,0.847L1.052,12.111C1.306,12.693 1.039,13.369 0.459,13.623C0.31,13.688 0.153,13.719 0,13.719" style="fill:rgb(198,198,198);fill-rule:nonzero;"/>
                        </g>
                        <g transform="matrix(1,0,0,1,956.115,554.367)">
                            <path d="M0,13.981C-0.475,13.981 -0.919,13.684 -1.084,13.21L-5.106,1.668C-5.316,1.07 -5,0.416 -4.401,0.207C-3.801,0 -3.146,0.314 -2.938,0.913L1.084,12.455C1.294,13.053 0.978,13.708 0.379,13.917C0.253,13.96 0.126,13.981 0,13.981" style="fill:rgb(198,198,198);fill-rule:nonzero;"/>
                        </g>
                        <g transform="matrix(1,0,0,1,960.905,552.779)">
                            <path d="M0,14.201C-0.501,14.201 -0.963,13.869 -1.104,13.363L-4.404,1.587C-4.576,0.976 -4.22,0.343 -3.609,0.171C-2.998,0 -2.364,0.357 -2.193,0.967L1.106,12.743C1.277,13.353 0.921,13.987 0.312,14.158C0.207,14.187 0.103,14.201 0,14.201" style="fill:rgb(198,198,198);fill-rule:nonzero;"/>
                        </g>
                        <g transform="matrix(1,0,0,1,966.031,550.979)">
                            <path d="M0,10.113C-0.497,10.113 -0.955,9.788 -1.102,9.286L-3.345,1.602C-3.523,0.994 -3.174,0.356 -2.565,0.178C-1.956,0 -1.318,0.35 -1.142,0.959L1.103,8.643C1.28,9.251 0.932,9.889 0.323,10.067C0.215,10.098 0.106,10.113 0,10.113" style="fill:rgb(198,198,198);fill-rule:nonzero;"/>
                        </g>
                        <g transform="matrix(1,0,0,1,966.032,554.809)">
                            <path d="M0,6.283C-0.474,6.283 -0.917,5.988 -1.083,5.516C-1.294,4.918 -0.979,4.262 -0.382,4.052L10.526,0.21C11.123,0 11.779,0.314 11.99,0.911C12.201,1.51 11.887,2.165 11.288,2.376L0.381,6.218C0.255,6.262 0.126,6.283 0,6.283" style="fill:rgb(198,198,198);fill-rule:nonzero;"/>
                        </g>
                        <g transform="matrix(1,0,0,1,972.407,549.057)">
                            <path d="M0,9.74C-0.505,9.74 -0.969,9.403 -1.107,8.891L-3.09,1.575C-3.255,0.964 -2.894,0.333 -2.282,0.167C-1.669,0 -1.039,0.363 -0.873,0.975L1.109,8.291C1.274,8.903 0.913,9.533 0.302,9.699C0.2,9.727 0.1,9.74 0,9.74" style="fill:rgb(198,198,198);fill-rule:nonzero;"/>
                        </g>
                        <g transform="matrix(1,0,0,1,1186.24,629.325)">
                            <path d="M0,91.55C-0.457,91.55 -0.891,91.274 -1.068,90.822C-4.599,81.866 -8.563,72.956 -12.854,64.34C-15.555,58.915 -18.902,52.919 -24.462,50.433C-24.715,50.32 -24.974,50.213 -25.232,50.106C-26.339,49.648 -27.593,49.129 -28.526,48.102C-30.121,46.347 -30.145,43.952 -30.166,41.84L-30.182,40.341C-30.253,32.666 -30.321,25.416 -34.041,19.101C-35.07,17.355 -38.283,15.491 -40.408,14.258L-41.126,13.84C-46.088,10.921 -53.873,11.746 -59.503,13.492C-61.276,14.042 -63.001,14.63 -64.669,15.199C-69.642,16.897 -74.338,18.499 -79.875,18.996L-99.959,20.798C-102.785,21.051 -106.326,21.677 -110.075,22.34C-117.32,23.62 -125.53,25.074 -131.194,24.248C-138.104,23.241 -146.705,21.905 -156.665,20.36C-202.833,13.191 -272.604,2.357 -285.911,7.109C-286.507,7.322 -287.165,7.01 -287.379,6.413C-287.592,5.816 -287.28,5.159 -286.683,4.946C-272.824,0 -202.709,10.886 -156.312,18.09C-146.358,19.636 -137.762,20.97 -130.864,21.975C-125.565,22.747 -117.55,21.329 -110.475,20.079C-106.676,19.407 -103.088,18.773 -100.164,18.51L-80.08,16.709C-74.818,16.237 -70.249,14.677 -65.411,13.027C-63.728,12.452 -61.987,11.858 -60.183,11.299C-57.223,10.381 -47.019,7.71 -39.962,11.861L-39.257,12.272C-36.784,13.706 -33.397,15.671 -32.063,17.936C-28.031,24.779 -27.957,32.679 -27.885,40.32L-27.87,41.817C-27.852,43.603 -27.833,45.45 -26.826,46.557C-26.239,47.203 -25.323,47.583 -24.354,47.984C-24.075,48.1 -23.797,48.215 -23.524,48.337C-17.271,51.133 -13.677,57.535 -10.798,63.316C-6.479,71.992 -2.486,80.963 1.068,89.98C1.301,90.571 1.012,91.237 0.421,91.469C0.282,91.524 0.141,91.55 0,91.55" style="fill:rgb(198,198,198);fill-rule:nonzero;"/>
                        </g>
                        <g transform="matrix(1,0,0,1,1166.69,677.261)">
                            <path d="M0,3.496C-0.592,3.496 -1.093,3.042 -1.143,2.442C-1.195,1.811 -0.726,1.256 -0.094,1.204L13.773,0.055C14.398,0 14.96,0.473 15.013,1.105C15.065,1.737 14.595,2.292 13.963,2.344L0.097,3.492C0.064,3.495 0.032,3.496 0,3.496" style="fill:rgb(198,198,198);fill-rule:nonzero;"/>
                        </g>
                        <g transform="matrix(1,0,0,1,1180.56,661.856)">
                            <path d="M0,17.754C-0.133,17.754 -0.268,17.731 -0.398,17.682C-0.993,17.462 -1.297,16.801 -1.076,16.207L4.601,0.898C4.82,0.302 5.483,0 6.076,0.22C6.67,0.441 6.974,1.101 6.753,1.696L1.076,17.005C0.905,17.468 0.467,17.754 0,17.754" style="fill:rgb(198,198,198);fill-rule:nonzero;"/>
                        </g>
                        <g transform="matrix(1,0,0,1,1213.27,699.956)">
                            <path d="M0,12.568C-0.205,12.568 -0.412,12.513 -0.599,12.399L-17.108,2.288C-17.649,1.957 -17.819,1.25 -17.487,0.71C-17.156,0.168 -16.449,0 -15.909,0.33L0.601,10.441C1.142,10.772 1.312,11.479 0.98,12.019C0.764,12.373 0.386,12.568 0,12.568" style="fill:rgb(198,198,198);fill-rule:nonzero;"/>
                        </g>
                        <g transform="matrix(1,0,0,1,865.787,652.589)">
                            <path d="M0,106.463C-0.046,106.463 -0.092,106.46 -0.139,106.455C-0.768,106.379 -1.217,105.807 -1.142,105.178L11.353,1.079C11.428,0.45 12.002,0 12.629,0.076C13.259,0.151 13.708,0.724 13.632,1.353L1.139,105.451C1.068,106.034 0.572,106.463 0,106.463" style="fill:rgb(198,198,198);fill-rule:nonzero;"/>
                        </g>
                        <g transform="matrix(1,0,0,1,778.723,510.594)">
                            <path d="M0,63.11C-5.359,63.11 -10.718,62.254 -15.82,60.54C-16.421,60.338 -16.744,59.687 -16.543,59.086C-16.34,58.485 -15.689,58.162 -15.089,58.363C-5.345,61.636 5.386,61.631 15.125,58.351C19.334,56.934 22.664,55.141 25.304,52.872C27.907,50.635 30.024,47.737 31.893,45.181C36.447,38.949 40.36,33.261 42.117,26.754C44.365,18.43 42.599,8.936 37.506,1.979C37.131,1.467 37.242,0.749 37.755,0.374C38.266,0 38.984,0.11 39.359,0.623C44.937,8.243 46.796,18.235 44.335,27.353C42.475,34.241 38.438,40.116 33.746,46.536C31.805,49.193 29.604,52.204 26.801,54.614C23.933,57.079 20.353,59.013 15.857,60.527C10.746,62.249 5.373,63.11 0,63.11" style="fill:rgb(198,198,198);fill-rule:nonzero;"/>
                        </g>
                        <g transform="matrix(1,0,0,1,757.148,509.668)">
                            <path d="M0,234.323C-0.132,234.323 -0.267,234.3 -0.398,234.251C-0.992,234.031 -1.297,233.371 -1.077,232.776C-0.05,229.999 0.043,222.024 0.124,214.987C0.189,209.347 0.251,204.019 0.783,201.535L13.619,141.605C15.481,132.91 17.408,123.919 16.848,114.94C16.455,108.658 14.825,102.388 13.248,96.324L12.948,95.17C7.798,75.297 4.455,58.955 2.426,43.742C0.551,29.674 -0.338,15.344 -0.214,1.152C-0.209,0.519 0.342,0 0.943,0.014C1.578,0.02 2.087,0.538 2.082,1.172C1.959,15.257 2.842,29.477 4.703,43.439C6.718,58.558 10.045,74.813 15.172,94.594L15.472,95.747C17.075,101.916 18.733,108.295 19.14,114.797C19.72,124.091 17.76,133.24 15.864,142.087L3.028,202.016C2.544,204.276 2.484,209.491 2.42,215.014C2.332,222.589 2.242,230.423 1.077,233.573C0.905,234.036 0.467,234.323 0,234.323" style="fill:rgb(198,198,198);fill-rule:nonzero;"/>
                        </g>
                        <g transform="matrix(1,0,0,1,775.14,620.236)">
                            <path d="M0,5.448C-0.593,5.448 -1.096,4.992 -1.144,4.391C-1.193,3.759 -0.723,3.205 -0.09,3.155L38.859,0.055C39.493,0 40.044,0.476 40.095,1.108C40.146,1.74 39.674,2.294 39.042,2.344L0.093,5.444C0.061,5.447 0.03,5.448 0,5.448" style="fill:rgb(198,198,198);fill-rule:nonzero;"/>
                        </g>
                        <g transform="matrix(1,0,0,1,814.091,615.929)">
                            <path d="M0,6.655C-0.468,6.655 -0.907,6.367 -1.077,5.902C-1.296,5.306 -0.99,4.647 -0.395,4.428L11.087,0.218C11.682,0 12.342,0.305 12.56,0.901C12.778,1.496 12.473,2.156 11.878,2.374L0.396,6.584C0.265,6.632 0.132,6.655 0,6.655" style="fill:rgb(198,198,198);fill-rule:nonzero;"/>
                        </g>
                        <g transform="matrix(1,0,0,1,765.526,611.031)">
                            <path d="M0,29.252L-0.775,27.673C-2.707,23.752 -4.531,20.049 -4.564,15.463L-4.565,14.928C-4.564,14.059 -4.563,13.239 -4.732,12.481C-4.959,11.463 -5.504,10.519 -6.006,9.73C-8.794,5.349 -12.65,2.655 -16.586,2.339C-17.219,2.288 -17.689,1.735 -17.639,1.103C-17.588,0.47 -17.021,0 -16.402,0.05C-11.742,0.424 -7.247,3.503 -4.069,8.497C-3.495,9.398 -2.797,10.609 -2.491,11.981C-2.267,12.988 -2.268,13.976 -2.27,14.931L-2.269,15.447C-2.239,19.506 -0.605,22.821 1.284,26.659L1.338,26.767L9.572,25.722C10.204,25.645 10.776,26.088 10.855,26.717C10.936,27.346 10.49,27.92 9.86,28.001L0,29.252Z" style="fill:rgb(198,198,198);fill-rule:nonzero;"/>
                        </g>
                        <g transform="matrix(1,0,0,1,771.17,652.626)">
                            <path d="M0,3.398C-0.611,3.398 -1.12,2.916 -1.147,2.299C-1.174,1.666 -0.683,1.13 -0.05,1.103L24.628,0.033C25.27,0 25.798,0.497 25.825,1.13C25.853,1.764 25.361,2.3 24.728,2.327L0.051,3.397C0.033,3.398 0.017,3.398 0,3.398" style="fill:rgb(198,198,198);fill-rule:nonzero;"/>
                        </g>
                        <g transform="matrix(1,0,0,1,787.429,652.569)">
                            <path d="M0,52.172C-0.063,52.172 -0.128,52.167 -0.193,52.156C-0.819,52.05 -1.239,51.458 -1.134,50.833L7.286,1.045C7.391,0.42 7.979,0 8.609,0.104C9.235,0.21 9.656,0.802 9.55,1.427L1.13,51.215C1.036,51.776 0.55,52.172 0,52.172" style="fill:rgb(198,198,198);fill-rule:nonzero;"/>
                        </g>
                        <g transform="matrix(1,0,0,1,800.441,657.271)">
                            <path d="M0,3.075C-0.013,3.075 -0.025,3.075 -0.038,3.074L-23.768,2.309C-24.4,2.288 -24.898,1.758 -24.877,1.124C-24.855,0.491 -24.303,0 -23.692,0.014L0.036,0.78C0.67,0.8 1.167,1.33 1.146,1.964C1.126,2.585 0.616,3.075 0,3.075" style="fill:rgb(198,198,198);fill-rule:nonzero;"/>
                        </g>
                        <g transform="matrix(1,0,0,1,793.298,657.964)">
                            <path d="M0,47.288C-0.06,47.288 -0.121,47.284 -0.182,47.274C-0.808,47.174 -1.234,46.586 -1.136,45.959L6.009,1.054C6.108,0.428 6.699,0 7.322,0.1C7.949,0.2 8.376,0.788 8.276,1.414L1.133,46.32C1.043,46.886 0.555,47.288 0,47.288" style="fill:rgb(198,198,198);fill-rule:nonzero;"/>
                        </g>
                        <g transform="matrix(1,0,0,1,793.298,700.866)">
                            <path d="M0,4.386C-0.03,4.386 -0.062,4.385 -0.093,4.383L-25.607,2.341C-26.239,2.291 -26.711,1.738 -26.66,1.105C-26.61,0.473 -26.045,0 -25.425,0.053L0.09,2.094C0.723,2.144 1.194,2.698 1.143,3.329C1.095,3.93 0.592,4.386 0,4.386" style="fill:rgb(198,198,198);fill-rule:nonzero;"/>
                        </g>
                        <g transform="matrix(1,0,0,1,780.54,657.594)">
                            <path d="M0,46.638C-0.075,46.638 -0.152,46.63 -0.229,46.615C-0.851,46.489 -1.253,45.883 -1.126,45.261L7.832,1.023C7.957,0.401 8.563,0 9.185,0.125C9.806,0.251 10.208,0.857 10.082,1.479L1.124,45.717C1.014,46.262 0.535,46.638 0,46.638" style="fill:rgb(198,198,198);fill-rule:nonzero;"/>
                        </g>
                        <g transform="matrix(1,0,0,1,775.244,657.405)">
                            <path d="M0,46.403C-0.07,46.403 -0.142,46.397 -0.214,46.383C-0.836,46.266 -1.247,45.666 -1.13,45.043L7.137,1.034C7.253,0.411 7.849,0 8.478,0.118C9.101,0.235 9.511,0.835 9.394,1.458L1.127,45.466C1.023,46.018 0.541,46.403 0,46.403" style="fill:rgb(198,198,198);fill-rule:nonzero;"/>
                        </g>
                        <g transform="matrix(1,0,0,1,767.783,657.182)">
                            <path d="M0,46.029C-0.077,46.029 -0.153,46.021 -0.231,46.006C-0.853,45.878 -1.253,45.271 -1.126,44.65L7.804,1.02C7.931,0.398 8.54,0 9.158,0.125C9.78,0.253 10.181,0.859 10.054,1.48L1.124,45.111C1.013,45.654 0.534,46.029 0,46.029" style="fill:rgb(198,198,198);fill-rule:nonzero;"/>
                        </g>
                        <g transform="matrix(1,0,0,1,836.67,734.021)">
                            <path d="M0,20.41C-0.576,20.41 -1.073,19.977 -1.139,19.391L-3.18,1.34C-3.252,0.709 -2.799,0.141 -2.169,0.07C-1.536,0 -0.97,0.452 -0.898,1.082L1.143,19.133C1.215,19.763 0.762,20.331 0.131,20.403C0.087,20.408 0.044,20.41 0,20.41" style="fill:rgb(198,198,198);fill-rule:nonzero;"/>
                        </g>
                        <g transform="matrix(1,0,0,1,863.208,699.061)">
                            <path d="M0,5.17C-0.044,5.17 -0.089,5.168 -0.134,5.162L-24.372,2.356C-25.002,2.283 -25.453,1.713 -25.381,1.083C-25.308,0.453 -24.739,0 -24.107,0.074L0.131,2.881C0.761,2.954 1.212,3.524 1.14,4.154C1.071,4.739 0.575,5.17 0,5.17" style="fill:rgb(198,198,198);fill-rule:nonzero;"/>
                        </g>
                        <g transform="matrix(1,0,0,1,834.632,699.059)">
                            <path d="M0,37.321C-0.047,37.321 -0.095,37.319 -0.143,37.313C-0.772,37.235 -1.219,36.661 -1.141,36.031L3.197,1.076C3.275,0.447 3.852,0 4.478,0.078C5.107,0.156 5.554,0.73 5.476,1.359L1.138,36.314C1.066,36.896 0.571,37.321 0,37.321" style="fill:rgb(198,198,198);fill-rule:nonzero;"/>
                        </g>
                        <g transform="matrix(1,0,0,1,848.155,700.647)">
                            <path d="M0,37.519C-0.05,37.519 -0.1,37.516 -0.15,37.509C-0.779,37.428 -1.223,36.851 -1.141,36.223L3.445,1.076C3.526,0.447 4.094,0 4.732,0.085C5.361,0.167 5.804,0.744 5.722,1.373L1.137,36.519C1.062,37.098 0.568,37.519 0,37.519" style="fill:rgb(198,198,198);fill-rule:nonzero;"/>
                        </g>
                        <g transform="matrix(1,0,0,1,848.155,734.012)">
                            <path d="M0,4.154C-0.051,4.154 -0.102,4.151 -0.152,4.144L-13.675,2.358C-14.304,2.275 -14.746,1.698 -14.663,1.07C-14.579,0.441 -14.003,0 -13.375,0.081L0.148,1.867C0.777,1.951 1.22,2.528 1.137,3.156C1.061,3.734 0.567,4.154 0,4.154" style="fill:rgb(198,198,198);fill-rule:nonzero;"/>
                        </g>
                        <g transform="matrix(1,0,0,1,799.167,746.693)">
                            <path d="M0,7.547C-0.077,7.547 -0.156,7.539 -0.233,7.523C-0.854,7.395 -1.255,6.788 -1.126,6.167L-0.064,1.021C0.063,0.4 0.673,0 1.291,0.129C1.912,0.257 2.313,0.864 2.184,1.485L1.122,6.63C1.011,7.173 0.532,7.547 0,7.547" style="fill:rgb(198,198,198);fill-rule:nonzero;"/>
                        </g>
                        <g transform="matrix(1,0,0,1,804.267,751.817)">
                            <path d="M0,8.037C-0.312,8.037 -0.623,7.91 -0.85,7.661L-5.952,2.047C-6.379,1.579 -6.344,0.852 -5.875,0.426C-5.406,0 -4.68,0.033 -4.253,0.503L0.85,6.117C1.276,6.585 1.241,7.312 0.772,7.738C0.553,7.938 0.275,8.037 0,8.037" style="fill:rgb(198,198,198);fill-rule:nonzero;"/>
                        </g>
                        <g transform="matrix(1,0,0,1,818.302,757.478)">
                            <path d="M0,4.417C-0.056,4.417 -0.11,4.413 -0.167,4.405L-14.2,2.364C-14.828,2.272 -15.263,1.69 -15.171,1.063C-15.08,0.435 -14.495,0 -13.87,0.091L0.164,2.132C0.792,2.224 1.226,2.806 1.135,3.434C1.052,4.005 0.561,4.417 0,4.417" style="fill:rgb(198,198,198);fill-rule:nonzero;"/>
                        </g>
                        <g transform="matrix(1,0,0,1,818.301,751.081)">
                            <path d="M0,10.814C-0.37,10.814 -0.733,10.635 -0.955,10.304C-1.308,9.777 -1.166,9.064 -0.639,8.711L11.854,0.352C12.379,0 13.094,0.139 13.447,0.668C13.799,1.194 13.658,1.907 13.131,2.26L0.638,10.62C0.442,10.751 0.22,10.814 0,10.814" style="fill:rgb(198,198,198);fill-rule:nonzero;"/>
                        </g>
                        <g transform="matrix(1,0,0,1,864.995,761.054)">
                            <path d="M0,17.681C-0.051,17.681 -0.102,17.678 -0.152,17.671L-115.734,2.362C-116.363,2.279 -116.806,1.702 -116.723,1.073C-116.639,0.445 -116.068,0 -115.433,0.086L0.149,15.394C0.778,15.477 1.22,16.055 1.137,16.683C1.06,17.261 0.567,17.681 0,17.681" style="fill:rgb(198,198,198);fill-rule:nonzero;"/>
                        </g>
                        <g transform="matrix(1,0,0,1,874.688,776.291)">
                            <path d="M0,6.016C-0.133,6.016 -0.267,5.993 -0.396,5.945L-10.092,2.373C-10.688,2.154 -10.992,1.494 -10.772,0.898C-10.553,0.304 -9.89,0 -9.298,0.218L0.396,3.79C0.992,4.009 1.297,4.669 1.077,5.264C0.906,5.728 0.467,6.016 0,6.016" style="fill:rgb(198,198,198);fill-rule:nonzero;"/>
                        </g>
                        <g transform="matrix(1,0,0,1,875.964,779.883)">
                            <path d="M0,7.017C-0.503,7.017 -0.965,6.684 -1.105,6.176L-2.382,1.583C-2.552,0.972 -2.194,0.339 -1.583,0.169C-0.973,0 -0.34,0.357 -0.169,0.968L1.106,5.561C1.276,6.172 0.919,6.805 0.308,6.975C0.205,7.003 0.102,7.017 0,7.017" style="fill:rgb(198,198,198);fill-rule:nonzero;"/>
                        </g>
                        <g transform="matrix(1,0,0,1,862.121,784.525)">
                            <path d="M0,64.073C-0.352,64.073 -0.706,64.047 -1.061,63.993L-111.372,47.267C-111.999,47.173 -112.431,46.587 -112.335,45.96C-112.239,45.333 -111.649,44.901 -111.028,44.997L-0.717,61.722C0.527,61.91 1.762,61.602 2.77,60.853C3.776,60.105 4.429,59.009 4.605,57.766L12.706,1.064C12.796,0.436 13.383,0 14.006,0.09C14.634,0.179 15.07,0.76 14.98,1.388L6.88,58.091C6.615,59.944 5.642,61.579 4.14,62.696C2.925,63.599 1.484,64.073 0,64.073" style="fill:rgb(198,198,198);fill-rule:nonzero;"/>
                        </g>
                        <g transform="matrix(1,0,0,1,887.192,765.643)">
                            <path d="M0,195.65C-0.055,195.65 -0.111,195.647 -0.168,195.638C-0.795,195.546 -1.229,194.963 -1.138,194.336L27.184,1.061C27.276,0.434 27.859,0 28.487,0.091C29.114,0.183 29.549,0.767 29.456,1.394L1.135,194.668C1.052,195.239 0.561,195.65 0,195.65" style="fill:rgb(198,198,198);fill-rule:nonzero;"/>
                        </g>
                        <g transform="matrix(1,0,0,1,908.545,810.563)">
                            <path d="M0,5.013C-0.028,5.013 -0.058,5.012 -0.086,5.01L-36.379,2.326C-37.011,2.279 -37.485,1.728 -37.439,1.096C-37.392,0.464 -36.822,0 -36.21,0.035L0.083,2.72C0.716,2.766 1.19,3.317 1.144,3.95C1.099,4.553 0.596,5.013 0,5.013" style="fill:rgb(198,198,198);fill-rule:nonzero;"/>
                        </g>
                        <g transform="matrix(1,0,0,1,901.937,854.062)">
                            <path d="M0,6.604C-0.048,6.604 -0.096,6.601 -0.144,6.595L-34.025,2.356C-34.654,2.277 -35.1,1.703 -35.021,1.074C-34.943,0.445 -34.36,0 -33.739,0.078L0.142,4.317C0.771,4.396 1.217,4.969 1.138,5.599C1.065,6.179 0.57,6.604 0,6.604" style="fill:rgb(198,198,198);fill-rule:nonzero;"/>
                        </g>
                        <g transform="matrix(1,0,0,1,865.378,854.057)">
                            <path d="M0,22.654C-0.051,22.654 -0.102,22.651 -0.152,22.644C-0.781,22.561 -1.224,21.985 -1.141,21.356L1.539,1.071C1.622,0.443 2.199,0 2.827,0.083C3.456,0.167 3.898,0.743 3.815,1.372L1.137,21.656C1.061,22.234 0.567,22.654 0,22.654" style="fill:rgb(198,198,198);fill-rule:nonzero;"/>
                        </g>
                        <g transform="matrix(1,0,0,1,817.154,882.747)">
                            <path d="M0,13.483C-0.061,13.483 -0.121,13.479 -0.183,13.468L-69.326,2.369C-69.953,2.269 -70.379,1.68 -70.278,1.054C-70.178,0.428 -69.59,0 -68.963,0.102L0.181,11.201C0.807,11.302 1.232,11.891 1.133,12.517C1.042,13.081 0.554,13.483 0,13.483" style="fill:rgb(198,198,198);fill-rule:nonzero;"/>
                        </g>
                        <g transform="matrix(1,0,0,1,830.166,893.788)">
                            <path d="M0,40.332C-0.478,40.332 -0.923,40.033 -1.087,39.557L-14.099,1.667C-14.305,1.067 -13.985,0.414 -13.386,0.208C-12.788,0 -12.133,0.322 -11.927,0.921L1.086,38.811C1.291,39.411 0.972,40.063 0.373,40.27C0.249,40.312 0.123,40.332 0,40.332" style="fill:rgb(198,198,198);fill-rule:nonzero;"/>
                        </g>
                        <g transform="matrix(1,0,0,1,828.635,931.783)">
                            <path d="M0,26.448C-0.024,26.448 -0.049,26.447 -0.073,26.446C-0.707,26.405 -1.187,25.86 -1.146,25.227L0.384,1.115C0.424,0.483 0.943,0 1.603,0.042C2.235,0.083 2.716,0.628 2.676,1.261L1.145,25.373C1.106,25.981 0.601,26.448 0,26.448" style="fill:rgb(198,198,198);fill-rule:nonzero;"/>
                        </g>
                        <g transform="matrix(1,0,0,1,884.995,958.854)">
                            <path d="M0,5.118C-0.256,5.118 -0.514,5.033 -0.728,4.858C-1.218,4.456 -1.289,3.732 -0.888,3.242L1.308,0.563C1.71,0.074 2.433,0 2.924,0.403C3.414,0.805 3.486,1.528 3.084,2.018L0.889,4.698C0.661,4.974 0.333,5.118 0,5.118" style="fill:rgb(198,198,198);fill-rule:nonzero;"/>
                        </g>
                        <g transform="matrix(1,0,0,1,884.997,912.923)">
                            <path d="M0,51.049C-0.038,51.049 -0.076,51.047 -0.115,51.043L-107.942,40.304C-114.799,39.622 -119.857,33.484 -119.218,26.623L-117.1,3.912C-116.889,1.658 -114.968,0 -112.695,0.128L-86.147,1.68C-85.515,1.716 -85.031,2.26 -85.068,2.893C-85.105,3.526 -85.638,3.996 -86.282,3.972L-112.829,2.421C-113.837,2.357 -114.719,3.11 -114.813,4.125L-116.932,26.836C-117.454,32.445 -113.32,37.461 -107.715,38.019L0.112,48.758C0.743,48.821 1.204,49.383 1.141,50.014C1.083,50.607 0.583,51.049 0,51.049" style="fill:rgb(198,198,198);fill-rule:nonzero;"/>
                        </g>
                        <g transform="matrix(1,0,0,1,897.795,883.525)">
                            <path d="M0,5.417C-0.054,5.417 -0.106,5.414 -0.16,5.406L-21.989,2.361C-22.617,2.273 -23.055,1.693 -22.968,1.065C-22.88,0.437 -22.299,0 -21.672,0.086L0.156,3.131C0.784,3.219 1.223,3.799 1.135,4.427C1.055,5.001 0.563,5.417 0,5.417" style="fill:rgb(198,198,198);fill-rule:nonzero;"/>
                        </g>
                        <g transform="matrix(1,0,0,1,872.649,883.515)">
                            <path d="M0,23.814C-0.059,23.814 -0.117,23.81 -0.178,23.801C-0.804,23.704 -1.233,23.117 -1.137,22.49L2.181,1.058C2.277,0.432 2.863,0 3.49,0.099C4.117,0.196 4.547,0.782 4.45,1.409L1.133,22.842C1.046,23.409 0.556,23.814 0,23.814" style="fill:rgb(198,198,198);fill-rule:nonzero;"/>
                        </g>
                        <g transform="matrix(1,0,0,1,886.095,903.053)">
                            <path d="M0,5.424C-0.048,5.424 -0.096,5.421 -0.144,5.415L-24.687,2.353C-25.317,2.275 -25.764,1.701 -25.686,1.072C-25.606,0.442 -25.019,0 -24.404,0.075L0.141,3.136C0.77,3.215 1.216,3.789 1.138,4.418C1.065,4.999 0.57,5.424 0,5.424" style="fill:rgb(198,198,198);fill-rule:nonzero;"/>
                        </g>
                        <g transform="matrix(1,0,0,1,884.997,906.147)">
                            <path d="M0,17.256C-0.028,17.256 -0.057,17.255 -0.086,17.253C-0.718,17.206 -1.192,16.656 -1.146,16.024L-0.049,1.097C-0.002,0.464 0.545,0 1.181,0.036C1.812,0.083 2.287,0.633 2.241,1.266L1.144,16.192C1.099,16.796 0.596,17.256 0,17.256" style="fill:rgb(198,198,198);fill-rule:nonzero;"/>
                        </g>
                        <g transform="matrix(1,0,0,1,892.631,913.572)">
                            <path d="M0,10.608C-0.051,10.608 -0.103,10.605 -0.155,10.598L-61.471,2.358C-62.099,2.274 -62.539,1.695 -62.455,1.067C-62.371,0.439 -61.802,0 -61.164,0.082L0.151,8.322C0.779,8.406 1.221,8.984 1.136,9.613C1.06,10.19 0.565,10.608 0,10.608" style="fill:rgb(198,198,198);fill-rule:nonzero;"/>
                        </g>
                        <g transform="matrix(1,0,0,1,892.629,921.872)">
                            <path d="M0,2.308C-0.633,2.308 -1.147,1.795 -1.147,1.162C-1.148,0.527 -0.635,0.013 -0.001,0.012L8.722,0L8.723,0C9.356,0 9.87,0.513 9.871,1.147C9.872,1.781 9.358,2.296 8.725,2.296L0.002,2.308L0,2.308Z" style="fill:rgb(198,198,198);fill-rule:nonzero;"/>
                        </g>
                        <g transform="matrix(1,0,0,1,901.352,958.833)">
                            <path d="M0,29.251C-0.412,29.251 -0.811,29.029 -1.016,28.639L-15.177,1.849C-15.473,1.288 -15.259,0.593 -14.698,0.297C-14.137,0 -13.443,0.214 -13.146,0.775L1.015,27.566C1.311,28.126 1.097,28.821 0.536,29.118C0.365,29.208 0.181,29.251 0,29.251" style="fill:rgb(198,198,198);fill-rule:nonzero;"/>
                        </g>
                        <g transform="matrix(1,0,0,1,881.452,961.597)">
                            <path d="M0,27.635C-0.054,27.635 -0.107,27.632 -0.161,27.624C-0.79,27.535 -1.227,26.955 -1.139,26.327L2.406,1.068C2.495,0.44 3.077,0 3.703,0.09C4.331,0.178 4.769,0.759 4.681,1.386L1.135,26.646C1.055,27.22 0.563,27.635 0,27.635" style="fill:rgb(198,198,198);fill-rule:nonzero;"/>
                        </g>
                        <g transform="matrix(1,0,0,1,892.897,960.174)">
                            <path d="M0,11.914C-0.395,11.914 -0.779,11.709 -0.992,11.343C-1.312,10.795 -1.126,10.092 -0.578,9.773L15.658,0.318C16.205,0 16.909,0.184 17.228,0.732C17.547,1.28 17.361,1.983 16.813,2.302L0.577,11.758C0.396,11.863 0.196,11.914 0,11.914" style="fill:rgb(198,198,198);fill-rule:nonzero;"/>
                        </g>
                        <g transform="matrix(1,0,0,1,901.351,921.872)">
                            <path d="M0,6.889C-0.634,6.889 -1.147,6.375 -1.147,5.741L-1.147,1.148C-1.147,0.514 -0.634,0 0,0C0.634,0 1.148,0.514 1.148,1.148L1.148,5.741C1.148,6.375 0.634,6.889 0,6.889" style="fill:rgb(198,198,198);fill-rule:nonzero;"/>
                        </g>
                        <g transform="matrix(1,0,0,1,894.27,925.136)">
                            <path d="M0,3.625C-0.592,3.625 -1.094,3.171 -1.144,2.572C-1.195,1.94 -0.726,1.385 -0.094,1.333L15.278,0.057C15.893,0 16.465,0.474 16.518,1.106C16.57,1.738 16.1,2.293 15.469,2.345L0.096,3.621C0.063,3.624 0.031,3.625 0,3.625" style="fill:rgb(198,198,198);fill-rule:nonzero;"/>
                        </g>
                        <g transform="matrix(1,0,0,1,909.134,925.189)">
                            <path d="M0,37.443L-0.017,37.443C-0.651,37.433 -1.157,36.912 -1.148,36.278L-0.638,1.131C-0.629,0.503 -0.116,0 0.51,0L0.526,0C1.161,0.009 1.667,0.531 1.658,1.165L1.147,36.312C1.139,36.94 0.626,37.443 0,37.443" style="fill:rgb(198,198,198);fill-rule:nonzero;"/>
                        </g>
                        <g transform="matrix(1,0,0,1,898.169,926.413)">
                            <path d="M0,42.604C-0.584,42.604 -1.084,42.16 -1.142,41.566L-5.04,1.311C-5.102,0.68 -4.639,0.119 -4.008,0.058C-3.391,0 -2.815,0.458 -2.755,1.09L1.145,41.345C1.206,41.977 0.743,42.538 0.112,42.599C0.075,42.602 0.037,42.604 0,42.604" style="fill:rgb(198,198,198);fill-rule:nonzero;"/>
                        </g>
                        <g transform="matrix(1,0,0,1,895.283,957.432)">
                            <path d="M0,19.17C-0.424,19.17 -0.831,18.934 -1.031,18.528C-1.311,17.959 -1.076,17.271 -0.506,16.991L33.501,0.278C34.066,0 34.757,0.233 35.038,0.802C35.317,1.372 35.083,2.06 34.514,2.339L0.506,19.052C0.344,19.132 0.171,19.17 0,19.17" style="fill:rgb(198,198,198);fill-rule:nonzero;"/>
                        </g>
                        <g transform="matrix(1,0,0,1,931.075,953.39)">
                            <path d="M0,10.582C-0.514,10.582 -0.982,10.233 -1.112,9.712L-3.154,1.547C-3.308,0.932 -2.935,0.309 -2.319,0.155C-1.704,0 -1.08,0.375 -0.927,0.99L1.115,9.155C1.269,9.77 0.896,10.394 0.28,10.547C0.187,10.571 0.093,10.582 0,10.582" style="fill:rgb(198,198,198);fill-rule:nonzero;"/>
                        </g>
                        <g transform="matrix(1,0,0,1,905.695,961.513)">
                            <path d="M0,17.513C-0.392,17.513 -0.773,17.312 -0.988,16.951C-1.312,16.405 -1.132,15.701 -0.587,15.377L24.795,0.324C25.341,0 26.046,0.18 26.368,0.725C26.692,1.271 26.512,1.975 25.967,2.299L0.586,17.352C0.401,17.461 0.2,17.513 0,17.513" style="fill:rgb(198,198,198);fill-rule:nonzero;"/>
                        </g>
                        <g transform="matrix(1,0,0,1,909.389,972.235)">
                            <path d="M0,13.169C-0.363,13.169 -0.721,12.997 -0.944,12.675L-8.376,1.959C-8.737,1.438 -8.607,0.722 -8.086,0.361C-7.564,0 -6.85,0.129 -6.489,0.65L0.942,11.366C1.305,11.888 1.175,12.603 0.653,12.964C0.454,13.103 0.226,13.169 0,13.169" style="fill:rgb(198,198,198);fill-rule:nonzero;"/>
                        </g>
                        <g transform="matrix(1,0,0,1,907.936,972.231)">
                            <path d="M0,11.078C-0.422,11.078 -0.826,10.845 -1.027,10.442C-1.311,9.875 -1.081,9.185 -0.514,8.902L16.759,0.281C17.324,0 18.016,0.228 18.298,0.796C18.582,1.363 18.352,2.053 17.784,2.336L0.512,10.957C0.348,11.039 0.173,11.078 0,11.078" style="fill:rgb(198,198,198);fill-rule:nonzero;"/>
                        </g>
                        <g transform="matrix(1,0,0,1,938.984,951.132)">
                            <path d="M0,25.47C-0.557,25.47 -1.046,25.064 -1.134,24.497L-4.705,1.407C-4.802,0.78 -4.372,0.193 -3.746,0.096C-3.12,0 -2.532,0.429 -2.436,1.055L1.136,24.146C1.233,24.773 0.804,25.36 0.177,25.456C0.117,25.466 0.059,25.47 0,25.47" style="fill:rgb(198,198,198);fill-rule:nonzero;"/>
                        </g>
                        <g transform="matrix(1,0,0,1,930.056,974.144)">
                            <path d="M0,7.985C-0.384,7.985 -0.76,7.792 -0.977,7.441C-1.311,6.902 -1.145,6.194 -0.604,5.86L8.325,0.333C8.863,0 9.571,0.166 9.905,0.705C10.239,1.244 10.073,1.952 9.533,2.286L0.604,7.813C0.416,7.93 0.206,7.985 0,7.985" style="fill:rgb(198,198,198);fill-rule:nonzero;"/>
                        </g>
                        <g transform="matrix(1,0,0,1,930.056,972.233)">
                            <path d="M0,9.896C-0.375,9.896 -0.742,9.712 -0.963,9.375L-5.811,1.934C-6.157,1.402 -6.007,0.691 -5.476,0.345C-4.944,0 -4.233,0.148 -3.887,0.68L0.962,8.121C1.308,8.652 1.157,9.364 0.627,9.71C0.433,9.836 0.216,9.896 0,9.896" style="fill:rgb(198,198,198);fill-rule:nonzero;"/>
                        </g>
                        <g transform="matrix(1,0,0,1,940.008,967.897)">
                            <path d="M0,16.997C-0.366,16.997 -0.726,16.822 -0.949,16.497L-10.899,1.954C-11.258,1.43 -11.123,0.716 -10.6,0.358C-10.076,0 -9.362,0.134 -9.004,0.657L0.947,15.2C1.305,15.724 1.17,16.438 0.647,16.796C0.449,16.932 0.224,16.997 0,16.997" style="fill:rgb(198,198,198);fill-rule:nonzero;"/>
                        </g>
                        <g transform="matrix(1,0,0,1,946.64,974.18)">
                            <path d="M0,10.714C-0.31,10.714 -0.618,10.59 -0.845,10.344L-8.499,2.052C-8.929,1.586 -8.899,0.86 -8.434,0.43C-7.969,0 -7.242,0.028 -6.811,0.494L0.844,8.787C1.273,9.253 1.244,9.98 0.778,10.409C0.558,10.613 0.278,10.714 0,10.714" style="fill:rgb(198,198,198);fill-rule:nonzero;"/>
                        </g>
                        <g transform="matrix(1,0,0,1,942.812,950.167)">
                            <path d="M0,30.581C-0.615,30.581 -1.125,30.094 -1.146,29.474L-2.167,1.217C-2.19,0.583 -1.695,0.051 -1.061,0.028C-0.456,0 0.104,0.5 0.128,1.134L1.147,29.392C1.171,30.025 0.676,30.558 0.042,30.58C0.028,30.581 0.014,30.581 0,30.581" style="fill:rgb(198,198,198);fill-rule:nonzero;"/>
                        </g>
                        <g transform="matrix(1,0,0,1,949.701,950.168)">
                            <path d="M0,37.277C-0.611,37.277 -1.119,36.796 -1.146,36.179L-2.678,1.224C-2.705,0.59 -2.214,0.054 -1.58,0.027C-0.962,0 -0.411,0.489 -0.383,1.124L1.148,36.079C1.176,36.712 0.685,37.248 0.051,37.276C0.033,37.277 0.018,37.277 0,37.277" style="fill:rgb(198,198,198);fill-rule:nonzero;"/>
                        </g>
                        <g transform="matrix(1,0,0,1,955.06,948.918)">
                            <path d="M0,38.782L-0.009,38.782C-0.643,38.778 -1.153,38.26 -1.148,37.626L-0.893,1.14C-0.889,0.509 -0.375,0 0.255,0L0.264,0C0.897,0.004 1.408,0.522 1.403,1.156L1.147,37.642C1.144,38.274 0.63,38.782 0,38.782" style="fill:rgb(198,198,198);fill-rule:nonzero;"/>
                        </g>
                        <g transform="matrix(1,0,0,1,966.798,904.632)">
                            <path d="M0,65.336C-0.017,65.336 -0.035,65.336 -0.053,65.335C-0.686,65.306 -1.177,64.769 -1.147,64.135L1.724,1.114C1.752,0.481 2.291,0 2.922,0.019C3.556,0.048 4.046,0.585 4.017,1.218L1.146,64.24C1.118,64.856 0.61,65.336 0,65.336" style="fill:rgb(198,198,198);fill-rule:nonzero;"/>
                        </g>
                        <g transform="matrix(1,0,0,1,963.737,967.575)">
                            <path d="M0,19.105C-0.069,19.105 -0.139,19.099 -0.209,19.086C-0.832,18.972 -1.245,18.373 -1.131,17.75L1.931,1.037C2.045,0.414 2.638,0 3.268,0.115C3.891,0.23 4.304,0.828 4.189,1.452L1.128,18.164C1.026,18.717 0.543,19.105 0,19.105" style="fill:rgb(198,198,198);fill-rule:nonzero;"/>
                        </g>
                        <g transform="matrix(1,0,0,1,968.232,967.671)">
                            <path d="M0,16.202C-0.634,16.202 -1.148,15.688 -1.148,15.054L-1.148,1.149C-1.148,0.514 -0.634,0 0,0C0.634,0 1.148,0.514 1.148,1.149L1.148,15.054C1.148,15.688 0.634,16.202 0,16.202" style="fill:rgb(198,198,198);fill-rule:nonzero;"/>
                        </g>
                        <g transform="matrix(1,0,0,1,972.409,967.545)">
                            <path d="M0,3.954C-0.101,3.954 -0.202,3.941 -0.303,3.913L-5.914,2.382C-6.526,2.215 -6.887,1.584 -6.72,0.972C-6.552,0.36 -5.92,0 -5.31,0.167L0.301,1.698C0.913,1.865 1.273,2.496 1.106,3.108C0.967,3.619 0.504,3.954 0,3.954" style="fill:rgb(198,198,198);fill-rule:nonzero;"/>
                        </g>
                        <g transform="matrix(1,0,0,1,973.429,969.154)">
                            <path d="M0,17.526C-0.6,17.526 -1.104,17.062 -1.145,16.455L-2.167,1.274C-2.21,0.641 -1.731,0.094 -1.099,0.051C-0.476,0 0.081,0.486 0.124,1.12L1.146,16.301C1.189,16.933 0.711,17.481 0.078,17.524C0.052,17.526 0.025,17.526 0,17.526" style="fill:rgb(198,198,198);fill-rule:nonzero;"/>
                        </g>
                        <g transform="matrix(1,0,0,1,962.205,874.421)">
                            <path d="M0,19.386C-0.099,19.386 -0.2,19.373 -0.301,19.345L-62.939,2.381C-63.551,2.216 -63.913,1.585 -63.747,0.973C-63.581,0.361 -62.953,0 -62.339,0.165L0.3,17.129C0.911,17.295 1.273,17.925 1.108,18.537C0.969,19.049 0.506,19.386 0,19.386" style="fill:rgb(198,198,198);fill-rule:nonzero;"/>
                        </g>
                        <g transform="matrix(1,0,0,1,962.969,891.468)">
                            <path d="M0,14.33C-0.602,14.33 -1.106,13.863 -1.146,13.255L-1.911,1.263C-1.951,0.631 -1.471,0.084 -0.838,0.044C-0.203,0 0.341,0.485 0.381,1.117L1.146,13.109C1.187,13.742 0.706,14.288 0.073,14.328C0.049,14.33 0.023,14.33 0,14.33" style="fill:rgb(198,198,198);fill-rule:nonzero;"/>
                        </g>
                        <g transform="matrix(1,0,0,1,1110.48,904.65)">
                            <path d="M0,6.78L-0.034,6.78L-151.877,2.296C-152.511,2.277 -153.01,1.748 -152.99,1.113C-152.973,0.491 -152.462,0 -151.844,0L-151.81,0L0.033,4.484C0.667,4.503 1.166,5.032 1.146,5.666C1.129,6.288 0.618,6.78 0,6.78" style="fill:rgb(198,198,198);fill-rule:nonzero;"/>
                        </g>
                        <g transform="matrix(1,0,0,1,958.631,897.411)">
                            <path d="M0,9.535C-0.546,9.535 -1.029,9.144 -1.129,8.588L-2.404,1.444C-2.516,0.82 -2.101,0.223 -1.477,0.112C-0.854,0 -0.256,0.415 -0.145,1.04L1.132,8.185C1.243,8.809 0.827,9.406 0.203,9.517C0.136,9.529 0.067,9.535 0,9.535" style="fill:rgb(198,198,198);fill-rule:nonzero;"/>
                        </g>
                        <g transform="matrix(1,0,0,1,957.356,897.506)">
                            <path d="M0,2.296L-3.827,2.296C-4.461,2.296 -4.976,1.782 -4.976,1.148C-4.976,0.514 -4.461,0 -3.827,0L0,0C0.634,0 1.148,0.514 1.148,1.148C1.148,1.782 0.634,2.296 0,2.296" style="fill:rgb(198,198,198);fill-rule:nonzero;"/>
                        </g>
                        <g transform="matrix(1,0,0,1,953.529,897.505)">
                            <path d="M0,17.835C-0.634,17.835 -1.148,17.321 -1.148,16.687L-1.148,1.148C-1.148,0.514 -0.634,0 0,0C0.634,0 1.148,0.514 1.148,1.148L1.148,16.687C1.148,17.321 0.634,17.835 0,17.835" style="fill:rgb(198,198,198);fill-rule:nonzero;"/>
                        </g>
                        <g transform="matrix(1,0,0,1,959.142,904.611)">
                            <path d="M0,10.729C-0.603,10.729 -1.109,10.26 -1.146,9.65L-1.656,1.256C-1.695,0.624 -1.213,0.079 -0.58,0.041C0.042,0 0.598,0.484 0.636,1.117L1.146,9.511C1.186,10.144 0.703,10.688 0.07,10.727C0.047,10.728 0.022,10.729 0,10.729" style="fill:rgb(198,198,198);fill-rule:nonzero;"/>
                        </g>
                        <g transform="matrix(1,0,0,1,959.142,913.044)">
                            <path d="M0,2.296L-5.613,2.296C-6.247,2.296 -6.762,1.782 -6.762,1.148C-6.762,0.513 -6.247,0 -5.613,0L0,0C0.634,0 1.148,0.513 1.148,1.148C1.148,1.782 0.634,2.296 0,2.296" style="fill:rgb(198,198,198);fill-rule:nonzero;"/>
                        </g>
                        <g transform="matrix(1,0,0,1,1095.9,911.631)">
                            <path d="M0,5.394C-0.02,5.394 -0.038,5.394 -0.059,5.393L-61.406,2.331C-62.04,2.299 -62.527,1.76 -62.496,1.127C-62.464,0.494 -61.947,0 -61.291,0.037L0.057,3.099C0.69,3.13 1.178,3.67 1.146,4.303C1.115,4.916 0.607,5.394 0,5.394" style="fill:rgb(198,198,198);fill-rule:nonzero;"/>
                        </g>
                        <g transform="matrix(1,0,0,1,1034.55,906.893)">
                            <path d="M0,7.07C-0.634,7.07 -1.148,6.556 -1.148,5.922L-1.148,1.148C-1.148,0.513 -0.634,0 0,0C0.634,0 1.147,0.513 1.147,1.148L1.147,5.922C1.147,6.556 0.634,7.07 0,7.07" style="fill:rgb(198,198,198);fill-rule:nonzero;"/>
                        </g>
                        <g transform="matrix(1,0,0,1,1095.9,909.165)">
                            <path d="M0,7.86C-0.087,7.86 -0.174,7.85 -0.262,7.829C-0.88,7.685 -1.263,7.067 -1.119,6.45L0.157,1.001C0.302,0.383 0.914,0 1.537,0.144C2.154,0.289 2.538,0.906 2.394,1.524L1.118,6.973C0.993,7.503 0.521,7.86 0,7.86" style="fill:rgb(198,198,198);fill-rule:nonzero;"/>
                        </g>
                        <g transform="matrix(1,0,0,1,988.484,911.523)">
                            <path d="M0,5.247C-0.124,5.247 -0.249,5.227 -0.373,5.185L-8.538,2.377C-9.138,2.172 -9.456,1.518 -9.251,0.918C-9.044,0.319 -8.388,0 -7.792,0.206L0.373,3.013C0.974,3.219 1.292,3.872 1.087,4.472C0.923,4.948 0.478,5.247 0,5.247" style="fill:rgb(198,198,198);fill-rule:nonzero;"/>
                        </g>
                        <g transform="matrix(1,0,0,1,1096.54,914.448)">
                            <path d="M0,6.914C-0.017,6.914 -0.033,6.914 -0.05,6.913L-108.104,2.32C-108.739,2.293 -109.23,1.758 -109.204,1.124C-109.177,0.491 -108.643,0 -108.008,0.026L0.048,4.619C0.682,4.645 1.174,5.181 1.146,5.814C1.12,6.431 0.611,6.914 0,6.914" style="fill:rgb(198,198,198);fill-rule:nonzero;"/>
                        </g>
                        <g transform="matrix(1,0,0,1,982.362,912.979)">
                            <path d="M0,20.885C-0.04,20.885 -0.081,20.883 -0.122,20.879C-0.753,20.812 -1.21,20.246 -1.143,19.615L0.823,1.092C0.889,0.461 1.456,0 2.086,0.071C2.717,0.138 3.174,0.703 3.106,1.334L1.141,19.858C1.078,20.447 0.58,20.885 0,20.885" style="fill:rgb(198,198,198);fill-rule:nonzero;"/>
                        </g>
                        <g transform="matrix(1,0,0,1,1096.54,916.68)">
                            <path d="M0,4.682C-0.552,4.682 -1.039,4.283 -1.132,3.721C-1.235,3.095 -0.812,2.504 -0.186,2.401L13.72,0.104C14.34,0 14.935,0.425 15.039,1.05C15.143,1.676 14.719,2.266 14.093,2.37L0.187,4.666C0.125,4.677 0.062,4.682 0,4.682" style="fill:rgb(198,198,198);fill-rule:nonzero;"/>
                        </g>
                        <g transform="matrix(1,0,0,1,1053.04,917.215)">
                            <path d="M0,21.242C-0.017,21.242 -0.032,21.242 -0.048,21.241C-0.683,21.215 -1.175,20.68 -1.148,20.047L-0.37,1.136C-0.345,0.503 0.187,0 0.824,0.036C1.458,0.062 1.95,0.597 1.925,1.23L1.146,20.141C1.121,20.759 0.611,21.242 0,21.242" style="fill:rgb(198,198,198);fill-rule:nonzero;"/>
                        </g>
                        <g transform="matrix(1,0,0,1,1048.44,935.998)">
                            <path d="M0,11.134C-0.182,11.134 -0.365,11.091 -0.536,11C-1.097,10.703 -1.311,10.009 -1.015,9.448L3.578,0.773C3.876,0.212 4.574,0 5.131,0.296C5.69,0.592 5.904,1.287 5.608,1.847L1.016,10.523C0.81,10.912 0.411,11.134 0,11.134" style="fill:rgb(198,198,198);fill-rule:nonzero;"/>
                        </g>
                        <g transform="matrix(1,0,0,1,1048.44,944.836)">
                            <path d="M0,10.716C-0.634,10.716 -1.148,10.202 -1.148,9.568L-1.148,1.148C-1.148,0.514 -0.634,0 0,0C0.634,0 1.148,0.514 1.148,1.148L1.148,9.568C1.148,10.202 0.634,10.716 0,10.716" style="fill:rgb(198,198,198);fill-rule:nonzero;"/>
                        </g>
                        <g transform="matrix(1,0,0,1,1048.44,947.505)">
                            <path d="M0,8.047C-0.112,8.047 -0.227,8.03 -0.34,7.995L-18.455,2.381C-19.061,2.194 -19.399,1.551 -19.212,0.945C-19.024,0.34 -18.384,0 -17.775,0.189L0.34,5.802C0.945,5.989 1.284,6.632 1.097,7.238C0.944,7.731 0.49,8.047 0,8.047" style="fill:rgb(198,198,198);fill-rule:nonzero;"/>
                        </g>
                        <g transform="matrix(1,0,0,1,1029.82,947.618)">
                            <path d="M0,23.116L-0.029,23.116C-0.663,23.1 -1.164,22.574 -1.148,21.94L-0.639,1.145C-0.623,0.511 -0.108,0 0.538,0.025C1.172,0.041 1.673,0.567 1.658,1.201L1.147,21.996C1.132,22.62 0.62,23.116 0,23.116" style="fill:rgb(198,198,198);fill-rule:nonzero;"/>
                        </g>
                        <g transform="matrix(1,0,0,1,1024.46,968.302)">
                            <path d="M0,8.619C-0.267,8.619 -0.534,8.527 -0.751,8.339C-1.23,7.924 -1.282,7.198 -0.867,6.719L4.491,0.532C4.905,0.053 5.629,0 6.11,0.416C6.59,0.83 6.642,1.556 6.227,2.035L0.868,8.223C0.642,8.485 0.322,8.619 0,8.619" style="fill:rgb(198,198,198);fill-rule:nonzero;"/>
                        </g>
                        <g transform="matrix(1,0,0,1,1025.48,974.57)">
                            <path d="M0,13.641C-0.588,13.641 -1.089,13.193 -1.143,12.597L-2.162,1.306C-2.22,0.675 -1.754,0.116 -1.122,0.059C-0.492,0 0.067,0.468 0.125,1.099L1.146,12.39C1.202,13.021 0.736,13.579 0.104,13.637C0.069,13.64 0.034,13.641 0,13.641" style="fill:rgb(198,198,198);fill-rule:nonzero;"/>
                        </g>
                        <g transform="matrix(1,0,0,1,1110.45,875.921)">
                            <path d="M0,43.145C-0.022,43.145 -0.044,43.144 -0.065,43.143C-0.698,43.107 -1.183,42.565 -1.147,41.932L1.148,1.108C1.185,0.475 1.735,0 2.359,0.026C2.992,0.062 3.478,0.604 3.442,1.237L1.146,42.062C1.111,42.672 0.604,43.145 0,43.145" style="fill:rgb(198,198,198);fill-rule:nonzero;"/>
                        </g>
                        <g transform="matrix(1,0,0,1,1108.91,916.758)">
                            <path d="M0,46.704L-0.04,46.704C-0.674,46.682 -1.17,46.15 -1.148,45.517L0.383,1.121C0.405,0.487 0.965,0 1.569,0.013C2.204,0.035 2.699,0.566 2.678,1.2L1.146,45.596C1.125,46.216 0.616,46.704 0,46.704" style="fill:rgb(198,198,198);fill-rule:nonzero;"/>
                        </g>
                        <g transform="matrix(1,0,0,1,1099.99,926.584)">
                            <path d="M0,40.449C-0.055,40.449 -0.11,40.446 -0.166,40.437C-0.794,40.346 -1.229,39.764 -1.138,39.136L3.372,8.04C3.627,6.284 4.476,4.645 5.76,3.424L8.902,0.437C9.36,0 10.087,0.018 10.525,0.478C10.963,0.938 10.944,1.665 10.484,2.101L7.342,5.088C6.429,5.956 5.826,7.122 5.645,8.37L1.135,39.466C1.052,40.037 0.562,40.449 0,40.449" style="fill:rgb(198,198,198);fill-rule:nonzero;"/>
                        </g>
                        <g transform="matrix(1,0,0,1,1092.33,964.583)">
                            <path d="M0,21.077C-0.145,21.077 -0.293,21.049 -0.436,20.991C-1.021,20.75 -1.302,20.079 -1.062,19.492L6.594,0.866C6.835,0.281 7.505,0 8.092,0.241C8.678,0.481 8.958,1.152 8.718,1.739L1.063,20.365C0.881,20.809 0.452,21.077 0,21.077" style="fill:rgb(198,198,198);fill-rule:nonzero;"/>
                        </g>
                        <g transform="matrix(1,0,0,1,1134.56,927.887)">
                            <path d="M0,22.122C-0.396,22.122 -0.783,21.916 -0.995,21.548C-1.969,19.862 -2.687,18.055 -3.136,16.165L-7.706,16.143C-8.512,16.14 -9.425,16.135 -10.328,15.914C-13.247,15.198 -14.967,12.634 -16.485,10.372C-16.77,9.948 -17.051,9.528 -17.338,9.124C-19.37,6.262 -22.1,3.915 -25.232,2.335C-25.799,2.05 -26.026,1.359 -25.741,0.793C-25.456,0.227 -24.762,0 -24.199,0.285C-20.733,2.032 -17.713,4.629 -15.466,7.794C-15.167,8.215 -14.873,8.652 -14.578,9.092C-13.168,11.194 -11.836,13.18 -9.781,13.683C-9.143,13.841 -8.438,13.844 -7.694,13.847L-1.252,13.878L-1.077,14.81C-0.706,16.782 -0.01,18.663 0.993,20.399C1.31,20.949 1.122,21.651 0.573,21.968C0.393,22.072 0.194,22.122 0,22.122" style="fill:rgb(198,198,198);fill-rule:nonzero;"/>
                        </g>
                        <g transform="matrix(1,0,0,1,1171.94,961.165)">
                            <path d="M0,2.551L-0.005,2.551L-63.026,2.296C-63.661,2.294 -64.173,1.778 -64.17,1.143C-64.168,0.511 -63.654,0 -63.022,0L-63.018,0L0.004,0.255C0.639,0.258 1.15,0.774 1.148,1.407C1.146,2.04 0.632,2.551 0,2.551" style="fill:rgb(198,198,198);fill-rule:nonzero;"/>
                        </g>
                        <g transform="matrix(1,0,0,1,1175.51,961.296)">
                            <path d="M0,5.737C-0.279,5.737 -0.561,5.635 -0.781,5.43L-4.353,2.113C-4.817,1.682 -4.845,0.955 -4.412,0.49C-3.981,0.026 -3.254,0 -2.79,0.431L0.781,3.748C1.246,4.179 1.273,4.905 0.841,5.371C0.615,5.614 0.309,5.737 0,5.737" style="fill:rgb(198,198,198);fill-rule:nonzero;"/>
                        </g>
                        <g transform="matrix(1,0,0,1,1176.78,963.025)">
                            <path d="M0,22.634C-0.582,22.634 -1.081,22.193 -1.141,21.601L-3.182,1.317C-3.245,0.686 -2.786,0.123 -2.155,0.059C-1.533,0 -0.96,0.455 -0.897,1.087L1.144,21.371C1.207,22.002 0.748,22.565 0.117,22.629C0.078,22.633 0.039,22.634 0,22.634" style="fill:rgb(198,198,198);fill-rule:nonzero;"/>
                        </g>
                        <g transform="matrix(1,0,0,1,1184.17,958.061)">
                            <path d="M0,28.109C-0.593,28.109 -1.096,27.653 -1.143,27.051L-3.174,1.281C-3.225,0.649 -2.752,0.096 -2.12,0.047C-1.493,0 -0.935,0.468 -0.886,1.101L1.146,26.871C1.196,27.503 0.724,28.056 0.093,28.106C0.062,28.108 0.031,28.109 0,28.109" style="fill:rgb(198,198,198);fill-rule:nonzero;"/>
                        </g>
                        <g transform="matrix(1,0,0,1,1196.94,968.79)">
                            <path d="M0,18.401C-0.013,18.401 -0.025,18.401 -0.038,18.4C-0.672,18.38 -1.169,17.85 -1.148,17.216L-0.638,1.142C-0.618,0.507 -0.109,0 0.546,0.031C1.18,0.051 1.677,0.581 1.657,1.215L1.146,17.289C1.127,17.91 0.617,18.401 0,18.401" style="fill:rgb(198,198,198);fill-rule:nonzero;"/>
                        </g>
                        <g transform="matrix(1,0,0,1,1197.45,968.309)">
                            <path d="M0,2.807C-0.625,2.807 -1.137,2.306 -1.147,1.679C-1.158,1.044 -0.652,0.522 -0.019,0.511L30.344,0C30.942,0.003 31.501,0.495 31.512,1.129C31.522,1.764 31.017,2.286 30.383,2.297L0.021,2.807L0,2.807Z" style="fill:rgb(198,198,198);fill-rule:nonzero;"/>
                        </g>
                        <g transform="matrix(1,0,0,1,1254.94,839.139)">
                            <path d="M0,15.124C-0.574,15.124 -1.07,14.693 -1.139,14.108L-2.621,1.346C-2.694,0.716 -2.243,0.146 -1.612,0.073C-0.985,0 -0.413,0.452 -0.34,1.082L1.143,13.844C1.216,14.473 0.765,15.043 0.134,15.116C0.09,15.122 0.045,15.124 0,15.124" style="fill:rgb(198,198,198);fill-rule:nonzero;"/>
                        </g>
                        <g transform="matrix(1,0,0,1,1251.93,851.946)">
                            <path d="M0,135.372L-0.026,135.372C-0.66,135.357 -1.163,134.832 -1.148,134.198L1.864,1.143C1.879,0.509 2.411,0 3.039,0.021C3.673,0.035 4.175,0.56 4.161,1.195L1.147,134.25C1.134,134.875 0.622,135.372 0,135.372" style="fill:rgb(198,198,198);fill-rule:nonzero;"/>
                        </g>
                        <g transform="matrix(1,0,0,1,1124.48,808.696)">
                            <path d="M0,18.605C-0.469,18.605 -0.908,18.316 -1.078,17.85L-6.979,1.69C-7.196,1.094 -6.891,0.435 -6.294,0.217C-5.697,0 -5.039,0.306 -4.822,0.902L1.079,17.063C1.297,17.658 0.99,18.317 0.395,18.535C0.265,18.583 0.131,18.605 0,18.605" style="fill:rgb(198,198,198);fill-rule:nonzero;"/>
                        </g>
                        <g transform="matrix(1,0,0,1,1112.74,824.892)">
                            <path d="M0,53.35C-0.085,53.35 -0.172,53.34 -0.259,53.321C-0.877,53.178 -1.262,52.562 -1.12,51.944L10.617,1.002C10.761,0.385 11.377,0 11.994,0.142C12.612,0.284 12.998,0.9 12.855,1.518L1.118,52.459C0.996,52.991 0.523,53.35 0,53.35" style="fill:rgb(198,198,198);fill-rule:nonzero;"/>
                        </g>
                        <g transform="matrix(1,0,0,1,1070.52,798.609)">
                            <path d="M0,45.188C-0.048,45.188 -0.096,45.185 -0.144,45.179C-0.773,45.101 -1.22,44.527 -1.141,43.897L4.208,1.075C4.286,0.445 4.877,0 5.489,0.078C6.118,0.156 6.564,0.73 6.486,1.359L1.138,44.182C1.065,44.763 0.57,45.188 0,45.188" style="fill:rgb(198,198,198);fill-rule:nonzero;"/>
                        </g>
                        <g transform="matrix(1,0,0,1,1032.16,789.878)">
                            <path d="M0,14.882C-0.071,14.882 -0.145,14.875 -0.217,14.861C-0.84,14.741 -1.248,14.14 -1.129,13.517L1.266,1.032C1.386,0.409 1.988,0 2.609,0.121C3.231,0.24 3.64,0.841 3.521,1.465L1.127,13.95C1.021,14.499 0.54,14.882 0,14.882" style="fill:rgb(198,198,198);fill-rule:nonzero;"/>
                        </g>
                        <g transform="matrix(1,0,0,1,1027.14,876.277)">
                            <path d="M0,5.984C-0.583,5.984 -1.081,5.542 -1.141,4.95C-1.204,4.318 -0.742,3.756 -0.111,3.693L36.375,0.057C36.994,0 37.567,0.455 37.631,1.086C37.694,1.717 37.232,2.279 36.602,2.342L0.115,5.978C0.077,5.982 0.038,5.984 0,5.984" style="fill:rgb(198,198,198);fill-rule:nonzero;"/>
                        </g>
                        <g transform="matrix(1,0,0,1,1112.34,876.249)">
                            <path d="M0,9.075C-0.053,9.075 -0.104,9.072 -0.158,9.064L-48.875,2.365C-49.504,2.279 -49.942,1.7 -49.856,1.072C-49.771,0.443 -49.194,0 -48.563,0.091L0.154,6.789C0.783,6.876 1.222,7.455 1.136,8.083C1.057,8.658 0.564,9.075 0,9.075" style="fill:rgb(198,198,198);fill-rule:nonzero;"/>
                        </g>
                        <g transform="matrix(1,0,0,1,1213.84,876.504)">
                            <path d="M0,25.141C-2.966,25.141 -6.466,24.476 -12.278,22.629C-15.092,21.736 -17.056,20.554 -18.954,19.412C-21.325,17.985 -23.373,16.753 -26.755,16.27C-29.063,15.94 -41.752,13.645 -52.946,11.62C-60.882,10.185 -67.736,8.946 -69.348,8.685C-72.05,8.248 -80.398,7.85 -83.142,8.224C-83.072,8.446 -83.029,8.669 -83.002,8.885C-82.643,9.677 -82.224,10.77 -82.339,12.072L-82.606,15.122L-84.41,12.648C-85.169,11.608 -85.21,10.55 -85.239,9.777C-85.244,9.67 -85.248,9.575 -85.253,9.487C-85.396,9.181 -85.544,8.858 -85.638,8.527C-85.667,8.507 -85.699,8.488 -85.733,8.467C-87.556,7.39 -90.271,6.416 -92.896,5.475C-95.621,4.498 -98.439,3.488 -100.45,2.299C-100.996,1.976 -101.177,1.272 -100.854,0.726C-100.531,0.181 -99.827,0 -99.281,0.322C-97.459,1.4 -94.745,2.372 -92.12,3.314C-89.503,4.252 -86.801,5.221 -84.81,6.349C-84.395,6.115 -83.916,6.016 -83.53,5.96C-80.63,5.538 -71.895,5.948 -68.981,6.418C-67.349,6.682 -60.485,7.924 -52.538,9.361C-41.362,11.382 -28.697,13.673 -26.431,13.996C-22.588,14.546 -20.139,16.019 -17.771,17.444C-15.984,18.518 -14.139,19.629 -11.583,20.441C-1.402,23.676 1.063,23.118 7.021,21.771C9.555,21.199 12.707,20.486 17.265,19.864C23.233,19.049 25.684,17.062 28.785,14.547C31.063,12.7 33.646,10.605 38.028,8.731C38.611,8.48 39.286,8.752 39.535,9.335C39.785,9.917 39.515,10.593 38.932,10.842C34.843,12.591 32.499,14.492 30.231,16.331C27.12,18.854 24.181,21.238 17.576,22.139C13.116,22.747 10.018,23.448 7.528,24.011C4.673,24.657 2.531,25.141 0,25.141" style="fill:rgb(198,198,198);fill-rule:nonzero;"/>
                        </g>
                        <g transform="matrix(1,0,0,1,1299.69,851.851)">
                            <path d="M0,12.869C-0.086,12.869 -0.175,12.859 -0.263,12.838L-45.011,2.382C-45.628,2.238 -46.012,1.62 -45.867,1.003C-45.723,0.386 -45.111,0 -44.487,0.146L0.261,10.602C0.878,10.747 1.262,11.364 1.117,11.982C0.993,12.511 0.521,12.869 0,12.869" style="fill:rgb(198,198,198);fill-rule:nonzero;"/>
                        </g>
                        <g transform="matrix(1,0,0,1,1295.17,879.965)">
                            <path d="M0,2.296L-40.976,2.296C-41.609,2.296 -42.124,1.782 -42.124,1.148C-42.124,0.513 -41.609,0 -40.976,0L0,0C0.634,0 1.148,0.513 1.148,1.148C1.148,1.782 0.634,2.296 0,2.296" style="fill:rgb(198,198,198);fill-rule:nonzero;"/>
                        </g>
                        <g transform="matrix(1,0,0,1,1295.17,869.171)">
                            <path d="M0,13.09C-0.055,13.09 -0.109,13.086 -0.164,13.078C-0.792,12.988 -1.229,12.407 -1.139,11.779L0.392,1.063C0.481,0.435 1.061,0 1.691,0.089C2.319,0.178 2.756,0.76 2.666,1.387L1.135,12.104C1.053,12.677 0.562,13.09 0,13.09" style="fill:rgb(198,198,198);fill-rule:nonzero;"/>
                        </g>
                        <g transform="matrix(1,0,0,1,1296.7,866.148)">
                            <path d="M0,5.397C-0.075,5.397 -0.152,5.39 -0.229,5.374L-15.028,2.376C-15.649,2.25 -16.052,1.645 -15.926,1.023C-15.8,0.401 -15.192,0 -14.572,0.126L0.227,3.124C0.848,3.249 1.25,3.855 1.124,4.477C1.014,5.021 0.534,5.397 0,5.397" style="fill:rgb(198,198,198);fill-rule:nonzero;"/>
                        </g>
                        <g transform="matrix(1,0,0,1,1281.91,861.275)">
                            <path d="M0,7.272C-0.103,7.272 -0.206,7.258 -0.31,7.23L-17.659,2.381C-18.27,2.21 -18.627,1.577 -18.456,0.966C-18.286,0.355 -17.652,0 -17.041,0.169L0.309,5.018C0.919,5.188 1.276,5.822 1.104,6.433C0.964,6.939 0.503,7.272 0,7.272" style="fill:rgb(198,198,198);fill-rule:nonzero;"/>
                        </g>
                        <g transform="matrix(1,0,0,1,1264.56,852.438)">
                            <path d="M0,11.261C-0.396,11.261 -0.781,11.056 -0.994,10.689L-6.098,1.886C-6.415,1.337 -6.228,0.635 -5.68,0.317C-5.132,0 -4.43,0.185 -4.11,0.734L0.993,9.537C1.311,10.085 1.124,10.788 0.575,11.106C0.395,11.211 0.196,11.261 0,11.261" style="fill:rgb(198,198,198);fill-rule:nonzero;"/>
                        </g>
                        <g transform="matrix(1,0,0,1,1259.96,861.286)">
                            <path d="M0,20.975C-0.091,20.975 -0.184,20.964 -0.276,20.941C-0.892,20.789 -1.268,20.166 -1.115,19.551L3.478,0.989C3.63,0.374 4.251,0 4.868,0.15C5.483,0.302 5.859,0.925 5.707,1.54L1.114,20.102C0.984,20.625 0.516,20.975 0,20.975" style="fill:rgb(198,198,198);fill-rule:nonzero;"/>
                        </g>
                        <g transform="matrix(1,0,0,1,1289.3,865.757)">
                            <path d="M0,16.504C-0.386,16.504 -0.764,16.309 -0.98,15.954L-9.563,1.909C-9.894,1.368 -9.724,0.662 -9.182,0.331C-8.642,0 -7.935,0.171 -7.604,0.712L0.979,14.757C1.31,15.298 1.14,16.005 0.599,16.335C0.411,16.45 0.204,16.504 0,16.504" style="fill:rgb(198,198,198);fill-rule:nonzero;"/>
                        </g>
                        <g transform="matrix(1,0,0,1,1279.35,867.607)">
                            <path d="M0,14.654C-0.255,14.654 -0.511,14.57 -0.725,14.396C-1.216,13.995 -1.29,13.272 -0.89,12.78L9.062,0.565C9.463,0.073 10.185,0 10.677,0.4C11.169,0.8 11.242,1.524 10.842,2.015L0.892,14.231C0.664,14.509 0.334,14.654 0,14.654" style="fill:rgb(198,198,198);fill-rule:nonzero;"/>
                        </g>
                        <g transform="matrix(1,0,0,1,1288.03,879.912)">
                            <path d="M0,18.487C-0.03,18.487 -0.061,18.486 -0.092,18.483C-0.724,18.433 -1.195,17.88 -1.146,17.248L0.131,1.11C0.18,0.478 0.733,0 1.365,0.056C1.998,0.106 2.47,0.659 2.419,1.291L1.144,17.429C1.097,18.03 0.593,18.487 0,18.487" style="fill:rgb(198,198,198);fill-rule:nonzero;"/>
                        </g>
                        <g transform="matrix(1,0,0,1,1292.37,899.224)">
                            <path d="M0,24.179C-0.096,24.179 -0.191,24.167 -0.288,24.142C-0.902,23.984 -1.271,23.358 -1.112,22.744L4.5,0.983C4.658,0.368 5.284,0 5.898,0.158C6.513,0.316 6.882,0.942 6.724,1.556L1.11,23.317C0.978,23.835 0.511,24.179 0,24.179" style="fill:rgb(198,198,198);fill-rule:nonzero;"/>
                        </g>
                        <g transform="matrix(1,0,0,1,1293.39,879.865)">
                            <path d="M0,11.9C-0.07,11.9 -0.142,11.893 -0.214,11.879C-0.836,11.763 -1.247,11.163 -1.13,10.539L0.656,1.035C0.773,0.412 1.372,0 1.997,0.119C2.62,0.236 3.03,0.836 2.914,1.46L1.127,10.963C1.023,11.515 0.541,11.9 0,11.9" style="fill:rgb(198,198,198);fill-rule:nonzero;"/>
                        </g>
                        <g transform="matrix(1,0,0,1,1297.98,889.31)">
                            <path d="M0,12.333C-0.433,12.333 -0.848,12.087 -1.042,11.668L-5.635,1.791C-5.901,1.216 -5.652,0.533 -5.077,0.266C-4.501,0 -3.818,0.248 -3.552,0.823L1.041,10.7C1.308,11.275 1.059,11.958 0.484,12.226C0.327,12.298 0.162,12.333 0,12.333" style="fill:rgb(198,198,198);fill-rule:nonzero;"/>
                        </g>
                        <g transform="matrix(1,0,0,1,1305.89,856.85)">
                            <path d="M0,62.726C-0.089,62.726 -0.18,62.716 -0.271,62.694C-0.887,62.544 -1.266,61.924 -1.116,61.308L13.486,0.996C13.636,0.38 14.254,0 14.872,0.15C15.488,0.299 15.867,0.92 15.718,1.536L1.115,61.848C0.988,62.373 0.519,62.726 0,62.726" style="fill:rgb(198,198,198);fill-rule:nonzero;"/>
                        </g>
                        <g transform="matrix(1,0,0,1,1301.3,917.159)">
                            <path d="M0,20.788C-0.092,20.788 -0.186,20.777 -0.279,20.753C-0.895,20.6 -1.269,19.976 -1.114,19.361L3.479,0.991C3.632,0.375 4.25,0 4.871,0.155C5.486,0.309 5.86,0.932 5.706,1.547L1.113,19.918C0.983,20.44 0.515,20.788 0,20.788" style="fill:rgb(198,198,198);fill-rule:nonzero;"/>
                        </g>
                        <g transform="matrix(1,0,0,1,1299.69,935.591)">
                            <path d="M0,17.664C-0.04,17.664 -0.08,17.662 -0.121,17.658C-0.752,17.592 -1.209,17.026 -1.144,16.396L0.467,1.087C0.534,0.456 1.106,0 1.729,0.065C2.359,0.131 2.816,0.697 2.751,1.327L1.141,16.636C1.079,17.226 0.58,17.664 0,17.664" style="fill:rgb(198,198,198);fill-rule:nonzero;"/>
                        </g>
                        <g transform="matrix(1,0,0,1,1300.49,950.931)">
                            <path d="M0,35.239C-0.621,35.239 -1.131,34.743 -1.147,34.119L-1.952,1.205C-1.967,0.571 -1.466,0.044 -0.832,0.029C-0.179,0 0.328,0.514 0.344,1.149L1.149,34.063C1.164,34.697 0.663,35.223 0.029,35.239L0,35.239" style="fill:rgb(198,198,198);fill-rule:nonzero;"/>
                        </g>
                        <g transform="matrix(1,0,0,1,1325.28,860.334)">
                            <path d="M0,38.065C-0.085,38.065 -0.171,38.055 -0.258,38.036C-0.876,37.895 -1.262,37.278 -1.12,36.66L7.045,1.003C7.187,0.386 7.798,0 8.42,0.141C9.038,0.282 9.425,0.898 9.283,1.516L1.118,37.173C0.996,37.705 0.523,38.065 0,38.065" style="fill:rgb(198,198,198);fill-rule:nonzero;"/>
                        </g>
                        <g transform="matrix(1,0,0,1,1325.53,896.103)">
                            <path d="M0,24.687C-0.629,24.687 -1.141,24.182 -1.148,23.552L-1.403,1.161C-1.411,0.526 -0.902,0.007 -0.268,0L-0.255,0C0.374,0 0.886,0.505 0.894,1.134L1.148,23.526C1.155,24.16 0.647,24.68 0.013,24.687L0,24.687Z" style="fill:rgb(198,198,198);fill-rule:nonzero;"/>
                        </g>
                        <g transform="matrix(1,0,0,1,1329.36,918.354)">
                            <path d="M0,14.235C-0.484,14.235 -0.935,13.926 -1.092,13.441L-4.919,1.643C-5.115,1.039 -4.785,0.392 -4.182,0.196C-3.576,0 -2.931,0.331 -2.735,0.934L1.092,12.732C1.288,13.335 0.957,13.983 0.354,14.178C0.236,14.216 0.117,14.235 0,14.235" style="fill:rgb(198,198,198);fill-rule:nonzero;"/>
                        </g>
                        <g transform="matrix(1,0,0,1,1353.35,930.226)">
                            <path d="M0,5.169C-0.044,5.169 -0.089,5.167 -0.135,5.161L-24.119,2.355C-24.749,2.281 -25.199,1.711 -25.126,1.081C-25.052,0.45 -24.478,0 -23.852,0.074L0.133,2.88C0.762,2.954 1.213,3.524 1.14,4.154C1.071,4.739 0.574,5.169 0,5.169" style="fill:rgb(198,198,198);fill-rule:nonzero;"/>
                        </g>
                        <g transform="matrix(1,0,0,1,1310.48,913.584)">
                            <path d="M0,5.737C-0.077,5.737 -0.155,5.729 -0.233,5.713L-16.436,2.377C-17.057,2.249 -17.457,1.642 -17.328,1.021C-17.2,0.4 -16.597,0 -15.972,0.128L0.23,3.464C0.852,3.592 1.251,4.199 1.123,4.82C1.011,5.363 0.533,5.737 0,5.737" style="fill:rgb(198,198,198);fill-rule:nonzero;"/>
                        </g>
                        <g transform="matrix(1,0,0,1,1329.36,916.869)">
                            <path d="M0,15.72C-0.228,15.72 -0.459,15.653 -0.659,15.511L-19.54,2.243C-20.059,1.879 -20.184,1.163 -19.819,0.644C-19.454,0.125 -18.735,0 -18.22,0.365L0.661,13.633C1.18,13.997 1.305,14.713 0.94,15.232C0.717,15.55 0.361,15.72 0,15.72" style="fill:rgb(198,198,198);fill-rule:nonzero;"/>
                        </g>
                        <g transform="matrix(1,0,0,1,1274.68,905.032)">
                            <path d="M0,15.758C-0.634,15.758 -1.148,15.244 -1.148,14.61L-1.148,1.149C-1.148,0.514 -0.634,0 0,0C0.634,0 1.148,0.514 1.148,1.149L1.148,14.61C1.148,15.244 0.634,15.758 0,15.758" style="fill:rgb(198,198,198);fill-rule:nonzero;"/>
                        </g>
                        <g transform="matrix(1,0,0,1,1279.61,918.348)">
                            <path d="M0,6.331C-0.249,6.331 -0.5,6.25 -0.711,6.084L-5.635,2.195C-6.133,1.802 -6.217,1.081 -5.823,0.583C-5.432,0.085 -4.709,0 -4.211,0.393L0.713,4.282C1.21,4.675 1.295,5.396 0.901,5.894C0.675,6.182 0.34,6.331 0,6.331" style="fill:rgb(198,198,198);fill-rule:nonzero;"/>
                        </g>
                        <g transform="matrix(1,0,0,1,1279.61,921.054)">
                            <path d="M0,3.625C-0.582,3.625 -1.081,3.183 -1.141,2.591C-1.204,1.96 -0.743,1.397 -0.112,1.334L12.646,0.059C13.273,0 13.838,0.456 13.901,1.087C13.965,1.718 13.505,2.281 12.874,2.344L0.116,3.62C0.077,3.623 0.038,3.625 0,3.625" style="fill:rgb(198,198,198);fill-rule:nonzero;"/>
                        </g>
                        <g transform="matrix(1,0,0,1,1282.41,921.744)">
                            <path d="M0,14.161C-0.634,14.161 -1.148,13.647 -1.148,13.013L-1.148,1.149C-1.148,0.515 -0.634,0 0,0C0.634,0 1.148,0.515 1.148,1.149L1.148,13.013C1.148,13.647 0.634,14.161 0,14.161" style="fill:rgb(198,198,198);fill-rule:nonzero;"/>
                        </g>
                        <g transform="matrix(1,0,0,1,1301.81,933.609)">
                            <path d="M0,2.296L-19.392,2.296C-20.025,2.296 -20.54,1.782 -20.54,1.148C-20.54,0.514 -20.025,0 -19.392,0L0,0C0.634,0 1.147,0.514 1.147,1.148C1.147,1.782 0.634,2.296 0,2.296" style="fill:rgb(198,198,198);fill-rule:nonzero;"/>
                        </g>
                        <g transform="matrix(1,0,0,1,1285.99,933.609)">
                            <path d="M0,51.54C-0.634,51.54 -1.147,51.026 -1.147,50.392L-1.147,1.148C-1.147,0.514 -0.634,0 0,0C0.634,0 1.148,0.514 1.148,1.148L1.148,50.392C1.148,51.026 0.634,51.54 0,51.54" style="fill:rgb(198,198,198);fill-rule:nonzero;"/>
                        </g>
                        <g transform="matrix(1,0,0,1,1266.34,958.231)">
                            <path d="M0,23.898C-0.634,23.898 -1.148,23.384 -1.148,22.75L-1.148,1.148C-1.148,0.514 -0.634,0 0,0C0.634,0 1.148,0.514 1.148,1.148L1.148,22.75C1.148,23.384 0.634,23.898 0,23.898" style="fill:rgb(198,198,198);fill-rule:nonzero;"/>
                        </g>
                        <g transform="matrix(1,0,0,1,1304.61,947.991)">
                            <path d="M0,5.01C-0.178,5.01 -0.358,4.968 -0.527,4.881L-5.454,2.33C-6.018,2.038 -6.237,1.345 -5.945,0.782C-5.653,0.219 -4.958,0 -4.398,0.291L0.528,2.842C1.092,3.134 1.312,3.826 1.021,4.389C0.816,4.784 0.415,5.01 0,5.01" style="fill:rgb(198,198,198);fill-rule:nonzero;"/>
                        </g>
                        <g transform="matrix(1,0,0,1,1331.15,950.556)">
                            <path d="M0,36.635C-0.343,36.635 -0.682,36.482 -0.907,36.191L-27.443,2.001C-27.832,1.5 -27.741,0.778 -27.24,0.389C-26.739,0 -26.018,0.092 -25.63,0.593L0.906,34.782C1.296,35.284 1.204,36.005 0.703,36.394C0.494,36.556 0.246,36.635 0,36.635" style="fill:rgb(198,198,198);fill-rule:nonzero;"/>
                        </g>
                        <g transform="matrix(1,0,0,1,1304.61,938.815)">
                            <path d="M0,14.185C-0.352,14.185 -0.699,14.024 -0.925,13.72C-1.301,13.21 -1.193,12.491 -0.684,12.114L15.195,0.377C15.704,0 16.423,0.108 16.801,0.618C17.177,1.128 17.069,1.847 16.56,2.224L0.682,13.96C0.476,14.112 0.236,14.185 0,14.185" style="fill:rgb(198,198,198);fill-rule:nonzero;"/>
                        </g>
                        <g transform="matrix(1,0,0,1,1326.56,938.813)">
                            <path d="M0,6.788C-0.232,6.788 -0.465,6.718 -0.668,6.574L-6.732,2.236C-7.248,1.868 -7.367,1.15 -6.998,0.635C-6.63,0.118 -5.911,0 -5.396,0.369L0.669,4.706C1.185,5.075 1.304,5.792 0.934,6.308C0.71,6.621 0.357,6.788 0,6.788" style="fill:rgb(198,198,198);fill-rule:nonzero;"/>
                        </g>
                        <g transform="matrix(1,0,0,1,1359.45,943.165)">
                            <path d="M0,41.984C-0.329,41.984 -0.656,41.843 -0.884,41.57L-33.782,2.023C-34.187,1.535 -34.12,0.811 -33.633,0.405C-33.145,0 -32.422,0.067 -32.017,0.553L0.882,40.101C1.287,40.589 1.221,41.313 0.733,41.718C0.519,41.897 0.259,41.984 0,41.984" style="fill:rgb(198,198,198);fill-rule:nonzero;"/>
                        </g>
                        <g transform="matrix(1,0,0,1,1340.33,972.011)">
                            <path d="M0,10.118C-0.35,10.118 -0.693,9.959 -0.92,9.659C-1.3,9.152 -1.197,8.432 -0.69,8.051L9.537,0.38C10.046,0 10.766,0.102 11.146,0.61C11.525,1.117 11.423,1.836 10.916,2.217L0.688,9.889C0.481,10.043 0.24,10.118 0,10.118" style="fill:rgb(198,198,198);fill-rule:nonzero;"/>
                        </g>
                        <g transform="matrix(1,0,0,1,1375.03,900.88)">
                            <path d="M0,8.715C-0.048,8.715 -0.098,8.712 -0.147,8.705L-49.773,2.357C-50.401,2.277 -50.847,1.702 -50.767,1.072C-50.685,0.444 -50.112,0 -49.481,0.08L0.145,6.428C0.773,6.508 1.218,7.083 1.138,7.713C1.063,8.292 0.569,8.715 0,8.715" style="fill:rgb(198,198,198);fill-rule:nonzero;"/>
                        </g>
                    </g>
                </g>
                <g transform="matrix(0.977739,0.209824,-0.209824,0.977739,0,0)">
                    <text x="1127.49px" y="558.634px" style="font-family:'ArialMT', 'Arial', sans-serif;font-size:7.654px;fill:rgb(45,44,43);">у<tspan x="1131.7px 1136.73px 1139.41px 1145px 1149.81px 1154.63px 1160.68px 1164.59px 1169.43px 1174.21px " y="558.634px 558.634px 558.634px 558.634px 558.634px 558.634px 558.634px 558.634px 558.634px 558.634px ">л.Барыкина</tspan></text>
                </g>
                <g transform="matrix(0.198487,-0.980103,0.980103,0.198487,0,0)">
                    <text x="-642.027px" y="1267.73px" style="font-family:'ArialMT', 'Arial', sans-serif;font-size:7.654px;fill:rgb(45,44,43);">В<tspan x="-636.343px -631.507px -626.652px -622.245px -618.232px -613.396px -608.836px -604px -599.276px -596.57px -592.332px -587.287px " y="1267.73px 1267.73px 1267.73px 1267.73px 1267.73px 1267.73px 1267.73px 1267.73px 1267.73px 1267.73px 1267.73px 1267.73px ">ойсковая ул.</tspan></text>
                </g>
                <g transform="matrix(-0.00497747,-0.999988,0.999988,-0.00497747,0,0)">
                    <text x="-930.354px" y="1251.28px" style="font-family:'ArialMT', 'Arial', sans-serif;font-size:7.654px;fill:rgb(45,44,43);">К<tspan x="-925.321px -920.49px -916.088px -910.251px -905.401px -900.839px -896.007px -891.606px -887.514px -882.683px -877.964px -875.263px -871.029px -865.989px " y="1251.28px 1251.28px 1251.28px 1251.28px 1251.28px 1251.28px 1251.28px 1251.28px 1251.28px 1251.28px 1251.28px 1251.28px 1251.28px 1251.28px ">осмическая ул.</tspan></text>
                </g>
                <g transform="matrix(0.245676,-0.969352,0.969352,0.245676,0,0)">
                    <text x="-491.287px" y="1409.47px" style="font-family:'ArialMT', 'Arial', sans-serif;font-size:7.654px;fill:rgb(45,44,43);">п<tspan x="-486.666px -481.933px " y="1409.47px 1409.47px ">р.</tspan></text>
                    <text x="-477.364px" y="1409.47px" style="font-family:'ArialMT', 'Arial', sans-serif;font-size:7.654px;fill:rgb(45,44,43);">Ге<tspan x="-468.522px -463.789px -457.015px -452.264px -448.278px -443.526px -439.616px -434.883px " y="1409.47px 1409.47px 1409.47px 1409.47px 1409.47px 1409.47px 1409.47px 1409.47px ">офизиков</tspan></text>
                </g>
                <g transform="matrix(0.173859,-0.984771,0.984771,0.173859,0,0)">
                    <text x="-594.825px" y="1451.5px" style="font-family:'ArialMT', 'Arial', sans-serif;font-size:7.654px;fill:rgb(45,44,43);">у<tspan x="-590.623px -585.613px -582.942px -577.293px -572.283px -567.482px -562.472px -557.652px -551.846px -547.027px -542.226px -537.425px -532.901px " y="1451.5px 1451.5px 1451.5px 1451.5px 1451.5px 1451.5px 1451.5px 1451.5px 1451.5px 1451.5px 1451.5px 1451.5px 1451.5px ">л.Владимирова</tspan></text>
                </g>
                <g transform="matrix(0.498103,0.867118,-0.867118,0.498103,0,0)">
                    <text x="1119.86px" y="-835.696px" style="font-family:'ArialMT', 'Arial', sans-serif;font-size:7.654px;fill:rgb(45,44,43);">у<tspan x="1124.09px 1129.12px 1131.82px 1137.89px 1142.69px 1147.52px 1150.71px 1155.54px 1160.37px 1165.03px 1170.06px 1174.86px 1179.58px " y="-835.696px -835.696px -835.696px -835.696px -835.696px -835.696px -835.696px -835.696px -835.696px -835.696px -835.696px -835.696px -835.696px ">л.Иногородняя</tspan></text>
                    <text x="1188.61px" y="-835.696px" style="font-family:'ArialMT', 'Arial', sans-serif;font-size:7.654px;fill:rgb(45,44,43);">8<tspan x="1193.44px 1196.56px " y="-835.696px -835.696px ">-я</tspan></text>
                </g>
                <g transform="matrix(0.291674,-0.956518,0.956518,0.291674,0,0)">
                    <text x="-436.882px" y="1348.82px" style="font-family:'ArialMT', 'Arial', sans-serif;font-size:7.654px;fill:rgb(45,44,43);">Т<tspan x="-431.935px -426.976px -422.017px -417.088px -412.559px -407.712px -402.754px -397.963px -393.755px -388.827px -382.623px " y="1348.82px 1348.82px 1348.82px 1348.82px 1348.82px 1348.82px 1348.82px 1348.82px 1348.82px 1348.82px 1348.82px ">ранспортный</tspan></text>
                    <text x="-376.129px" y="1348.82px" style="font-family:'ArialMT', 'Arial', sans-serif;font-size:7.654px;fill:rgb(45,44,43);">п<tspan x="-371.282px -366.324px " y="1348.82px 1348.82px ">р.</tspan></text>
                </g>
                <g transform="matrix(0.124398,-0.992232,0.992232,0.124398,0,0)">
                    <text x="-639.381px" y="954.888px" style="font-family:'ArialMT', 'Arial', sans-serif;font-size:7.654px;fill:rgb(45,44,43);">И<tspan x="-633.226px -628.346px -623.227px -618.832px -614.352px -610.193px -605.283px -600.354px -595.444px -590.324px -585.683px -580.803px -574.648px -569.719px -566.334px -561.536px -556.625px -551.715px -546.973px -542.979px " y="954.888px 954.888px 954.888px 954.888px 954.888px 954.888px 954.888px 954.888px 954.888px 954.888px 954.888px 954.888px 954.888px 954.888px 954.888px 954.888px 954.888px 954.888px 954.888px 954.888px ">ндустриальный проезд</tspan></text>
                </g>
                <g transform="matrix(0.124398,-0.992232,0.992232,0.124398,0,0)">
                    <text x="-790.541px" y="1004.44px" style="font-family:'ArialMT', 'Arial', sans-serif;font-size:7.654px;fill:rgb(45,44,43);">М<tspan x="-783.415px -778.581px -772.796px -767.666px -763.175px -759.887px -754.967px -750.046px -745.293px -740.163px -735.272px -730.463px -725.654px -722.864px -718.541px -713.411px " y="1004.44px 1004.44px 1004.44px 1004.44px 1004.44px 1004.44px 1004.44px 1004.44px 1004.44px 1004.44px 1004.44px 1004.44px 1004.44px 1004.44px 1004.44px 1004.44px ">еждугородняя ул.</tspan></text>
                </g>
                <g transform="matrix(0.993395,0.114744,-0.114744,0.993395,0,0)">
                    <text x="886.494px" y="655.758px" style="font-family:'ArialMT', 'Arial', sans-serif;font-size:7.654px;fill:rgb(45,44,43);">у<tspan x="890.711px 895.736px 898.42px 904.002px 908.817px 913.632px 919.692px 923.599px 928.432px 933.218px " y="655.758px 655.758px 655.758px 655.758px 655.758px 655.758px 655.758px 655.758px 655.758px 655.758px ">л.Барыкина</tspan></text>
                </g>
                <g transform="matrix(0.977739,0.209824,-0.209824,0.977739,0,0)">
                    <text x="1343.28px" y="562.192px" style="font-family:'ArialMT', 'Arial', sans-serif;font-size:7.654px;fill:rgb(45,44,43);">у<tspan x="1347.5px 1352.52px 1355.21px 1360.79px 1365.6px 1370.42px 1376.48px 1380.38px 1385.22px 1390px " y="562.192px 562.192px 562.192px 562.192px 562.192px 562.192px 562.192px 562.192px 562.192px 562.192px ">л.Барыкина</tspan></text>
                </g>
            </g>
        </g>
    </g>
</svg>
