<?xml version="1.0" encoding="UTF-8" standalone="no"?>
<!DOCTYPE svg PUBLIC "-//W3C//DTD SVG 1.1//EN" "http://www.w3.org/Graphics/SVG/1.1/DTD/svg11.dtd">
<svg width="100%" height="100%" viewBox="0 0 180 187" version="1.1" xmlns="http://www.w3.org/2000/svg" xmlns:xlink="http://www.w3.org/1999/xlink" xml:space="preserve" xmlns:serif="http://www.serif.com/" style="fill-rule:evenodd;clip-rule:evenodd;stroke-miterlimit:10;">
    <g transform="matrix(1,0,0,1,-277.768,-949.013)">
        <g transform="matrix(4.16667,0,0,4.16667,341.643,1093.62)">
            <path d="M0,-24.656C0.61,-24.474 1.089,-24.103 1.47,-23.605C2.262,-22.57 2.998,-21.495 3.522,-20.297C4.132,-18.906 3.895,-17.945 2.749,-16.959C2.42,-16.677 2.093,-16.39 1.742,-16.135C0.671,-15.355 0.433,-14.607 0.886,-13.354C1.258,-12.324 1.884,-11.445 2.554,-10.597C3.456,-9.456 4.413,-8.362 5.575,-7.477C6.017,-7.141 6.508,-6.85 7.015,-6.625C7.899,-6.234 8.645,-6.441 9.321,-7.132C9.758,-7.577 10.216,-8.006 10.694,-8.405C11.606,-9.167 12.612,-9.152 13.59,-8.583C14.953,-7.789 16.142,-6.765 17.14,-5.541C17.588,-4.992 17.803,-4.355 17.442,-3.655C17.375,-3.525 17.301,-3.386 17.196,-3.288C16.209,-2.363 15.267,-1.378 14.005,-0.804C12.735,-0.227 11.407,0 10.019,-0.126C7.532,-0.353 5.43,-1.472 3.535,-3.003C0.462,-5.486 -2.074,-8.433 -3.893,-11.96C-4.615,-13.36 -5.104,-14.84 -5.232,-16.423C-5.238,-16.495 -5.264,-16.566 -5.28,-16.638L-5.28,-17.847C-5.26,-17.939 -5.23,-18.031 -5.221,-18.124C-5.084,-19.51 -4.604,-20.764 -3.792,-21.896C-3.26,-22.636 -2.548,-23.185 -1.871,-23.776C-1.458,-24.136 -1.043,-24.486 -0.509,-24.656L0,-24.656Z" style="fill:none;fill-rule:nonzero;stroke:rgb(45,44,43);stroke-width:2px;"/>
        </g>
    </g>
</svg>
